<svg width="22" height="22" viewBox="0 0 22 22" fill="none" xmlns="http://www.w3.org/2000/svg">
<path fill-rule="evenodd" clip-rule="evenodd" d="M19.8798 0.87207H7.20756C6.51195 0.87207 5.93537 1.44769 5.93537 2.14426V5.9365L2.11985 5.93556C1.42423 5.93556 0.847656 6.51118 0.847656 7.20776V19.88C0.847656 20.5756 1.42327 21.1522 2.11985 21.1522H14.7921C15.4877 21.1522 16.0643 20.5766 16.0643 19.88V16.0645H19.8798C20.5754 16.0645 21.152 15.4889 21.152 14.7923V2.12004C21.1276 1.42443 20.5754 0.87207 19.8798 0.87207ZM14.1676 19.2321H2.76756V7.83207H5.93532V14.7921C5.93532 15.4877 6.51094 16.0643 7.20751 16.0643H14.1675L14.1676 19.2321ZM19.232 14.1676H7.83204V2.76759H19.232V14.1676Z" fill="#3E389F"/>
</svg>
