<svg width="28" height="28" viewBox="0 0 28 28" fill="none" xmlns="http://www.w3.org/2000/svg">
<path fill-rule="evenodd" clip-rule="evenodd" d="M14 10.5C12.0674 10.5 10.5 12.0674 10.5 14C10.5 15.9326 12.0674 17.5 14 17.5C15.9326 17.5 17.5 15.9326 17.5 14C17.5 12.0674 15.9326 10.5 14 10.5ZM12.833 14C12.833 13.3558 13.3558 12.833 14 12.833C14.6442 12.833 15.167 13.3558 15.167 14C15.167 14.6442 14.6442 15.167 14 15.167C13.3558 15.167 12.833 14.6442 12.833 14Z" fill="#3E389F"/>
<path fill-rule="evenodd" clip-rule="evenodd" d="M23.0745 10.9246C18.0631 5.91316 9.93637 5.91316 4.92493 10.9246L2.67508 13.1755C2.21898 13.6305 2.21898 14.3699 2.67508 14.8249L4.92493 17.0759C9.93637 22.0873 18.0631 22.0873 23.0745 17.0759L25.3244 14.8249C25.7805 14.3699 25.7805 13.6305 25.3244 13.1755L23.0745 10.9246ZM6.57525 12.5751C10.6759 8.47446 17.3236 8.47446 21.4239 12.5751L22.8502 14.0002L21.4239 15.4253C17.3233 19.5259 10.6756 19.5259 6.57525 15.4253L5.14899 14.0002L6.57525 12.5751Z" fill="#3E389F"/>
</svg>
