<svg width="28" height="28" viewBox="0 0 28 28" fill="none" xmlns="http://www.w3.org/2000/svg">
<path fill-rule="evenodd" clip-rule="evenodd" d="M4.32444 2.67508C3.86944 2.21898 3.13008 2.21898 2.67508 2.67508C2.21898 3.13008 2.21898 3.86944 2.67508 4.32445L23.6751 25.3244C24.1301 25.7805 24.8694 25.7805 25.3244 25.3244C25.7805 24.8694 25.7805 24.1301 25.3244 23.6751L20.6378 18.9873C21.5052 18.4623 22.3244 17.8247 23.0747 17.0755L25.3245 14.8245C25.7806 14.3695 25.7806 13.6301 25.3245 13.1751L23.0747 10.9242C19.4291 7.27859 14.1365 6.28571 9.59323 7.94275L4.32444 2.67508ZM11.4588 9.80948L12.4903 10.8409C12.9474 10.6221 13.4593 10.4996 13.9996 10.4996C15.9323 10.4996 17.4996 12.067 17.4996 13.9996C17.4996 14.5399 17.3771 15.0518 17.1584 15.509L18.9259 17.2765C19.8238 16.7985 20.6671 16.1816 21.424 15.4248L22.8503 13.9996L21.424 12.5745C18.7224 9.87293 14.9152 8.951 11.4588 9.80948Z" fill="#3E389F"/>
<path d="M5.98806 9.97119C5.62056 10.2654 5.2662 10.5837 4.92493 10.9238L2.67508 13.1748C2.21898 13.6298 2.21898 14.3692 2.67508 14.8242L4.92493 17.0751C8.09341 20.2425 12.5045 21.4087 16.5886 20.5717L14.505 18.4881C11.6524 18.6249 8.7541 17.6033 6.57542 15.4247L5.14916 13.9995L6.57542 12.5744C6.91668 12.232 7.27651 11.9192 7.65056 11.6337L5.98806 9.97119Z" fill="#3E389F"/>
</svg>
