<svg width="45" height="45" viewBox="0 0 45 45" fill="none" xmlns="http://www.w3.org/2000/svg">
<mask id="mask0_2784_10546" style="mask-type:alpha" maskUnits="userSpaceOnUse" x="0" y="0" width="45" height="45">
<rect x="0.246094" y="0.911133" width="44" height="44" rx="8" fill="#D9D9D9"/>
</mask>
<g mask="url(#mask0_2784_10546)">
<path d="M20.009 -0.299847C18.6319 -0.103115 17.6937 0.153492 16.8761 0.564064C16.0756 0.966084 4.73183 7.36416 4.15517 7.73197C2.23584 8.98934 0.841538 11.0593 0.376769 13.3773C0.196025 14.2584 0.196025 28.8337 0.376769 29.7147C0.634974 31.0063 1.27188 32.4176 2.04649 33.4184C2.5543 34.077 3.44941 34.8981 4.15517 35.36C4.98143 35.8989 16.4027 42.3055 17.1601 42.6477C17.5044 42.8102 18.1671 43.0412 18.6233 43.1695C19.3462 43.3576 19.6217 43.3833 20.7836 43.3833C21.9455 43.3833 22.2209 43.3576 22.9439 43.1695C23.4001 43.0412 24.0628 42.8102 24.4071 42.6562C25.1817 42.297 36.8009 35.7706 37.5067 35.3002C39.3571 34.0599 40.6826 32.0498 41.199 29.7147C41.2851 29.3127 41.3109 27.5506 41.3109 21.546C41.3109 15.5414 41.2851 13.7794 41.199 13.3773C40.7859 11.487 39.8563 9.83615 38.5051 8.57877C37.98 8.09977 37.3345 7.64643 36.3189 7.07334C31.2409 4.19934 24.9149 0.675259 24.4329 0.452866C23.1763 -0.128777 21.1881 -0.462368 20.009 -0.299847ZM22.789 1.40231C23.2107 1.52206 23.7099 1.70169 23.9079 1.79578C24.4673 2.07805 36.0951 8.62154 36.5771 8.92947C38.0317 9.8447 39.1764 11.4613 39.6498 13.249L39.8477 13.9761V21.546V29.1159L39.6498 29.843C39.1764 31.6307 38.0317 33.2473 36.5771 34.1625C35.7853 34.6672 24.2177 41.1508 23.7357 41.3561C22.0316 42.1088 19.7852 42.1345 18.0122 41.416C17.1429 41.0738 5.00725 34.2139 4.41337 33.7349C3.23424 32.7854 2.31331 31.357 1.90879 29.843C1.71943 29.1159 1.71943 29.1074 1.71943 21.546V13.9761L1.91739 13.249C2.39077 11.4528 3.48384 9.92168 4.96421 8.95513C5.21381 8.79261 8.20899 7.09045 11.6173 5.17445C17.9777 1.6076 18.4167 1.38521 19.6647 1.18848C20.4909 1.06017 21.9455 1.15426 22.789 1.40231Z" fill="black"/>
<path d="M19.6568 3.41273C19.4846 3.45549 19.1576 3.56669 18.9166 3.66078C18.3055 3.90028 6.39364 10.6148 5.8342 11.034C4.99073 11.6669 4.34522 12.6677 4.04398 13.8053C3.84602 14.5581 3.84602 28.5175 4.04398 29.2873C4.34522 30.4763 5.05098 31.5113 6.00633 32.187C6.88423 32.7943 18.5465 39.3036 19.149 39.5174C19.6224 39.6885 19.8806 39.7141 20.7843 39.7141C21.7224 39.7227 21.9376 39.6885 22.4626 39.5003C22.936 39.3292 33.9527 33.222 35.3729 32.341C36.3196 31.7508 37.2147 30.4848 37.5246 29.2873C37.7225 28.5261 37.7225 14.5666 37.5246 13.8053C37.2233 12.6249 36.4057 11.436 35.4848 10.8287C34.5122 10.1957 23.0565 3.81475 22.5142 3.60946C22.0495 3.42983 21.7655 3.37851 20.9564 3.3614C20.4142 3.3443 19.8289 3.36996 19.6568 3.41273ZM21.8773 4.93527C22.3507 5.08923 33.6171 11.359 34.6327 12.0347C35.2352 12.4453 35.7946 13.198 36.0184 13.908C36.1819 14.4469 36.1905 14.6949 36.1905 21.5463C36.1905 28.3978 36.1819 28.6458 36.0184 29.1847C35.7946 29.8946 35.2352 30.6473 34.6327 31.0579C33.6171 31.7336 22.3507 38.0034 21.8773 38.1574C20.8273 38.4824 19.717 38.3114 18.5465 37.6271C18.2367 37.4474 15.5169 35.9164 12.4959 34.2142C9.47489 32.5206 6.86702 31.0237 6.70349 30.9039C6.24733 30.5533 5.73952 29.8005 5.55017 29.1761C5.38664 28.6458 5.37804 28.3635 5.37804 21.5463C5.37804 14.8318 5.38664 14.4383 5.54157 13.9422C5.74813 13.2836 6.16126 12.642 6.61742 12.2657C6.80677 12.1117 9.44907 10.5892 12.4787 8.88702C15.5083 7.18486 18.2539 5.62811 18.5895 5.43993C18.9166 5.25175 19.3986 5.0208 19.6654 4.94382C20.2937 4.73853 21.2404 4.73853 21.8773 4.93527Z" fill="black"/>
<path d="M8.55233 15.2079L8.30273 15.4559V21.5461V27.6362L8.55233 27.8843C8.70726 28.0297 8.89661 28.1323 9.03432 28.1323C9.17202 28.1323 9.36138 28.0297 9.5163 27.8843L9.7659 27.6362L9.7745 23.2397V18.8517L12.0725 23.3851C14.0091 27.2 14.405 27.9356 14.6115 28.0297C14.9042 28.1751 15.2054 28.1067 15.4464 27.8586C15.6185 27.679 15.6185 27.5849 15.6185 21.5461C15.6185 15.5072 15.6185 15.4131 15.4464 15.2335C15.214 14.9855 14.9042 14.917 14.6202 15.0624C14.1554 15.2763 14.1554 15.2592 14.1554 19.9209L14.1468 24.2404L11.8746 19.7327C10.4717 16.9528 9.5249 15.1822 9.40441 15.0967C9.11178 14.8914 8.83636 14.9341 8.55233 15.2079Z" fill="black"/>
<path d="M18.2496 14.248L18 14.496V20.5862V26.6763L18.2582 26.9329C18.482 27.1468 18.5681 27.181 18.8004 27.1382C18.9554 27.1126 19.1619 26.9928 19.2738 26.8645C19.4632 26.6507 19.4632 26.625 19.4632 23.9991V21.356H20.8661C22.553 21.356 22.8715 21.2876 23.0436 20.877C23.1469 20.6289 23.1469 20.5434 23.0436 20.2954C22.8715 19.8848 22.553 19.8164 20.8661 19.8164H19.4632V17.6352V15.454H22.1743H24.8941L25.1006 15.2402C25.4191 14.9323 25.3933 14.5046 25.049 14.2223L24.7822 13.9999H21.6407H18.4992L18.2496 14.248Z" fill="black"/>
<path d="M26.3342 15.062C25.8953 15.3101 25.8092 15.8575 26.1621 16.1997C26.36 16.4049 26.4031 16.4135 27.6252 16.4135H28.8732V22.0247V27.6358L29.1314 27.8924C29.3552 28.1063 29.4413 28.1405 29.6737 28.0977C29.8286 28.072 30.0351 27.9523 30.147 27.824L30.3364 27.6101V22.0075V16.4135H31.5844C32.8066 16.4135 32.8496 16.4049 33.0475 16.1997C33.3488 15.9088 33.3316 15.5325 33.0131 15.2074L32.7635 14.9594H29.6306C27.4445 14.9679 26.4547 14.9936 26.3342 15.062Z" fill="black"/>
</g>
</svg>
