<svg width="24" height="20" viewBox="0 0 24 20" fill="none" xmlns="http://www.w3.org/2000/svg">
<path d="M2.22168 3.04883L2.22168 8.47061L7.67579 8.47061" stroke="#3E389F" stroke-width="2.25" stroke-linecap="round" stroke-linejoin="round"/>
<path d="M22.2188 17.5077L22.2188 12.0859L16.7646 12.0859" stroke="#3E389F" stroke-width="2.25" stroke-linecap="round" stroke-linejoin="round"/>
<path d="M19.7168 7.41965C19.2557 6.12455 18.4722 4.96665 17.4392 4.054C16.4063 3.14135 15.1576 2.50368 13.8097 2.20051C12.4618 1.89733 11.0586 1.93853 9.73102 2.32025C8.40346 2.70198 7.19481 3.41179 6.21784 4.38345L2 8.32328M21.9984 11.9378L17.7805 15.8776C16.8036 16.8493 15.5949 17.5591 14.2674 17.9408C12.9398 18.3226 11.5366 18.3637 10.1887 18.0606C8.84078 17.7574 7.59209 17.1197 6.55915 16.2071C5.5262 15.2944 4.74266 14.1365 4.28163 12.8414" stroke="#3E389F" stroke-width="2.25" stroke-linecap="round" stroke-linejoin="round"/>
</svg>
