<?xml version="1.0" encoding="utf-8"?>
<!-- Generator: Adobe Illustrator 26.3.1, SVG Export Plug-In . SVG Version: 6.00 Build 0)  -->
<svg version="1.1" id="Layer_2_00000183956719241918200500000002137653425272223111_"
	 xmlns="http://www.w3.org/2000/svg" xmlns:xlink="http://www.w3.org/1999/xlink" x="0px" y="0px" viewBox="0 0 155.3 127.2"
	 style="enable-background:new 0 0 155.3 127.2;" xml:space="preserve">
<style type="text/css">
	.st0{fill:#4DC359;}
	.st1{fill:#F34337;}
	.st2{fill:#3E389F;}
	.st3{fill:none;stroke:#3E389F;stroke-miterlimit:10;}
</style>
<g id="Layer_1-2">
	<path class="st0" d="M94.7,124.6C93.9,83.1,54.1,50.1,5.6,51C6.4,92.6,46.3,125.5,94.7,124.6z"/>
	<path class="st0" d="M110.8,78.6c14.9-18.9,37-23.4,38.3-22.4c1.3,1.1,4.1,24.7-10.8,43.6s-41.8,25.8-43.1,24.8
		S95.9,97.4,110.8,78.6z"/>
	<circle class="st1" cx="82.1" cy="28.5" r="23.7"/>
	<g>
		<path class="st2" d="M82.1,56.4c15.4,0,28-12.5,28-28s-12.5-28-28-28s-28,12.5-28,28S66.7,56.4,82.1,56.4z M61.9,28.5
			c0-11.1,9-20.1,20.1-20.1s20.1,9,20.1,20.1s-9,20.1-20.1,20.1S61.9,39.6,61.9,28.5z"/>
		<path class="st3" d="M82.1,56.4c15.4,0,28-12.5,28-28s-12.5-28-28-28s-28,12.5-28,28S66.7,56.4,82.1,56.4z M61.9,28.5
			c0-11.1,9-20.1,20.1-20.1s20.1,9,20.1,20.1s-9,20.1-20.1,20.1S61.9,39.6,61.9,28.5z"/>
	</g>
	<g>
		<path class="st2" d="M154.8,60v-8.4c-0.1-0.7-0.4-1.2-0.9-1.6c-0.5-0.4-1.1-0.6-1.8-0.5l-1.5,0.2c-5.4,0.6-10.8,2-15.9,3.9
			c-20.6,7.9-36.1,25.9-40.8,47.4c-4.5-13-12.9-24.7-24.3-34.2C52,52.1,28.8,44.3,4.3,44.8c-1,0-2,0.4-2.7,1.2
			c-0.7,0.8-1.1,1.8-1.1,2.8c0.4,21.4,10.4,41.3,28.2,56c17.1,14.2,39.6,21.9,63.3,21.9h0c0.6,0,3.1-0.2,3.7-0.2
			C129.4,122.5,154.8,93.9,154.8,60L154.8,60z M109.4,109.1c5.9-7.7,12.1-15.6,19.2-22.7c0.7-0.7,0.8-1.7,0.2-2.4
			c-0.4-0.6-1-0.9-1.6-0.9c-0.2,0-0.5,0.1-0.8,0.2c-12.1,5-21.1,16.8-26,27.2c1.8-22.3,16.1-41.6,37.1-49.6c3-1.2,6.2-2.1,9.4-2.7
			c0.1,0,0.3,0,0.4,0.1c0.1,0.1,0.2,0.2,0.2,0.4c1.1,27.9-17.6,52.3-44.7,58.7C105.1,114.6,107.2,111.8,109.4,109.1L109.4,109.1z
			 M37.2,78.1c-0.9-0.1-1.8,0.4-2,1.3c-0.3,0.9,0.2,1.8,1,2.2c1.3,0.6,2.7,1.2,4,1.8c3,1.3,5.7,2.6,8.5,3.9
			c10.3,4.9,19.8,11.8,29.7,21.8c2.3,2.3,4.6,4.7,6.8,7c0.8,0.8,1.6,1.7,2.3,2.5c-20.2-0.9-39.3-8-53.9-20
			c-14.3-11.8-22.9-27-25-43.8c-0.1-0.6,0.1-1.2,0.5-1.7c0.4-0.4,0.9-0.7,1.5-0.6c20.2,0.9,39.3,8,53.9,20
			c13.3,11,21.9,25.5,24.5,41.1C77.8,94,59,81.1,37.2,78.1L37.2,78.1z"/>
		<path class="st3" d="M154.8,60v-8.4c-0.1-0.7-0.4-1.2-0.9-1.6c-0.5-0.4-1.1-0.6-1.8-0.5l-1.5,0.2c-5.4,0.6-10.8,2-15.9,3.9
			c-20.6,7.9-36.1,25.9-40.8,47.4c-4.5-13-12.9-24.7-24.3-34.2C52,52.1,28.8,44.3,4.3,44.8c-1,0-2,0.4-2.7,1.2
			c-0.7,0.8-1.1,1.8-1.1,2.8c0.4,21.4,10.4,41.3,28.2,56c17.1,14.2,39.6,21.9,63.3,21.9h0c0.6,0,3.1-0.2,3.7-0.2
			C129.4,122.5,154.8,93.9,154.8,60L154.8,60z M109.4,109.1c5.9-7.7,12.1-15.6,19.2-22.7c0.7-0.7,0.8-1.7,0.2-2.4
			c-0.4-0.6-1-0.9-1.6-0.9c-0.2,0-0.5,0.1-0.8,0.2c-12.1,5-21.1,16.8-26,27.2c1.8-22.3,16.1-41.6,37.1-49.6c3-1.2,6.2-2.1,9.4-2.7
			c0.1,0,0.3,0,0.4,0.1c0.1,0.1,0.2,0.2,0.2,0.4c1.1,27.9-17.6,52.3-44.7,58.7C105.1,114.6,107.2,111.8,109.4,109.1L109.4,109.1z
			 M37.2,78.1c-0.9-0.1-1.8,0.4-2,1.3c-0.3,0.9,0.2,1.8,1,2.2c1.3,0.6,2.7,1.2,4,1.8c3,1.3,5.7,2.6,8.5,3.9
			c10.3,4.9,19.8,11.8,29.7,21.8c2.3,2.3,4.6,4.7,6.8,7c0.8,0.8,1.6,1.7,2.3,2.5c-20.2-0.9-39.3-8-53.9-20
			c-14.3-11.8-22.9-27-25-43.8c-0.1-0.6,0.1-1.2,0.5-1.7c0.4-0.4,0.9-0.7,1.5-0.6c20.2,0.9,39.3,8,53.9,20
			c13.3,11,21.9,25.5,24.5,41.1C77.8,94,59,81.1,37.2,78.1L37.2,78.1z"/>
	</g>
</g>
</svg>
