<?xml version="1.0" encoding="UTF-8"?>
<svg xmlns="http://www.w3.org/2000/svg" xmlns:xlink="http://www.w3.org/1999/xlink" width="60px" height="60px" viewBox="0 0 60 60" version="1.1">
<g id="surface1">
<path style=" stroke:none;fill-rule:nonzero;fill:rgb(96.470588%,63.529412%,18.823529%);fill-opacity:1;" d="M 18.359375 34.070312 L 29.984375 57.964844 L 52.570312 11.550781 C 37.515625 6.242188 21.355469 6.628906 7.398438 11.550781 L 17.320312 31.933594 "/>
<path style=" stroke:none;fill-rule:nonzero;fill:rgb(77.647059%,39.607843%,0%);fill-opacity:1;" d="M 55.757812 5.058594 C 54.164062 4.621094 52.328125 4.972656 50.738281 4.53125 C 49.042969 4.0625 47.5625 2.671875 45.835938 2.320312 C 44.113281 1.964844 42.207031 2.664062 40.457031 2.429688 C 38.714844 2.195312 37.0625 1.019531 35.300781 0.902344 C 33.550781 0.785156 31.753906 1.730469 29.984375 1.730469 L 30.011719 1.730469 C 28.242188 1.730469 26.449219 0.785156 24.695312 0.902344 C 22.933594 1.019531 21.28125 2.195312 19.539062 2.429688 C 17.789062 2.664062 15.882812 1.964844 14.160156 2.320312 C 12.433594 2.671875 10.957031 4.0625 9.257812 4.53125 C 7.671875 4.972656 5.832031 4.621094 4.238281 5.058594 L 7.398438 11.550781 C 21.355469 6.628906 37.515625 6.242188 52.570312 11.550781 Z M 55.757812 5.058594 "/>
<path style=" stroke:none;fill-rule:nonzero;fill:rgb(83.529412%,20%,28.627451%);fill-opacity:1;" d="M 27.3125 18.007812 C 27.3125 21.023438 24.867188 23.472656 21.847656 23.472656 C 18.832031 23.472656 16.382812 21.023438 16.382812 18.007812 C 16.382812 14.988281 18.832031 12.542969 21.847656 12.542969 C 24.867188 12.542969 27.3125 14.988281 27.3125 18.007812 Z M 27.3125 18.007812 "/>
<path style=" stroke:none;fill-rule:nonzero;fill:rgb(83.529412%,20%,28.627451%);fill-opacity:1;" d="M 34.136719 37.953125 C 34.136719 40.246094 32.277344 42.105469 29.984375 42.105469 C 27.691406 42.105469 25.832031 40.246094 25.832031 37.953125 C 25.832031 35.660156 27.691406 33.800781 29.984375 33.800781 C 32.277344 33.800781 34.136719 35.660156 34.136719 37.953125 Z M 34.136719 37.953125 "/>
<path style=" stroke:none;fill-rule:nonzero;fill:rgb(100%,88.627451%,52.156863%);fill-opacity:1;" d="M 33.582031 21.007812 L 31.351562 23.234375 C 30.207031 24.382812 30.207031 26.242188 31.351562 27.390625 C 31.992188 28.03125 33.03125 28.03125 33.671875 27.390625 L 34.273438 26.789062 L 36.542969 29.058594 L 39.40625 26.195312 L 37.136719 23.925781 L 37.734375 23.328125 C 38.378906 22.6875 38.378906 21.648438 37.734375 21.007812 C 36.589844 19.859375 34.726562 19.859375 33.582031 21.007812 Z M 33.582031 21.007812 "/>
<path style=" stroke:none;fill-rule:nonzero;fill:rgb(32.54902%,9.411765%,5.882353%);fill-opacity:1;" d="M 38.066406 10.960938 C 35.15625 10.585938 32.371094 10.386719 30.007812 10.386719 L 30.007812 12.167969 C 32.292969 12.167969 35 12.359375 37.839844 12.726562 Z M 38.066406 10.960938 "/>
<path style=" stroke:none;fill-rule:nonzero;fill:rgb(32.54902%,9.411765%,5.882353%);fill-opacity:1;" d="M 57.03125 4.480469 L 55.992188 4.199219 C 55.09375 3.953125 54.171875 3.929688 53.277344 3.90625 C 52.449219 3.886719 51.667969 3.863281 50.976562 3.671875 C 50.285156 3.480469 49.601562 3.097656 48.882812 2.6875 C 47.988281 2.183594 47.066406 1.660156 46.015625 1.445312 C 45.621094 1.367188 45.203125 1.324219 44.734375 1.324219 C 44.113281 1.324219 43.496094 1.394531 42.898438 1.460938 C 42.320312 1.527344 41.777344 1.585938 41.253906 1.585938 C 41.007812 1.585938 40.785156 1.574219 40.578125 1.546875 C 39.867188 1.449219 39.140625 1.160156 38.371094 0.855469 C 37.417969 0.476562 36.433594 0.0820312 35.359375 0.0117188 C 35.242188 0.00390625 35.121094 0 34.996094 0 C 34.0625 0 33.15625 0.226562 32.285156 0.445312 C 31.480469 0.648438 30.71875 0.839844 30 0.839844 C 29.277344 0.839844 28.515625 0.648438 27.714844 0.445312 C 26.839844 0.226562 25.9375 0 25 0 C 24.878906 0 24.753906 0.00390625 24.636719 0.0117188 C 23.5625 0.0820312 22.578125 0.476562 21.625 0.855469 C 20.855469 1.160156 20.128906 1.449219 19.417969 1.546875 C 19.210938 1.574219 18.988281 1.585938 18.742188 1.585938 C 18.21875 1.585938 17.675781 1.527344 17.097656 1.460938 C 16.5 1.394531 15.882812 1.328125 15.261719 1.328125 C 14.792969 1.328125 14.375 1.367188 13.980469 1.445312 C 12.929688 1.660156 12.007812 2.183594 11.113281 2.6875 C 10.394531 3.097656 9.710938 3.480469 9.019531 3.671875 C 8.328125 3.863281 7.546875 3.886719 6.71875 3.90625 C 5.824219 3.929688 4.902344 3.953125 4.003906 4.199219 L 2.96875 4.480469 L 6.597656 11.941406 L 7.054688 12.875 L 16.519531 32.324219 L 18.121094 31.542969 L 8.640625 12.066406 C 8.667969 12.054688 8.695312 12.046875 8.722656 12.039062 C 9.105469 11.910156 9.492188 11.785156 9.878906 11.664062 C 9.90625 11.65625 9.929688 11.648438 9.953125 11.640625 C 10.773438 11.382812 11.601562 11.140625 12.433594 10.917969 C 12.4375 10.914062 12.445312 10.914062 12.453125 10.910156 C 12.863281 10.800781 13.277344 10.695312 13.6875 10.589844 C 13.710938 10.585938 13.730469 10.582031 13.753906 10.574219 C 14.15625 10.476562 14.5625 10.378906 14.972656 10.285156 C 15 10.277344 15.027344 10.273438 15.054688 10.265625 C 15.460938 10.175781 15.867188 10.085938 16.273438 10.003906 C 16.300781 9.996094 16.328125 9.992188 16.355469 9.984375 C 16.765625 9.902344 17.175781 9.820312 17.585938 9.742188 C 17.609375 9.738281 17.632812 9.734375 17.65625 9.730469 C 18.074219 9.652344 18.492188 9.578125 18.910156 9.511719 C 18.925781 9.507812 18.9375 9.507812 18.953125 9.503906 C 21.117188 9.148438 23.308594 8.894531 25.515625 8.75 C 25.535156 8.75 25.550781 8.746094 25.570312 8.746094 C 25.988281 8.71875 26.40625 8.695312 26.828125 8.675781 C 26.863281 8.675781 26.898438 8.675781 26.9375 8.671875 C 27.34375 8.652344 27.75 8.640625 28.15625 8.628906 C 28.207031 8.628906 28.253906 8.625 28.304688 8.625 C 28.703125 8.613281 29.101562 8.609375 29.503906 8.605469 C 29.597656 8.605469 29.691406 8.605469 29.785156 8.605469 C 29.90625 8.605469 30.027344 8.605469 30.148438 8.605469 C 30.265625 8.605469 30.378906 8.605469 30.492188 8.605469 C 30.613281 8.605469 30.738281 8.609375 30.859375 8.609375 C 30.972656 8.609375 31.082031 8.613281 31.195312 8.613281 C 31.320312 8.617188 31.441406 8.617188 31.566406 8.621094 C 31.675781 8.625 31.789062 8.628906 31.902344 8.628906 C 32.023438 8.632812 32.148438 8.636719 32.269531 8.640625 C 32.382812 8.644531 32.496094 8.648438 32.605469 8.652344 C 32.730469 8.65625 32.851562 8.664062 32.972656 8.667969 C 33.085938 8.671875 33.199219 8.679688 33.3125 8.683594 C 33.433594 8.691406 33.554688 8.695312 33.675781 8.703125 C 33.792969 8.707031 33.90625 8.714844 34.023438 8.722656 C 34.140625 8.730469 34.257812 8.734375 34.375 8.742188 C 34.496094 8.75 34.617188 8.757812 34.734375 8.765625 C 34.847656 8.773438 34.960938 8.78125 35.074219 8.792969 C 35.199219 8.800781 35.324219 8.8125 35.449219 8.820312 C 35.554688 8.828125 35.664062 8.835938 35.769531 8.847656 C 35.902344 8.859375 36.035156 8.871094 36.164062 8.882812 C 36.265625 8.890625 36.367188 8.898438 36.46875 8.910156 C 36.609375 8.921875 36.75 8.9375 36.890625 8.953125 C 36.980469 8.960938 37.074219 8.96875 37.164062 8.980469 C 37.320312 8.996094 37.476562 9.011719 37.632812 9.03125 C 37.707031 9.039062 37.78125 9.046875 37.855469 9.054688 C 38.03125 9.078125 38.210938 9.097656 38.386719 9.121094 C 38.441406 9.128906 38.496094 9.132812 38.550781 9.140625 C 38.765625 9.167969 38.984375 9.195312 39.203125 9.226562 C 39.214844 9.226562 39.226562 9.230469 39.242188 9.230469 C 40.175781 9.359375 41.105469 9.507812 42.035156 9.675781 C 42.042969 9.675781 42.050781 9.679688 42.058594 9.679688 C 42.28125 9.722656 42.5 9.761719 42.722656 9.804688 C 42.753906 9.8125 42.785156 9.816406 42.816406 9.824219 C 43.011719 9.859375 43.210938 9.898438 43.40625 9.941406 C 43.453125 9.949219 43.5 9.960938 43.550781 9.96875 C 43.730469 10.007812 43.910156 10.042969 44.089844 10.082031 C 44.148438 10.09375 44.207031 10.105469 44.265625 10.121094 C 44.433594 10.15625 44.601562 10.191406 44.773438 10.230469 C 44.835938 10.246094 44.902344 10.261719 44.96875 10.277344 C 45.128906 10.3125 45.289062 10.351562 45.453125 10.386719 C 45.523438 10.40625 45.597656 10.421875 45.667969 10.441406 C 45.820312 10.476562 45.976562 10.515625 46.128906 10.550781 C 46.207031 10.570312 46.285156 10.589844 46.363281 10.609375 C 46.511719 10.648438 46.65625 10.683594 46.804688 10.722656 C 46.886719 10.742188 46.96875 10.765625 47.054688 10.789062 C 47.195312 10.824219 47.335938 10.863281 47.476562 10.898438 C 47.566406 10.921875 47.652344 10.945312 47.738281 10.972656 C 47.875 11.007812 48.011719 11.046875 48.148438 11.085938 C 48.242188 11.109375 48.332031 11.136719 48.421875 11.160156 C 48.554688 11.199219 48.6875 11.238281 48.820312 11.277344 C 48.914062 11.304688 49.007812 11.332031 49.101562 11.359375 C 49.230469 11.398438 49.359375 11.4375 49.484375 11.476562 C 49.582031 11.503906 49.679688 11.535156 49.777344 11.5625 C 49.902344 11.601562 50.027344 11.640625 50.152344 11.679688 C 50.25 11.710938 50.351562 11.742188 50.449219 11.777344 C 50.570312 11.816406 50.691406 11.855469 50.816406 11.894531 C 50.917969 11.925781 51.015625 11.960938 51.117188 11.996094 C 51.1875 12.019531 51.261719 12.042969 51.332031 12.066406 L 50.554688 13.660156 C 47.644531 12.707031 44.171875 11.898438 40.445312 11.304688 L 40.164062 13.0625 C 43.703125 13.625 46.996094 14.386719 49.765625 15.277344 L 29.984375 55.925781 L 19.160156 33.679688 L 17.558594 34.460938 L 29.984375 60 L 53.375 11.9375 Z M 6.761719 5.6875 C 7.664062 5.664062 8.59375 5.640625 9.496094 5.390625 C 10.398438 5.140625 11.210938 4.683594 11.992188 4.238281 C 12.800781 3.78125 13.5625 3.351562 14.339844 3.191406 C 14.613281 3.136719 14.914062 3.109375 15.261719 3.109375 C 15.785156 3.109375 16.328125 3.167969 16.902344 3.234375 C 17.5 3.300781 18.117188 3.367188 18.742188 3.367188 C 19.070312 3.367188 19.367188 3.351562 19.65625 3.3125 C 20.585938 3.1875 21.449219 2.84375 22.285156 2.511719 C 23.148438 2.167969 23.960938 1.84375 24.753906 1.789062 C 24.835938 1.785156 24.917969 1.78125 25 1.78125 C 25.714844 1.78125 26.476562 1.972656 27.28125 2.175781 C 28.148438 2.394531 29.050781 2.617188 29.984375 2.621094 L 30.011719 2.621094 C 30.945312 2.617188 31.847656 2.394531 32.71875 2.175781 C 33.519531 1.972656 34.28125 1.78125 34.996094 1.78125 C 35.078125 1.78125 35.164062 1.785156 35.242188 1.789062 C 36.035156 1.84375 36.851562 2.167969 37.710938 2.511719 C 38.546875 2.84375 39.414062 3.1875 40.339844 3.3125 C 40.628906 3.351562 40.925781 3.367188 41.253906 3.367188 C 41.878906 3.367188 42.496094 3.300781 43.09375 3.234375 C 43.667969 3.167969 44.210938 3.109375 44.734375 3.109375 C 45.082031 3.109375 45.382812 3.136719 45.65625 3.191406 C 46.4375 3.351562 47.199219 3.78125 48.003906 4.238281 C 48.789062 4.683594 49.597656 5.140625 50.5 5.390625 C 51.402344 5.640625 52.332031 5.664062 53.234375 5.6875 C 53.644531 5.699219 54.046875 5.707031 54.429688 5.738281 L 52.117188 10.449219 C 51.9375 10.386719 51.753906 10.328125 51.574219 10.269531 C 51.535156 10.253906 51.496094 10.242188 51.460938 10.230469 C 51.230469 10.15625 51 10.082031 50.769531 10.007812 C 50.714844 9.992188 50.660156 9.972656 50.605469 9.957031 C 50.429688 9.902344 50.257812 9.847656 50.082031 9.792969 C 50 9.769531 49.921875 9.746094 49.839844 9.722656 C 49.691406 9.675781 49.539062 9.632812 49.390625 9.585938 C 49.300781 9.5625 49.210938 9.535156 49.125 9.511719 C 48.980469 9.46875 48.835938 9.425781 48.695312 9.386719 C 48.601562 9.359375 48.507812 9.335938 48.414062 9.308594 C 48.277344 9.269531 48.136719 9.234375 48 9.195312 C 47.902344 9.167969 47.808594 9.144531 47.710938 9.117188 C 47.574219 9.082031 47.4375 9.046875 47.300781 9.011719 C 47.203125 8.984375 47.105469 8.960938 47.007812 8.9375 C 46.871094 8.902344 46.734375 8.867188 46.597656 8.832031 C 46.5 8.808594 46.402344 8.785156 46.304688 8.761719 C 46.167969 8.726562 46.03125 8.695312 45.894531 8.664062 C 45.796875 8.640625 45.699219 8.617188 45.601562 8.59375 C 45.464844 8.5625 45.328125 8.53125 45.1875 8.5 C 45.09375 8.476562 44.996094 8.457031 44.898438 8.433594 C 44.757812 8.402344 44.617188 8.375 44.476562 8.34375 C 44.382812 8.324219 44.289062 8.304688 44.195312 8.285156 C 44.050781 8.253906 43.90625 8.222656 43.761719 8.195312 C 43.671875 8.175781 43.582031 8.15625 43.488281 8.140625 C 43.339844 8.109375 43.191406 8.082031 43.046875 8.054688 C 42.957031 8.035156 42.871094 8.019531 42.78125 8.003906 C 42.628906 7.972656 42.476562 7.945312 42.324219 7.917969 C 42.238281 7.902344 42.15625 7.886719 42.070312 7.875 C 41.910156 7.84375 41.75 7.816406 41.59375 7.789062 C 41.515625 7.777344 41.4375 7.765625 41.359375 7.75 C 41.191406 7.722656 41.019531 7.695312 40.847656 7.667969 C 40.78125 7.65625 40.714844 7.648438 40.648438 7.636719 C 40.460938 7.609375 40.273438 7.578125 40.082031 7.550781 C 40.035156 7.542969 39.984375 7.539062 39.933594 7.53125 C 39.710938 7.496094 39.488281 7.46875 39.265625 7.4375 C 39.25 7.433594 39.234375 7.433594 39.21875 7.429688 C 38.246094 7.300781 37.269531 7.191406 36.292969 7.101562 C 36.257812 7.101562 36.222656 7.097656 36.1875 7.09375 C 35.980469 7.074219 35.773438 7.058594 35.566406 7.042969 C 35.515625 7.039062 35.460938 7.035156 35.40625 7.03125 C 35.21875 7.015625 35.03125 7 34.84375 6.988281 C 34.777344 6.984375 34.710938 6.980469 34.648438 6.976562 C 34.472656 6.964844 34.292969 6.953125 34.117188 6.941406 C 34.042969 6.9375 33.972656 6.933594 33.898438 6.929688 C 33.730469 6.921875 33.558594 6.910156 33.390625 6.902344 C 33.3125 6.898438 33.230469 6.894531 33.152344 6.890625 C 32.988281 6.882812 32.828125 6.878906 32.664062 6.871094 C 32.578125 6.867188 32.492188 6.867188 32.410156 6.863281 C 32.25 6.855469 32.09375 6.851562 31.9375 6.847656 C 31.847656 6.84375 31.757812 6.84375 31.667969 6.839844 C 31.515625 6.835938 31.363281 6.835938 31.210938 6.832031 C 31.117188 6.828125 31.019531 6.828125 30.925781 6.828125 C 30.777344 6.824219 30.632812 6.824219 30.488281 6.824219 C 30.386719 6.824219 30.285156 6.820312 30.179688 6.820312 C 30.125 6.820312 30.066406 6.820312 30.011719 6.820312 C 29.929688 6.820312 29.847656 6.820312 29.765625 6.820312 C 29.699219 6.820312 29.632812 6.820312 29.566406 6.820312 C 29.523438 6.824219 29.480469 6.824219 29.4375 6.824219 C 29.308594 6.824219 29.175781 6.828125 29.042969 6.828125 C 28.941406 6.828125 28.835938 6.832031 28.734375 6.832031 C 28.589844 6.835938 28.445312 6.839844 28.300781 6.84375 C 28.207031 6.84375 28.117188 6.847656 28.027344 6.847656 C 27.871094 6.855469 27.714844 6.859375 27.558594 6.863281 C 27.480469 6.867188 27.398438 6.871094 27.320312 6.871094 C 27.152344 6.878906 26.984375 6.886719 26.816406 6.894531 C 26.75 6.898438 26.683594 6.898438 26.613281 6.902344 C 26.433594 6.910156 26.257812 6.921875 26.078125 6.929688 C 26.019531 6.933594 25.964844 6.9375 25.90625 6.941406 C 25.71875 6.953125 25.527344 6.964844 25.339844 6.976562 C 25.292969 6.980469 25.246094 6.980469 25.199219 6.984375 C 25 7 24.800781 7.011719 24.601562 7.027344 C 24.566406 7.03125 24.527344 7.035156 24.492188 7.035156 C 24.285156 7.054688 24.074219 7.070312 23.867188 7.089844 C 23.839844 7.089844 23.8125 7.09375 23.785156 7.097656 C 23.566406 7.117188 23.347656 7.136719 23.132812 7.15625 C 23.113281 7.160156 23.097656 7.160156 23.078125 7.164062 C 22.851562 7.183594 22.625 7.207031 22.398438 7.234375 C 22.390625 7.234375 22.378906 7.234375 22.371094 7.238281 C 22.136719 7.261719 21.902344 7.289062 21.667969 7.316406 C 21.667969 7.316406 21.664062 7.316406 21.664062 7.316406 C 18.109375 7.742188 14.609375 8.445312 11.179688 9.414062 C 11.171875 9.417969 11.164062 9.417969 11.152344 9.421875 C 10.9375 9.484375 10.722656 9.546875 10.503906 9.609375 C 10.445312 9.628906 10.382812 9.644531 10.324219 9.664062 C 10.160156 9.710938 9.996094 9.761719 9.832031 9.8125 C 9.742188 9.839844 9.65625 9.867188 9.570312 9.890625 C 9.433594 9.933594 9.296875 9.976562 9.160156 10.019531 C 9.058594 10.050781 8.960938 10.085938 8.859375 10.117188 C 8.734375 10.15625 8.609375 10.195312 8.488281 10.238281 C 8.382812 10.273438 8.277344 10.308594 8.171875 10.34375 C 8.066406 10.378906 7.960938 10.414062 7.855469 10.449219 L 5.5625 5.738281 C 5.945312 5.707031 6.347656 5.699219 6.761719 5.6875 Z M 6.761719 5.6875 "/>
<path style=" stroke:none;fill-rule:nonzero;fill:rgb(32.54902%,9.411765%,5.882353%);fill-opacity:1;" d="M 21.847656 11.652344 C 18.34375 11.652344 15.492188 14.503906 15.492188 18.007812 C 15.492188 21.511719 18.34375 24.363281 21.847656 24.363281 C 25.355469 24.363281 28.203125 21.511719 28.203125 18.007812 C 28.203125 14.503906 25.355469 11.652344 21.847656 11.652344 Z M 21.847656 22.582031 C 19.328125 22.582031 17.277344 20.53125 17.277344 18.007812 C 17.277344 15.484375 19.328125 13.433594 21.847656 13.433594 C 24.371094 13.433594 26.421875 15.484375 26.421875 18.007812 C 26.421875 20.527344 24.371094 22.582031 21.847656 22.582031 Z M 21.847656 22.582031 "/>
<path style=" stroke:none;fill-rule:nonzero;fill:rgb(32.54902%,9.411765%,5.882353%);fill-opacity:1;" d="M 24.941406 37.953125 C 24.941406 40.734375 27.203125 42.996094 29.984375 42.996094 C 32.765625 42.996094 35.027344 40.734375 35.027344 37.953125 C 35.027344 35.171875 32.765625 32.910156 29.984375 32.910156 C 27.203125 32.910156 24.941406 35.171875 24.941406 37.953125 Z M 29.984375 34.691406 C 31.785156 34.691406 33.246094 36.15625 33.246094 37.953125 C 33.246094 39.75 31.785156 41.214844 29.984375 41.214844 C 28.1875 41.214844 26.722656 39.75 26.722656 37.953125 C 26.726562 36.15625 28.1875 34.691406 29.984375 34.691406 Z M 29.984375 34.691406 "/>
<path style=" stroke:none;fill-rule:nonzero;fill:rgb(32.54902%,9.411765%,5.882353%);fill-opacity:1;" d="M 30.722656 28.019531 C 31.203125 28.496094 31.835938 28.761719 32.511719 28.761719 C 33.175781 28.761719 33.796875 28.507812 34.273438 28.050781 L 36.542969 30.320312 L 40.664062 26.195312 L 38.394531 23.925781 C 39.351562 22.9375 39.34375 21.355469 38.367188 20.375 C 37.644531 19.652344 36.679688 19.253906 35.660156 19.253906 C 34.636719 19.253906 33.671875 19.652344 32.949219 20.375 L 30.722656 22.605469 C 29.230469 24.097656 29.230469 26.527344 30.722656 28.019531 Z M 31.984375 23.863281 L 34.210938 21.636719 C 34.597656 21.25 35.109375 21.035156 35.65625 21.035156 C 36.203125 21.035156 36.71875 21.25 37.105469 21.636719 C 37.398438 21.929688 37.398438 22.40625 37.105469 22.695312 L 35.875 23.925781 L 38.144531 26.195312 L 36.542969 27.800781 L 34.273438 25.53125 L 33.042969 26.761719 C 32.902344 26.902344 32.714844 26.980469 32.511719 26.980469 C 32.3125 26.980469 32.125 26.902344 31.984375 26.761719 C 31.183594 25.960938 31.183594 24.664062 31.984375 23.863281 Z M 31.984375 23.863281 "/>
</g>
</svg>
