<svg width="47" height="47" viewBox="0 0 47 47" fill="none" xmlns="http://www.w3.org/2000/svg">
<g filter="url(#filter0_d_582_4800)">
<path fill-rule="evenodd" clip-rule="evenodd" d="M23.5 36.5C32.8888 36.5 40.5 28.8888 40.5 19.5C40.5 10.1112 32.8888 2.5 23.5 2.5C14.1112 2.5 6.5 10.1112 6.5 19.5C6.5 28.8888 14.1112 36.5 23.5 36.5ZM23.5 39C34.2696 39 43 30.2696 43 19.5C43 8.73045 34.2696 0 23.5 0C12.7304 0 4 8.73045 4 19.5C4 30.2696 12.7304 39 23.5 39Z" fill="#FAF5EF"/>
<path fill-rule="evenodd" clip-rule="evenodd" d="M14.6275 21.8741C15.7761 20.7254 17.334 20.0801 18.9585 20.0801H28.7085C30.3329 20.0801 31.8909 20.7254 33.0395 21.8741C34.1882 23.0227 34.8335 24.5806 34.8335 26.2051V28.6426C34.8335 29.3329 34.2739 29.8926 33.5835 29.8926C32.8931 29.8926 32.3335 29.3329 32.3335 28.6426V26.2051C32.3335 25.2437 31.9516 24.3216 31.2718 23.6418C30.5919 22.962 29.6699 22.5801 28.7085 22.5801H18.9585C17.9971 22.5801 17.0751 22.962 16.3952 23.6418C15.7154 24.3216 15.3335 25.2437 15.3335 26.2051V28.6426C15.3335 29.3329 14.7739 29.8926 14.0835 29.8926C13.3931 29.8926 12.8335 29.3329 12.8335 28.6426V26.2051C12.8335 24.5806 13.4788 23.0227 14.6275 21.8741Z" fill="#FAF5EF"/>
<path fill-rule="evenodd" clip-rule="evenodd" d="M23.8335 7.95508C21.8315 7.95508 20.2085 9.57805 20.2085 11.5801C20.2085 13.5821 21.8315 15.2051 23.8335 15.2051C25.8355 15.2051 27.4585 13.5821 27.4585 11.5801C27.4585 9.57805 25.8355 7.95508 23.8335 7.95508ZM17.7085 11.5801C17.7085 8.19733 20.4508 5.45508 23.8335 5.45508C27.2162 5.45508 29.9585 8.19733 29.9585 11.5801C29.9585 14.9628 27.2162 17.7051 23.8335 17.7051C20.4508 17.7051 17.7085 14.9628 17.7085 11.5801Z" fill="#FAF5EF"/>
</g>
<defs>
<filter id="filter0_d_582_4800" x="0" y="0" width="47" height="47" filterUnits="userSpaceOnUse" color-interpolation-filters="sRGB">
<feFlood flood-opacity="0" result="BackgroundImageFix"/>
<feColorMatrix in="SourceAlpha" type="matrix" values="0 0 0 0 0 0 0 0 0 0 0 0 0 0 0 0 0 0 127 0" result="hardAlpha"/>
<feOffset dy="4"/>
<feGaussianBlur stdDeviation="2"/>
<feComposite in2="hardAlpha" operator="out"/>
<feColorMatrix type="matrix" values="0 0 0 0 0 0 0 0 0 0 0 0 0 0 0 0 0 0 0.25 0"/>
<feBlend mode="normal" in2="BackgroundImageFix" result="effect1_dropShadow_582_4800"/>
<feBlend mode="normal" in="SourceGraphic" in2="effect1_dropShadow_582_4800" result="shape"/>
</filter>
</defs>
</svg>
