<svg width="219" height="42" viewBox="0 0 219 42" fill="none" xmlns="http://www.w3.org/2000/svg">
<path d="M209.85 1.41602L217.85 8.41602M209.85 8.41602L217.85 15.416M209.85 15.416L217.85 22.416M207.85 22.416L215.85 29.416M201.85 27.416L209.85 34.416M193.35 29.916L201.35 36.916M185.35 29.916L193.35 36.916M177.35 30.416L185.35 37.416M169.35 30.416L177.35 37.416M161.35 30.416L169.35 37.416M153.35 30.416L161.35 37.416M145.35 30.416L153.35 37.416M137.35 31.416L145.35 38.416M129.35 31.416L137.35 38.416M121.35 31.416L129.35 38.416M113.35 31.416L121.35 38.416M105.35 31.416L113.35 38.416M97.3496 31.416L105.35 38.416M89.3496 31.916L97.3496 38.916M81.3496 31.916L89.3496 38.916M73.3496 31.916L81.3496 38.916M65.3496 31.916L73.3496 38.916M57.3496 32.416L65.3496 39.416M49.3496 32.416L57.3496 39.416M41.3496 32.416L49.3496 39.416M33.3496 32.416L41.3496 39.416M25.3496 32.916L33.3496 39.916M17.3496 32.916L25.3496 39.916M9.34961 32.916L17.3496 39.916M1.34961 32.916L9.34961 39.916" stroke="#3E389F" stroke-width="3"/>
</svg>
