<svg width="29" height="29" viewBox="0 0 29 29" fill="none" xmlns="http://www.w3.org/2000/svg">
<g clip-path="url(#clip0_582_4747)">
<path d="M14.3999 1.20117L14.3999 27.6012" stroke="#3E389F" stroke-width="2" stroke-linecap="round" stroke-linejoin="round"/>
<path d="M20.4002 6.00195L11.4002 6.00195C10.2863 6.00195 9.218 6.44445 8.43035 7.2321C7.64269 8.01976 7.2002 9.08804 7.2002 10.202C7.2002 11.3159 7.64269 12.3841 8.43035 13.1718C9.218 13.9595 10.2863 14.402 11.4002 14.402L17.4002 14.402C18.5141 14.402 19.5824 14.8445 20.37 15.6321C21.1577 16.4198 21.6002 17.488 21.6002 18.602C21.6002 19.7159 21.1577 20.7841 20.37 21.5718C19.5824 22.3595 18.5141 22.802 17.4002 22.802L7.2002 22.802" stroke="#3E389F" stroke-width="2" stroke-linecap="round" stroke-linejoin="round"/>
</g>
<rect x="1.5" y="1.50195" width="25.8" height="25.8" stroke="#FAF5EF" stroke-width="3"/>
<defs>
<clipPath id="clip0_582_4747">
<rect y="0.00195312" width="28.8" height="28.8" fill="white"/>
</clipPath>
</defs>
</svg>
