<svg width="19" height="30" viewBox="0 0 19 30" fill="none" xmlns="http://www.w3.org/2000/svg">
<path d="M9.40039 1.95703L9.40039 28.357" stroke="#3E389F" stroke-width="3" stroke-linecap="round" stroke-linejoin="round"/>
<path d="M15.4002 6.75781L6.4002 6.75781C5.28629 6.75781 4.218 7.20031 3.43035 7.98796C2.64269 8.77562 2.2002 9.8439 2.2002 10.9578C2.2002 12.0717 2.64269 13.14 3.43035 13.9277C4.218 14.7153 5.28629 15.1578 6.4002 15.1578L12.4002 15.1578C13.5141 15.1578 14.5824 15.6003 15.37 16.388C16.1577 17.1756 16.6002 18.2439 16.6002 19.3578C16.6002 20.4717 16.1577 21.54 15.37 22.3277C14.5824 23.1153 13.5141 23.5578 12.4002 23.5578L2.2002 23.5578" stroke="#3E389F" stroke-width="3" stroke-linecap="round" stroke-linejoin="round"/>
</svg>
