<svg width="25" height="25" viewBox="0 0 25 25" fill="none" xmlns="http://www.w3.org/2000/svg">
<g clip-path="url(#clip0_1977_121)">
<path d="M20.8303 4.72781C19.2767 4.00093 17.6156 3.47267 15.8789 3.17188C15.6656 3.55749 15.4164 4.07614 15.2446 4.48873C13.3985 4.21109 11.5693 4.21109 9.75716 4.48873C9.58539 4.07614 9.33055 3.55749 9.11536 3.17188C7.37681 3.47267 5.71376 4.00287 4.16019 4.73166C1.02664 9.46686 0.177189 14.0845 0.601917 18.6365C2.68025 20.1885 4.69441 21.1313 6.67457 21.7483C7.16349 21.0754 7.59953 20.3601 7.97518 19.6063C7.25975 19.3344 6.57453 18.999 5.92707 18.6095C6.09884 18.4822 6.26686 18.3492 6.42918 18.2123C10.3782 20.0594 14.6689 20.0594 18.5707 18.2123C18.735 18.3492 18.903 18.4822 19.0728 18.6095C18.4235 19.0009 17.7364 19.3363 17.021 19.6082C17.3966 20.3601 17.8308 21.0774 18.3216 21.7502C20.3036 21.1333 22.3197 20.1905 24.398 18.6365C24.8964 13.3595 23.5467 8.78434 20.8303 4.72781ZM8.51318 15.837C7.32772 15.837 6.35555 14.7303 6.35555 13.3826C6.35555 12.035 7.30696 10.9264 8.51318 10.9264C9.71942 10.9264 10.6916 12.033 10.6708 13.3826C10.6727 14.7303 9.71942 15.837 8.51318 15.837ZM16.4867 15.837C15.3013 15.837 14.3291 14.7303 14.3291 13.3826C14.3291 12.035 15.2805 10.9264 16.4867 10.9264C17.693 10.9264 18.6651 12.033 18.6444 13.3826C18.6444 14.7303 17.693 15.837 16.4867 15.837Z" fill="#5865F2"/>
</g>
<defs>
<clipPath id="clip0_1977_121">
<rect width="24" height="24" fill="white" transform="translate(0.5 0.5)"/>
</clipPath>
</defs>
</svg>
