<svg width="219" height="48" viewBox="0 0 219 48" fill="none" xmlns="http://www.w3.org/2000/svg">
<path d="M32.5432 6.64728C33.2466 3.39771 31.5105 2.03351 30.0887 1.06783C28.6669 0.102161 26.7063 0.0561767 25.2247 0.945209C24.0124 1.68096 23.1444 2.9532 21.8722 3.55099C19.1185 4.86922 15.317 2.7386 13.0571 4.8079C12.2789 5.52833 11.8898 6.58597 11.0966 7.24508C9.73464 8.37936 7.7142 7.98083 6.02302 8.47133C5.02029 8.76256 4.49647 9.39102 3.68829 9.97349C2.99985 10.4793 2.32637 10.7092 1.57806 11.2151C-2.13356 13.6982 3.5087 18.22 5.61893 19.2777C6.95093 19.9521 8.37272 20.4426 9.55505 21.347C11.1864 22.5886 12.2639 24.5506 14.0748 25.5009C15.8109 26.4053 17.9511 26.2366 19.7021 27.1104C20.9294 27.7235 21.9022 28.8271 23.1593 29.3942C24.7607 30.1147 27.0805 30.2066 28.3825 31.4022" fill="#FF931E"/>
<path d="M23.4309 10.7698C22.7126 11.7814 21.1561 11.6741 19.5098 11.5515C17.7887 11.4289 15.8281 11.2909 14.5859 12.3792C14.1669 12.7471 13.9573 13.3143 13.7328 13.9121C13.4485 14.6478 13.1641 15.4142 12.4757 15.8741C11.9219 16.2266 11.1886 16.2113 10.4702 16.1959C9.30284 16.1653 8.56949 16.1959 8.35997 17.1156C8.16541 17.9893 8.22527 18.6791 8.56949 19.2156C9.27291 20.3192 11.1287 20.6871 12.76 21.009C14.0172 21.2542 15.1995 21.4842 15.9029 22.036C16.4268 22.4498 16.8757 22.971 17.3098 23.4615C17.7288 23.9367 18.1329 24.3965 18.6118 24.7797C20.0186 25.8987 21.8745 26.3279 23.6704 26.757H23.6854C26.0051 27.2935 27.9657 30.3285 28.0555 30.4665L28.0705 30.4818C28.3848 31.0796 28.7589 31.6161 29.2528 31.6621C29.4474 31.6774 29.6719 31.6161 29.9113 31.5394C29.9712 31.5241 30.031 31.5088 30.0909 31.4781C31.3331 31.1256 32.725 31.3402 33.9223 32.0912C35.1196 32.8423 35.9577 34.0073 36.1971 35.2948C36.3468 36.1225 36.3168 36.9962 36.2719 37.8546C36.2121 39.2801 36.1373 40.629 37.0053 41.518C37.3495 41.8706 37.9332 42.0852 38.2774 41.8246C38.5767 41.5947 38.6516 41.1348 38.7114 40.629C38.7264 40.537 38.7414 40.4451 38.7563 40.3378C38.8312 39.8933 39.0557 39.3108 39.4897 38.9889C39.7291 38.8203 40.0135 38.7437 40.2979 38.805C40.672 38.8816 41.0162 39.1575 41.2557 39.6174C41.7945 40.6597 41.7047 41.8553 41.57 42.9896L41.555 43.0815C41.4353 44.0779 41.3006 45.1202 41.6448 45.9939C41.8394 46.4844 42.2584 46.9289 42.7374 47.1282C42.9768 47.2201 43.321 47.3121 43.6802 47.1435C44.5034 46.7756 44.6381 45.5494 44.4884 44.5377C44.3537 43.6793 44.1292 42.8209 43.8898 41.9779C43.5306 40.675 43.1564 39.3261 43.1863 37.9313C43.2013 36.7357 43.4857 35.5861 43.77 34.4824C43.9795 33.6394 44.204 32.7657 44.2938 31.9073C44.5782 29.2249 43.5455 26.4198 41.6299 24.5804C41.1659 24.1359 40.6271 23.7221 40.1183 23.3389C39.0108 22.4958 37.8733 21.6221 37.2448 20.3192C36.691 19.1849 36.6162 17.9434 36.5413 16.7171C36.4815 15.6748 36.4216 14.6785 36.0774 13.7741C35.6883 12.7318 34.925 11.7968 34.1916 10.9077C33.3236 9.85009 32.4256 8.74647 32.0814 7.39759C28.3399 7.16767 25.8854 7.29029 23.4309 10.7698Z" fill="#FCECD4"/>
<path d="M32.2127 26.1555C32.1229 21.1279 27.4085 17.1272 21.6914 17.2345C21.7662 22.2775 26.4806 26.2628 32.2127 26.1555Z" fill="#4DC359"/>
<path d="M33.8703 20.47C35.6363 18.1861 38.4799 17.7416 38.6445 17.8642C38.8091 17.9868 38.9588 20.7306 37.1928 23.0145C35.4268 25.2984 32.4186 26.264 32.2689 26.1414C32.1192 26.0188 32.1043 22.7539 33.8703 20.47Z" fill="#4DC359"/>
<path d="M16.9315 20.1048C18.4772 20.1048 19.7302 18.8215 19.7302 17.2384C19.7302 15.6554 18.4772 14.3721 16.9315 14.3721C15.3858 14.3721 14.1328 15.6554 14.1328 17.2384C14.1328 18.8215 15.3858 20.1048 16.9315 20.1048Z" fill="#F34337"/>
<path d="M30.7167 17.3919C32.2623 17.3919 33.5153 16.1086 33.5153 14.5255C33.5153 12.9425 32.2623 11.6592 30.7167 11.6592C29.171 11.6592 27.918 12.9425 27.918 14.5255C27.918 16.1086 29.171 17.3919 30.7167 17.3919Z" fill="#F34337"/>
<path d="M41.3016 30.2013C41.5492 28.6387 40.5131 27.1663 38.9874 26.9127C37.4617 26.6591 36.0241 27.7203 35.7765 29.2829C35.5289 30.8455 36.565 32.3179 38.0907 32.5715C39.6164 32.8251 41.054 31.7639 41.3016 30.2013Z" fill="#F34337"/>
<path d="M3.97091 18.8305L4.12057 18.9532C4.13553 18.9685 4.16547 18.9838 4.1954 18.9991C4.67432 19.3364 5.1682 19.6429 5.51243 19.8115C5.90155 20.0108 6.30564 20.1947 6.69476 20.3633C7.65259 20.7925 8.55057 21.2064 9.32881 21.8042C9.97236 22.2947 10.5411 22.9232 11.0948 23.5363C11.918 24.4406 12.7561 25.3757 13.8785 25.9581C14.8214 26.4486 15.8541 26.6479 16.8568 26.8318C17.7847 27.0004 18.6677 27.169 19.4609 27.5676C19.9997 27.8282 20.4786 28.196 21.0025 28.5946C21.5861 29.0391 22.1998 29.5143 22.9181 29.8208C23.5467 30.0967 24.2651 30.296 24.9685 30.4646C26.076 30.7558 27.2134 31.0471 27.9019 31.6755C28.291 32.166 28.755 32.4419 29.2488 32.4726C29.623 32.5032 29.9523 32.3959 30.2366 32.304C30.2965 32.2887 30.3414 32.2733 30.4012 32.258C31.389 31.9668 32.5115 32.166 33.4992 32.7791C34.487 33.3923 35.1455 34.3426 35.3401 35.3696C35.4748 36.09 35.4299 36.9177 35.4 37.6995C35.3251 39.2476 35.2503 40.8571 36.3877 42.0373C36.9864 42.6505 38.034 43.003 38.7973 42.4359C39.4109 41.9914 39.5007 41.2709 39.5905 40.6272C39.6055 40.5352 39.6204 40.4432 39.6204 40.3666C39.6653 40.06 39.83 39.7381 39.9946 39.6155C40.0545 39.5848 40.0844 39.5695 40.1143 39.5848C40.1891 39.6002 40.3089 39.6921 40.4286 39.9374C40.8477 40.7345 40.7579 41.7768 40.6381 42.7578L40.6232 42.8497C40.4885 43.9534 40.3538 45.103 40.7728 46.2066C41.0572 46.927 41.6558 47.5555 42.3443 47.8314C42.6286 47.954 42.913 48 43.1824 48C43.4518 48 43.7212 47.9387 43.9756 47.8314C45.2477 47.2489 45.4872 45.6088 45.2926 44.2753C45.1579 43.3709 44.9185 42.4819 44.679 41.6235C44.3198 40.3359 43.9906 39.1097 44.0055 37.8528C44.0205 36.7798 44.2749 35.7375 44.5593 34.6185C44.7838 33.7448 45.0083 32.8558 45.0981 31.9208C45.3974 28.9778 44.2899 25.8968 42.1797 23.8582C41.6858 23.383 41.147 22.9538 40.6082 22.5553C39.9796 22.0801 39.3959 21.6203 38.9021 21.0838C39.2014 20.2101 39.381 19.2751 39.381 18.3094V17.3131C39.366 17.2211 39.3211 17.1291 39.2463 17.0678C39.1714 17.0065 39.0816 16.9758 38.9769 16.9912L38.7973 17.0065C38.3483 17.0678 37.8993 17.1598 37.4653 17.2977C37.4503 17.0831 37.4354 16.8685 37.4204 16.6693C37.3605 15.6116 37.2857 14.508 36.9115 13.4657C36.4775 12.2701 35.6693 11.2891 34.8911 10.3387C33.9782 9.21979 33.1101 8.16215 32.9305 6.87458V6.81327C33.6639 3.13452 31.4489 1.64769 30.2516 0.835293C28.6652 -0.222349 26.51 -0.283661 24.8787 0.69734C24.2801 1.04989 23.7862 1.52506 23.2923 1.96958C22.7385 2.4754 22.2147 2.96591 21.6011 3.25714C20.4936 3.7783 19.1167 3.68633 17.7698 3.57903C15.9888 3.44108 14.133 3.30312 12.7411 4.59069C12.337 4.97389 12.0377 5.41841 11.7384 5.8476C11.454 6.27679 11.1846 6.69065 10.8254 6.98188C10.0921 7.59501 9.08935 7.68698 8.01178 7.77894C7.3383 7.84026 6.64986 7.90157 5.99134 8.10083C5.1682 8.34609 4.64439 8.75994 4.09064 9.21979C3.91104 9.37307 3.71648 9.52635 3.52192 9.66431C3.19266 9.90956 2.84844 10.0782 2.48925 10.2774C2.15999 10.446 1.81577 10.63 1.45658 10.8752C0.438879 11.565 -0.0550062 12.454 0.00485865 13.527C0.0497573 14.2934 0.528676 16.3167 3.97091 18.8305ZM17.6949 4.66733C19.1616 4.77463 20.6882 4.89725 22.0501 4.23814C22.8134 3.87027 23.412 3.31845 24.0107 2.76664C24.4746 2.33745 24.9236 1.92359 25.4175 1.63236C26.7046 0.86595 28.4107 0.896606 29.6679 1.73965C31.0747 2.69 32.4067 3.82428 31.9128 6.49138C28.306 6.26146 25.5372 6.39941 22.8583 10.2008C22.4392 10.7986 21.197 10.7066 19.7603 10.6147C17.8745 10.4767 15.7493 10.3234 14.2377 11.6723C13.654 12.1781 13.3996 12.8832 13.1452 13.573C12.9057 14.2014 12.6812 14.7992 12.2472 15.0905C11.9329 15.2897 11.3343 15.2897 10.7656 15.2744C10.152 15.2591 9.40364 15.2438 8.80499 15.535C8.65533 14.6613 8.20634 13.7876 7.45803 13.0212C7.03898 12.592 5.63216 11.2584 3.62668 10.9059C3.82124 10.7833 3.98587 10.676 4.1505 10.5687C4.38996 10.4001 4.59949 10.2314 4.77908 10.0782C5.258 9.67963 5.67705 9.34241 6.29067 9.15848C6.85939 8.98987 7.48797 8.92855 8.11655 8.88257C9.29888 8.77527 10.5261 8.66798 11.4989 7.84026C11.9778 7.44172 12.3071 6.95122 12.6214 6.47605C12.8908 6.07752 13.1302 5.70964 13.4445 5.41841C14.5071 4.43741 16.0636 4.5447 17.6949 4.66733ZM25.1032 20.6699C25.0583 20.8232 25.1331 20.9611 25.2678 21.0378C25.4175 21.0991 25.5522 21.1757 25.7019 21.2371L25.7467 21.2524C26.091 21.4057 26.4202 21.5589 26.7495 21.7276C27.9618 22.3254 29.0693 23.1531 30.2366 24.3487C30.506 24.6246 30.7754 24.9158 31.0298 25.1917C31.0747 25.253 31.1346 25.299 31.1795 25.3603C28.8747 25.2224 26.7046 24.364 25.0433 22.9691C23.3671 21.5589 22.3644 19.7349 22.1249 17.7269C22.1249 17.6809 22.1399 17.6196 22.1698 17.589C22.1998 17.5583 22.2447 17.543 22.2896 17.543H22.3045C24.6692 17.6503 26.9141 18.5086 28.6203 19.9495C30.057 21.1604 31.0298 22.7545 31.4189 24.456C30.0421 22.2487 27.8869 20.8079 25.4474 20.4706C25.2678 20.4247 25.1481 20.5166 25.1032 20.6699ZM33.3646 25.1457C33.5741 24.8698 33.7836 24.5939 33.9931 24.318L33.9333 24.272L33.9931 24.318C34.6965 23.3983 35.4149 22.4327 36.253 21.5743C36.3578 21.467 36.3728 21.2984 36.283 21.1757C36.2081 21.0531 36.0435 21.0071 35.9088 21.0531C34.7863 21.5283 33.7088 22.6166 32.9904 23.9961C33.3346 21.4823 34.951 19.3977 37.2857 18.478C37.6299 18.34 38.0041 18.2327 38.3633 18.1408C38.498 21.4057 36.4027 24.3027 33.3646 25.1457ZM32.0924 23.0151C31.5387 21.5283 30.5659 20.1794 29.2788 19.0911C27.1835 17.3131 24.4148 16.3627 21.5113 16.424C21.3766 16.424 21.227 16.4853 21.1372 16.5926C21.0324 16.6999 20.9875 16.8379 20.9875 16.9912C21.0324 19.5969 22.2297 22.0341 24.3549 23.8275C26.3903 25.5443 29.0543 26.4946 31.8829 26.4946C31.9577 26.4946 32.3169 26.464 32.3319 26.464C35.0108 26.1421 37.2408 24.4866 38.4381 22.1874C38.917 22.6472 39.4558 23.0611 39.9796 23.4596C40.4885 23.8582 41.0123 24.2567 41.4613 24.6859C43.3321 26.4793 44.3198 29.223 44.0504 31.8288C43.9606 32.6719 43.7511 33.5302 43.5266 34.3733C43.2423 35.4922 42.9579 36.6572 42.9429 37.8681C42.928 39.2783 43.3021 40.6425 43.6613 41.9607C43.8858 42.7884 44.1253 43.6468 44.245 44.4899C44.3797 45.4249 44.2749 46.5592 43.5565 46.881C43.2572 47.019 42.9579 46.9424 42.7633 46.8657C42.3293 46.6818 41.9701 46.2986 41.7905 45.8541C41.4613 45.011 41.581 44.0147 41.7007 43.0337L41.7157 42.9417C41.8504 41.7768 41.9402 40.5658 41.3864 39.4776C41.1171 38.9564 40.7429 38.6345 40.3089 38.5579C39.9796 38.4965 39.6504 38.5732 39.381 38.7725C38.9021 39.125 38.6476 39.7535 38.5728 40.244C38.5578 40.3359 38.5429 40.4279 38.5279 40.5352C38.468 40.995 38.4082 41.4242 38.1687 41.6082C37.9143 41.7921 37.4204 41.6082 37.151 41.3169C36.3428 40.4892 36.4177 39.1863 36.4775 37.8068C36.5224 36.9484 36.5673 36.0594 36.4027 35.2163C36.1483 33.8828 35.2952 32.6719 34.068 31.8901C32.8407 31.1084 31.389 30.8785 30.1169 31.2463C30.057 31.2617 30.0121 31.277 29.9523 31.2923L29.9223 31.3076C29.7128 31.369 29.5182 31.4303 29.3536 31.4149C28.9346 31.3843 28.6203 30.8785 28.3209 30.3266L28.306 30.296C28.2162 30.158 26.2406 27.0771 23.846 26.5099C22.095 26.0961 20.2691 25.6822 18.9072 24.5786C18.4582 24.2107 18.0541 23.7662 17.65 23.291C17.216 22.8005 16.767 22.2794 16.2282 21.8502C15.5099 21.2677 14.3126 21.0378 13.0404 20.7925C11.454 20.486 9.67303 20.1334 9.01452 19.0911C8.70023 18.6006 8.64036 17.9722 8.83493 17.1444C8.99955 16.4547 9.43357 16.3474 10.7506 16.378C11.4839 16.3934 12.2472 16.4087 12.8309 16.0255C13.5792 15.535 13.8636 14.7379 14.1479 13.9715C14.3575 13.389 14.567 12.8526 14.9411 12.5153C16.1085 11.473 18.0092 11.611 19.6854 11.7336C21.3616 11.8562 22.963 11.9635 23.7263 10.8752C26.1059 7.48771 28.4556 7.38041 32.0026 7.62566C32.3618 8.94388 33.2448 10.0169 34.0829 11.0592C34.8013 11.9329 35.5496 12.8526 35.9088 13.8642C36.2381 14.7533 36.2979 15.7189 36.3578 16.7612C36.3728 17.0678 36.4027 17.3897 36.4177 17.7116C34.3074 18.7079 32.6761 20.6852 32.0924 23.0151ZM12.8159 21.8502C13.9534 22.0801 15.0309 22.2794 15.5548 22.7086C16.0187 23.0764 16.4078 23.5363 16.8269 24.0114C17.2459 24.5019 17.6949 25.0078 18.2187 25.437C19.7752 26.6785 21.7208 27.1384 23.6066 27.5676C24.729 27.8282 25.8216 28.8858 26.5849 29.7902C26.1209 29.6369 25.642 29.5143 25.2379 29.407L25.1631 29.3916C24.5046 29.223 23.876 29.0544 23.3522 28.8245C22.7535 28.5639 22.2147 28.15 21.646 27.7209C21.1222 27.3223 20.5684 26.8931 19.9399 26.5866C19.012 26.1267 18.0242 25.9428 17.0514 25.7589C16.0935 25.5749 15.1806 25.4216 14.3724 24.9925C13.4146 24.4866 12.6663 23.6742 11.8731 22.7852C11.4091 22.264 10.9302 21.7276 10.3764 21.2677C11.1697 21.5283 12.0078 21.6969 12.8159 21.8502ZM7.68253 18.5546C7.74239 18.9685 7.89205 19.3364 8.08661 19.6583C8.13151 19.7196 8.17641 19.7962 8.22131 19.8575C7.86212 19.6736 7.48797 19.505 7.12878 19.3364C6.94918 19.2597 6.76959 19.1678 6.58999 19.0911C7.00905 18.9685 7.3832 18.7846 7.68253 18.5546ZM1.77087 12.0095C3.71648 11.565 5.63215 12.684 6.67979 13.7722C7.09884 14.2168 7.62266 14.9219 7.74239 15.7802C7.84716 16.5313 7.57776 17.2671 7.08388 17.6503C6.54509 18.0641 5.3927 18.432 4.71922 18.0181C4.1056 17.5736 3.50695 17.0831 2.9981 16.5926C2.15999 15.7802 1.14229 14.5693 1.08243 13.4657C1.05249 12.8985 1.27699 12.4234 1.77087 12.0095Z" fill="#3E389F"/>
<path d="M38.5425 33.2135C40.3983 33.2135 41.9249 31.6653 41.9249 29.7493C41.9249 27.8333 40.4133 26.2852 38.5425 26.2852C36.6717 26.2852 35.1602 27.8333 35.1602 29.7493C35.1602 31.6653 36.6717 33.2135 38.5425 33.2135ZM36.2377 29.7493C36.2377 28.4464 37.2704 27.3888 38.5425 27.3888C39.8146 27.3888 40.8473 28.4464 40.8473 29.7493C40.8473 31.0522 39.8146 32.1099 38.5425 32.1099C37.2704 32.1099 36.2377 31.0522 36.2377 29.7493Z" fill="#3E389F"/>
<path d="M30.7183 11.0586C28.8625 11.0586 27.3359 12.6067 27.3359 14.5228C27.3359 16.4388 28.8475 17.9869 30.7183 17.9869C32.5891 17.9869 34.1007 16.4388 34.1007 14.5228C34.1007 12.6067 32.5741 11.0586 30.7183 11.0586ZM33.0231 14.5228C33.0231 15.8256 31.9904 16.8833 30.7183 16.8833C29.4462 16.8833 28.4135 15.8256 28.4135 14.5228C28.4135 13.2199 29.4462 12.1622 30.7183 12.1622C31.9904 12.1622 33.0231 13.2199 33.0231 14.5228Z" fill="#3E389F"/>
<path d="M16.9292 13.8633C15.0734 13.8633 13.5469 15.4114 13.5469 17.3274C13.5469 19.2435 15.0585 20.7916 16.9292 20.7916C18.8 20.7916 20.3116 19.2435 20.3116 17.3274C20.3116 15.4114 18.8 13.8633 16.9292 13.8633ZM19.234 17.3274C19.234 18.6303 18.2014 19.688 16.9292 19.688C15.6571 19.688 14.6244 18.6303 14.6244 17.3274C14.6244 16.0245 15.6571 14.9669 16.9292 14.9669C18.2014 14.9669 19.234 16.0245 19.234 17.3274Z" fill="#3E389F"/>
<path d="M162.433 15.0113C162.478 14.8887 162.493 14.7814 162.493 14.6894C162.493 14.5515 162.448 14.4288 162.343 14.3369C162.238 14.2296 162.134 14.1836 161.999 14.1836H161.385C161.206 14.1836 161.071 14.2296 160.981 14.3215C160.847 14.4595 160.817 14.5361 160.802 14.5668L156.656 28.9446L152.241 14.7507C152.211 14.6281 152.151 14.5055 152.031 14.3829C151.912 14.2602 151.747 14.1989 151.508 14.1989H150.864C150.625 14.1989 150.46 14.2602 150.355 14.3829C150.236 14.5208 150.161 14.6588 150.131 14.7661L145.716 28.9599L141.57 14.5975C141.555 14.5515 141.525 14.4748 141.39 14.3522C141.301 14.2602 141.166 14.2143 140.986 14.2143H140.373C140.238 14.2143 140.118 14.2602 140.029 14.3675C139.939 14.4748 139.879 14.5821 139.879 14.7201C139.879 14.812 139.894 14.9193 139.939 15.042L144.533 30.5387C144.623 30.784 144.743 30.9832 144.878 31.1059C144.997 31.2132 145.192 31.2745 145.431 31.2745H145.985C146.255 31.2745 146.464 31.2132 146.614 31.1059C146.763 30.9986 146.868 30.8146 146.943 30.5541L151.193 16.9427L155.444 30.5541C155.519 30.8146 155.638 30.9986 155.788 31.1059C155.953 31.2132 156.147 31.2745 156.402 31.2745H156.955C157.225 31.2745 157.419 31.2132 157.539 31.1059C157.674 30.9986 157.778 30.7993 157.853 30.5387L162.433 15.0113Z" fill="#3E389F"/>
<path d="M177.321 19.5344C177.321 18.8906 177.216 18.2162 177.037 17.5417C176.842 16.8826 176.528 16.2542 176.079 15.7177C175.63 15.1659 174.987 14.7214 174.178 14.3688C173.37 14.0163 172.308 13.8477 171.065 13.8477C170.003 13.8477 169.09 14.0009 168.356 14.3075C167.623 14.6141 167.01 14.9819 166.546 15.4265C166.082 15.871 165.737 16.3155 165.513 16.7753C165.303 17.2198 165.184 17.5877 165.184 17.879C165.184 18.0476 165.229 18.1855 165.318 18.3081C165.393 18.4154 165.543 18.4614 165.752 18.4614H166.276C166.516 18.4614 166.665 18.3388 166.755 18.0629C167.024 17.2965 167.533 16.668 168.252 16.1929C168.97 15.7177 169.913 15.4878 171.065 15.4878C172.637 15.4878 173.804 15.8403 174.538 16.5454C175.271 17.2505 175.645 18.2315 175.645 19.4424V20.7453L170.362 21.4964C168.476 21.757 166.935 22.3394 165.767 23.2438C164.615 24.1175 164.031 25.2978 164.031 26.754C164.031 27.6583 164.301 28.4707 164.809 29.1758C165.333 29.8962 166.037 30.4787 166.89 30.9232C167.743 31.3524 168.701 31.567 169.703 31.567C170.811 31.567 171.739 31.429 172.472 31.1531C173.206 30.8772 173.804 30.5553 174.268 30.1568C174.732 29.7736 175.091 29.3751 175.346 28.9919L175.615 28.5627V30.6473C175.615 30.8312 175.66 30.9692 175.765 31.0765C175.87 31.1838 176.004 31.2298 176.184 31.2298H176.738C176.917 31.2298 177.052 31.1838 177.157 31.0765C177.261 30.9692 177.306 30.8312 177.306 30.6473L177.321 19.5344ZM175.645 23.581C175.645 25.0065 175.391 26.2021 174.897 27.1372C174.403 28.0875 173.714 28.7926 172.861 29.2524C172.023 29.7123 171.08 29.9422 170.048 29.9422C169.359 29.9422 168.686 29.8196 168.027 29.5743C167.369 29.3291 166.815 28.9612 166.381 28.486C165.947 27.9955 165.722 27.3518 165.722 26.5853C165.722 25.6197 166.201 24.8073 167.159 24.1788C168.087 23.5657 169.464 23.1365 171.26 22.8913L175.63 22.2628V23.581H175.645Z" fill="#3E389F"/>
<path d="M183.265 8.42134C183.265 8.2374 183.221 8.09945 183.116 7.99215C183.011 7.88485 182.876 7.83887 182.697 7.83887H182.143C181.963 7.83887 181.829 7.88485 181.724 7.99215C181.619 8.09945 181.574 8.2374 181.574 8.42134V30.6472C181.574 30.8311 181.619 30.969 181.724 31.0763C181.829 31.1836 181.963 31.2296 182.143 31.2296H182.697C182.876 31.2296 183.011 31.1836 183.116 31.0763C183.221 30.969 183.265 30.8311 183.265 30.6472V8.42134Z" fill="#3E389F"/>
<path d="M189.285 8.42134C189.285 8.2374 189.24 8.09945 189.135 7.99215C189.03 7.88485 188.896 7.83887 188.716 7.83887H188.162C187.983 7.83887 187.848 7.88485 187.743 7.99215C187.639 8.09945 187.594 8.2374 187.594 8.42134V30.6472C187.594 30.8311 187.639 30.969 187.743 31.0763C187.848 31.1836 187.983 31.2296 188.162 31.2296H188.716C188.896 31.2296 189.03 31.1836 189.135 31.0763C189.24 30.969 189.285 30.8311 189.285 30.6472V8.42134Z" fill="#3E389F"/>
<path d="M206.935 22.3101C206.935 20.5627 206.65 19.0298 206.082 17.7729C205.513 16.516 204.705 15.535 203.672 14.8759C202.639 14.2015 201.367 13.8643 199.871 13.8643C198.494 13.8643 197.282 14.1861 196.279 14.8146C195.276 15.4431 194.483 16.3321 193.914 17.451C193.345 18.5853 192.986 19.9189 192.881 21.3904C192.867 21.7123 192.852 22.1568 192.852 22.7086C192.852 23.2604 192.867 23.7049 192.881 24.0268C193.046 26.2647 193.75 28.1041 194.962 29.4836C196.159 30.8478 197.82 31.5529 199.871 31.5529C200.873 31.5529 201.786 31.415 202.595 31.1238C203.403 30.8325 204.091 30.48 204.66 30.0508C205.229 29.6216 205.663 29.1771 205.962 28.7326C206.261 28.3034 206.426 27.9355 206.441 27.6596C206.456 27.5063 206.411 27.399 206.321 27.307C206.201 27.2151 206.067 27.1538 205.917 27.1538H205.393C205.124 27.1538 205.004 27.1844 204.944 27.2151C204.899 27.2457 204.78 27.3377 204.54 27.6902C204.42 27.8742 204.181 28.1501 203.807 28.5026C203.433 28.8552 202.909 29.1924 202.28 29.4836C201.652 29.7749 200.844 29.9282 199.886 29.9282C198.808 29.9282 197.88 29.6369 197.087 29.0391C196.309 28.4567 195.695 27.6902 195.276 26.7706C194.857 25.8509 194.618 24.8699 194.573 23.8582V23.3677H206.321C206.501 23.3677 206.65 23.3217 206.755 23.2144C206.86 23.1071 206.92 22.9692 206.92 22.8006V22.3101H206.935ZM205.244 21.8349H194.573V21.5437C194.573 20.4094 194.782 19.3824 195.186 18.478C195.605 17.5737 196.204 16.8379 196.997 16.3014C197.79 15.7649 198.763 15.489 199.871 15.489C200.978 15.489 201.951 15.7649 202.759 16.3014C203.567 16.8379 204.181 17.5737 204.6 18.478C205.019 19.3824 205.229 20.4247 205.229 21.5437V21.8349H205.244Z" fill="#3E389F"/>
<path d="M218.316 30.1873C218.316 30.0034 218.271 29.8654 218.166 29.7581C218.061 29.6508 217.927 29.6048 217.747 29.6048H215.981C214.948 29.6048 214.215 29.237 213.811 28.5319C213.422 27.8421 213.227 26.8918 213.227 25.6808V15.8095H217.418C217.597 15.8095 217.732 15.7635 217.837 15.6562C217.942 15.5489 217.987 15.411 217.987 15.227V14.7519C217.987 14.5679 217.942 14.43 217.837 14.3227C217.732 14.2154 217.597 14.1694 217.418 14.1694H213.227V8.42134C213.227 8.2374 213.182 8.09945 213.078 7.99215C212.973 7.88485 212.838 7.83887 212.659 7.83887H212.105C211.925 7.83887 211.791 7.88485 211.686 7.99215C211.581 8.09945 211.536 8.2374 211.536 8.42134V14.1847H208.842C208.663 14.1847 208.528 14.2307 208.423 14.338C208.318 14.4453 208.273 14.5833 208.273 14.7672V15.2424C208.273 15.4263 208.318 15.5643 208.423 15.6716C208.528 15.7788 208.663 15.8248 208.842 15.8248H211.536V25.8188C211.536 26.8458 211.671 27.7808 211.925 28.6085C212.18 29.4209 212.614 30.0647 213.242 30.5399C213.871 31.015 214.739 31.2449 215.831 31.2449H217.747C217.927 31.2449 218.061 31.199 218.166 31.0917C218.271 30.9844 218.316 30.8464 218.316 30.6625V30.1873Z" fill="#3E389F"/>
<path d="M71.2524 9.066C69.9503 8.51419 68.4088 8.23828 66.6428 8.23828H57.7229C57.4834 8.23828 57.3038 8.31492 57.1542 8.4682C57.0045 8.62148 56.9297 8.82075 56.9297 9.05067V28.64V28.6554V30.2495V30.2648C56.9297 30.8166 57.3787 31.2765 57.9175 31.2765C58.4562 31.2765 58.9052 30.8166 58.9052 30.2648V30.2495V30.2648C58.9052 30.8166 59.3542 31.2765 59.893 31.2765C60.4318 31.2765 60.8808 30.8166 60.8808 30.2648V30.2495V30.2648C60.8808 30.8166 61.3298 31.2765 61.8685 31.2765C62.4073 31.2765 62.8563 30.8166 62.8563 30.2648V30.2495V26.6627V23.1219H66.6577C68.4237 23.1219 69.9503 22.8613 71.2673 22.3402C72.5843 21.819 73.5871 21.0066 74.3354 19.9183C75.0687 18.83 75.4429 17.4505 75.4429 15.7644C75.4429 14.0783 75.0687 12.6681 74.3354 11.5492C73.6021 10.4302 72.5544 9.61781 71.2524 9.066ZM68.6782 17.895C68.1394 18.3702 67.406 18.6154 66.4931 18.6154H62.7665V12.7754H66.4931C67.5557 12.7754 68.319 13.0513 68.7829 13.6185C69.2469 14.1856 69.4863 14.8754 69.4863 15.7031C69.4863 16.6841 69.2169 17.4198 68.6782 17.895Z" fill="#3E389F"/>
<path d="M81.6825 7.13184H77.926C77.7015 7.13184 77.507 7.20848 77.3573 7.37709C77.2076 7.53037 77.1328 7.72963 77.1328 7.97488V10.8412C77.1328 10.8566 77.1328 10.8566 77.1328 10.8719V11.669V11.6843C77.1328 12.1901 77.5369 12.604 78.0308 12.604C78.5247 12.604 78.9288 12.1901 78.9288 11.6843V11.669V11.6843C78.9288 12.1901 79.3328 12.604 79.8267 12.604C80.3206 12.604 80.7247 12.1901 80.7247 11.6843V11.669V11.6843C80.7247 12.1901 81.1288 12.604 81.6227 12.604C82.1166 12.604 82.5206 12.1901 82.5206 11.6843V11.669V10.8719C82.5206 10.8566 82.5206 10.8566 82.5206 10.8412V7.97488C82.5206 7.74496 82.4458 7.5457 82.2812 7.37709C82.1016 7.22381 81.907 7.13184 81.6825 7.13184Z" fill="#3E389F"/>
<path d="M134.139 27.1522V20.1933C134.139 19.2276 133.989 18.3539 133.69 17.5568C133.39 16.7598 132.941 16.07 132.343 15.4875C131.744 14.905 130.951 14.4452 129.963 14.1233C128.99 13.8014 127.808 13.6328 126.416 13.6328C125.024 13.6328 123.977 13.8014 123.034 14.1233C122.106 14.4452 121.328 14.8591 120.744 15.3649C120.145 15.8707 119.711 16.3766 119.427 16.8824C118.963 17.6794 118.993 18.4918 118.993 18.9517C118.993 19.4115 119.367 19.7947 119.816 19.7947C120.265 19.7947 120.639 19.4115 120.639 18.9517C120.639 19.4269 121.013 19.7947 121.462 19.7947C121.911 19.7947 122.285 19.4115 122.285 18.9517C122.285 19.4269 122.66 19.7947 123.109 19.7947C123.558 19.7947 123.842 19.4115 123.932 18.9517C124.111 17.986 124.471 17.143 126.371 17.1889C127.224 17.2043 127.808 17.3882 128.122 17.8174C128.437 18.2313 128.601 18.8291 128.601 19.6108V20.0706L124.62 20.6991C122.585 21.021 120.939 21.6341 119.711 22.5385C118.484 23.4428 117.855 24.6691 117.855 26.2172C117.855 27.1676 118.125 28.0413 118.649 28.7923C119.172 29.5588 119.891 30.1566 120.804 30.6011C121.702 31.0456 122.734 31.2755 123.887 31.2755C124.71 31.2755 125.443 31.1682 126.072 30.9689C126.701 30.7544 127.239 30.4784 127.718 30.1412C128.182 29.7887 128.556 29.4055 128.841 28.9916V29.2062C128.841 29.2215 128.841 29.2369 128.841 29.2522V30.3711V30.3865C128.841 30.8923 129.23 31.2908 129.724 31.2908C130.218 31.2908 130.607 30.8923 130.607 30.3865V30.3711V30.3865C130.607 30.8923 130.996 31.2908 131.49 31.2908C131.984 31.2908 132.373 30.8923 132.373 30.3865V30.3711V30.3865C132.373 30.8923 132.762 31.2908 133.256 31.2908C133.75 31.2908 134.139 30.8923 134.139 30.3865V30.3711V27.1522ZM128.691 23.6881C128.691 24.5618 128.541 25.2822 128.257 25.8647C127.973 26.4471 127.584 26.861 127.075 27.1369C126.581 27.4128 126.012 27.5508 125.398 27.5508C124.979 27.5508 124.59 27.4741 124.246 27.3362C123.902 27.1982 123.632 26.999 123.423 26.7384C123.213 26.4778 123.109 26.1559 123.109 25.788C123.109 25.3129 123.333 24.8837 123.797 24.5311C124.246 24.1786 124.979 23.9027 125.982 23.7341L128.691 23.2436V23.6881Z" fill="#3E389F"/>
<path d="M81.5992 14.1035C81.1054 14.1035 80.7013 14.5174 80.7013 15.0232V15.0385V15.0232C80.7013 14.5174 80.2972 14.1035 79.8033 14.1035C79.3094 14.1035 78.9053 14.5174 78.9053 15.0232V15.0385V15.0232C78.9053 14.5174 78.5012 14.1035 78.0073 14.1035C77.5135 14.1035 77.1094 14.5174 77.1094 15.0232V15.0385V30.336V30.3514C77.1094 30.8572 77.5135 31.271 78.0073 31.271C78.5012 31.271 78.9053 30.8572 78.9053 30.3514V30.336V30.3514C78.9053 30.8572 79.3094 31.271 79.8033 31.271C80.2972 31.271 80.7013 30.8572 80.7013 30.3514V30.336V30.3514C80.7013 30.8572 81.1054 31.271 81.5992 31.271C82.0931 31.271 82.4972 30.8572 82.4972 30.3514V30.336V15.0385V15.0232C82.4972 14.5174 82.0931 14.1035 81.5992 14.1035Z" fill="#3E389F"/>
<path d="M100.137 27.7606C100.137 27.3773 99.8377 27.0555 99.4486 27.0555C99.4486 27.0555 99.4486 27.0555 99.4336 27.0555H97.7275H97.7125H91.3369L98.6105 18.8549C98.7302 18.7016 98.8499 18.5483 98.9248 18.3951C99.0145 18.2418 99.0445 18.0732 99.0445 17.8739V15.0995C99.0445 14.8543 98.9697 14.6703 98.805 14.517C98.6404 14.3638 98.4608 14.2871 98.2513 14.2871H85.1558C85.1558 14.2871 85.1558 14.2871 85.1409 14.2871C84.7667 14.2871 84.4524 14.609 84.4524 14.9922C84.4524 15.3754 84.7518 15.6973 85.1409 15.6973C85.1409 15.6973 85.1409 15.6973 85.1558 15.6973C85.1558 15.6973 85.1558 15.6973 85.1409 15.6973C84.7667 15.6973 84.4524 16.0192 84.4524 16.4024C84.4524 16.7856 84.7518 17.1075 85.1409 17.1075C85.1409 17.1075 85.1409 17.1075 85.1558 17.1075C85.1558 17.1075 85.1558 17.1075 85.1409 17.1075C84.7667 17.1075 84.4524 17.4294 84.4524 17.8126C84.4524 18.1958 84.7518 18.5177 85.1409 18.5177C85.1409 18.5177 85.1409 18.5177 85.1558 18.5177H86.5327H86.5477H92.3247L84.8715 26.8102C84.7218 26.9635 84.6021 27.1321 84.4973 27.3007C84.4075 27.4693 84.3477 27.6839 84.3477 27.9292V30.4736C84.3477 30.7189 84.4225 30.9028 84.5871 31.0561C84.7517 31.2094 84.9313 31.286 85.1409 31.286H99.4336C99.4336 31.286 99.4336 31.286 99.4486 31.286C99.8227 31.286 100.137 30.9641 100.137 30.5809C100.137 30.1977 99.8377 29.8758 99.4486 29.8758C99.4486 29.8758 99.4486 29.8758 99.4336 29.8758C99.4336 29.8758 99.4336 29.8758 99.4486 29.8758C99.8227 29.8758 100.137 29.5539 100.137 29.1707C100.137 28.7875 99.8377 28.4656 99.4486 28.4656C99.4486 28.4656 99.4486 28.4656 99.4336 28.4656C99.4336 28.4656 99.4336 28.4656 99.4486 28.4656C99.8377 28.4656 100.137 28.1438 100.137 27.7606Z" fill="#3E389F"/>
<path d="M117.246 27.7606C117.246 27.3773 116.946 27.0555 116.557 27.0555C116.557 27.0555 116.557 27.0555 116.542 27.0555H114.821H114.806H108.431L115.704 18.8549C115.824 18.7016 115.944 18.5483 116.019 18.3951C116.108 18.2418 116.138 18.0732 116.138 17.8739V15.0995C116.138 14.8543 116.063 14.6703 115.899 14.517C115.734 14.3638 115.555 14.2871 115.345 14.2871H102.25C102.25 14.2871 102.25 14.2871 102.235 14.2871C101.86 14.2871 101.546 14.609 101.546 14.9922C101.546 15.3754 101.845 15.6973 102.235 15.6973C102.235 15.6973 102.235 15.6973 102.25 15.6973C102.25 15.6973 102.25 15.6973 102.235 15.6973C101.86 15.6973 101.546 16.0192 101.546 16.4024C101.546 16.7856 101.845 17.1075 102.235 17.1075C102.235 17.1075 102.235 17.1075 102.25 17.1075C102.25 17.1075 102.25 17.1075 102.235 17.1075C101.86 17.1075 101.546 17.4294 101.546 17.8126C101.546 18.1958 101.845 18.5177 102.235 18.5177C102.235 18.5177 102.235 18.5177 102.25 18.5177H103.626H103.641H109.418L101.965 26.8102C101.816 26.9635 101.696 27.1321 101.591 27.3007C101.501 27.4693 101.441 27.6839 101.441 27.9292V30.4736C101.441 30.7189 101.516 30.9028 101.681 31.0561C101.845 31.2094 102.025 31.286 102.235 31.286H116.527C116.527 31.286 116.527 31.286 116.542 31.286C116.916 31.286 117.231 30.9641 117.231 30.5809C117.231 30.1977 116.931 29.8758 116.542 29.8758C116.542 29.8758 116.542 29.8758 116.527 29.8758C116.527 29.8758 116.527 29.8758 116.542 29.8758C116.916 29.8758 117.231 29.5539 117.231 29.1707C117.231 28.7875 116.931 28.4656 116.542 28.4656C116.542 28.4656 116.542 28.4656 116.527 28.4656C116.527 28.4656 116.527 28.4656 116.542 28.4656C116.931 28.4656 117.246 28.1438 117.246 27.7606Z" fill="#3E389F"/>
</svg>
