<svg width="283" height="63" viewBox="0 0 283 63" fill="none" xmlns="http://www.w3.org/2000/svg">
<path d="M42.1853 8.61594C43.0971 4.40354 40.8466 2.63512 39.0036 1.38333C37.1605 0.131527 34.619 0.0719174 32.6984 1.22437C31.1269 2.17812 30.0017 3.82731 28.3526 4.60224C24.7829 6.31104 19.8551 3.54914 16.9256 6.23156C15.9168 7.16544 15.4124 8.53646 14.3842 9.39086C12.6187 10.8612 9.9996 10.3446 7.80733 10.9804C6.50749 11.358 5.82846 12.1726 4.78083 12.9277C3.8884 13.5834 3.01537 13.8814 2.04534 14.5371C-2.76602 17.7561 4.54802 23.6177 7.28351 24.9887C9.01017 25.8629 10.8532 26.4988 12.3859 27.6711C14.5006 29.2806 15.8974 31.8239 18.2449 33.0558C20.4954 34.2281 23.2696 34.0096 25.5395 35.1421C27.1304 35.9369 28.3914 37.3676 30.0211 38.1028C32.0969 39.0366 35.104 39.1558 36.7919 40.7057" fill="#FF931E"/>
<path d="M30.3704 13.9613C29.4392 15.2727 27.4215 15.1336 25.2874 14.9747C23.0564 14.8157 20.5149 14.6369 18.9046 16.0476C18.3614 16.5245 18.0898 17.2597 17.7988 18.0346C17.4302 18.9884 17.0616 19.9819 16.1691 20.578C15.4513 21.035 14.5007 21.0151 13.5694 20.9952C12.0562 20.9555 11.1056 20.9952 10.834 22.1874C10.5817 23.32 10.6594 24.2141 11.1056 24.9096C12.0174 26.3402 14.4231 26.8171 16.5377 27.2343C18.1674 27.5523 19.7 27.8503 20.6119 28.5656C21.2909 29.1021 21.8729 29.7777 22.4355 30.4135C22.9788 31.0295 23.5026 31.6256 24.1234 32.1223C25.9471 33.5728 28.3527 34.1292 30.6808 34.6855H30.7002C33.7073 35.381 36.2488 39.3152 36.3652 39.494L36.3846 39.5139C36.792 40.2888 37.277 40.9843 37.9173 41.0439C38.1695 41.0637 38.4605 40.9843 38.7709 40.8849C38.8485 40.865 38.9261 40.8452 39.0037 40.8054C40.6139 40.3484 42.4182 40.6266 43.9703 41.6002C45.5223 42.5738 46.6087 44.084 46.9192 45.753C47.1132 46.826 47.0744 47.9586 47.0162 49.0713C46.9386 50.9192 46.8415 52.6677 47.9668 53.8202C48.413 54.2772 49.1696 54.5553 49.6158 54.2176C50.0039 53.9195 50.1009 53.3234 50.1785 52.6677C50.1979 52.5485 50.2173 52.4293 50.2367 52.2902C50.3337 51.714 50.6247 50.9589 51.1873 50.5416C51.4977 50.3231 51.8663 50.2237 52.2349 50.3032C52.7199 50.4025 53.1662 50.7602 53.4766 51.3563C54.175 52.7075 54.0586 54.2573 53.884 55.7277L53.8646 55.8469C53.7094 57.1384 53.5348 58.4896 53.981 59.6222C54.2332 60.258 54.7764 60.8342 55.3972 61.0925C55.7076 61.2117 56.1539 61.331 56.6195 61.1124C57.6865 60.6355 57.8611 59.0459 57.6671 57.7345C57.4925 56.6218 57.2015 55.5091 56.8911 54.4163C56.4255 52.7273 55.9404 50.9788 55.9793 49.1706C55.9987 47.6208 56.3673 46.1305 56.7359 44.6999C57.0075 43.6071 57.2985 42.4745 57.4149 41.3618C57.7835 37.8846 56.4449 34.2484 53.9616 31.864C53.3602 31.2878 52.6617 30.7513 52.0021 30.2546C50.5665 29.1617 49.092 28.0291 48.2772 26.3402C47.5594 24.8698 47.4624 23.2604 47.3654 21.6708C47.2878 20.3196 47.2102 19.0281 46.7639 17.8558C46.2595 16.5046 45.2701 15.2926 44.3195 14.1401C43.1942 12.7691 42.0302 11.3385 41.584 9.58994C36.7338 9.29189 33.5521 9.45085 30.3704 13.9613Z" fill="#FCECD4"/>
<path d="M41.7539 33.9068C41.6375 27.3895 35.5263 22.2035 28.1152 22.3426C28.2122 28.8797 34.3234 34.0459 41.7539 33.9068Z" fill="#4DC359"/>
<path d="M43.908 26.5366C46.1973 23.576 49.8834 22.9998 50.0968 23.1588C50.3102 23.3177 50.5042 26.8744 48.215 29.835C45.9257 32.7956 42.0261 34.0474 41.8321 33.8885C41.6381 33.7295 41.6187 29.4972 43.908 26.5366Z" fill="#4DC359"/>
<path d="M21.9482 26.0622C23.9519 26.0622 25.5762 24.3986 25.5762 22.3465C25.5762 20.2944 23.9519 18.6309 21.9482 18.6309C19.9446 18.6309 18.3203 20.2944 18.3203 22.3465C18.3203 24.3986 19.9446 26.0622 21.9482 26.0622Z" fill="#F34337"/>
<path d="M39.8193 22.5465C41.823 22.5465 43.4472 20.883 43.4472 18.8309C43.4472 16.7788 41.823 15.1152 39.8193 15.1152C37.8157 15.1152 36.1914 16.7788 36.1914 18.8309C36.1914 20.883 37.8157 22.5465 39.8193 22.5465Z" fill="#F34337"/>
<path d="M53.5423 39.1497C53.8632 37.1241 52.5201 35.2155 50.5423 34.8868C48.5645 34.558 46.701 35.9336 46.38 37.9592C46.059 39.9849 47.4022 41.8935 49.38 42.2222C51.3577 42.5509 53.2213 41.1754 53.5423 39.1497Z" fill="#F34337"/>
<path d="M5.14747 24.41L5.34148 24.5689C5.36088 24.5888 5.39968 24.6087 5.43848 24.6285C6.0593 25.0657 6.69952 25.4631 7.14574 25.6816C7.65015 25.9399 8.17397 26.1784 8.67839 26.3969C9.92003 26.9533 11.0841 27.4898 12.0929 28.2647C12.9271 28.9005 13.6644 29.7152 14.3822 30.51C15.4492 31.6823 16.5356 32.8944 17.9907 33.6494C19.2129 34.2853 20.5516 34.5436 21.8514 34.782C23.0543 35.0006 24.1989 35.2191 25.2271 35.7357C25.9256 36.0735 26.5464 36.5504 27.2254 37.067C27.982 37.6433 28.7775 38.2592 29.7087 38.6566C30.5235 39.0143 31.4548 39.2726 32.3666 39.4911C33.8022 39.8687 35.2767 40.2462 36.1691 41.0609C36.6735 41.6967 37.2749 42.0544 37.9152 42.0941C38.4002 42.1338 38.827 41.9947 39.1956 41.8755C39.2732 41.8557 39.3314 41.8358 39.409 41.8159C40.6895 41.4384 42.1445 41.6967 43.4249 42.4915C44.7054 43.2863 45.559 44.5182 45.8112 45.8495C45.9858 46.7834 45.9276 47.8563 45.8888 48.8697C45.7918 50.8766 45.6948 52.9629 47.1693 54.4929C47.9453 55.2877 49.3033 55.7447 50.2928 55.0095C51.0882 54.4333 51.2046 53.4994 51.321 52.6648C51.3404 52.5456 51.3598 52.4264 51.3598 52.327C51.418 51.9297 51.6314 51.5124 51.8448 51.3534C51.9224 51.3137 51.9612 51.2938 52 51.3137C52.097 51.3336 52.2522 51.4528 52.4074 51.7707C52.9507 52.8039 52.8343 54.1551 52.6791 55.4267L52.6597 55.546C52.4851 56.9766 52.3104 58.4668 52.8537 59.8974C53.2223 60.8313 53.9983 61.646 54.8907 62.0037C55.2593 62.1626 55.628 62.2222 55.9772 62.2222C56.3264 62.2222 56.6756 62.1427 57.0054 62.0037C58.6545 61.2486 58.9649 59.1225 58.7127 57.3939C58.5381 56.2215 58.2276 55.0691 57.9172 53.9564C57.4516 52.2873 57.0248 50.6977 57.0442 49.0684C57.0636 47.6775 57.3934 46.3264 57.762 44.8759C58.053 43.7433 58.344 42.5908 58.4604 41.3788C58.8485 37.5638 57.4128 33.5699 54.6773 30.9273C54.0371 30.3113 53.3387 29.7549 52.6403 29.2383C51.8254 28.6224 51.0688 28.0263 50.4286 27.3308C50.8166 26.1982 51.0494 24.9862 51.0494 23.7344V22.4428C51.03 22.3236 50.9718 22.2044 50.8748 22.1249C50.7778 22.0454 50.6614 22.0057 50.5256 22.0256L50.2928 22.0454C49.7108 22.1249 49.1287 22.2441 48.5661 22.423C48.5467 22.1448 48.5273 21.8666 48.5079 21.6083C48.4303 20.2373 48.3333 18.8067 47.8483 17.4555C47.2857 15.9057 46.238 14.634 45.2292 13.4021C44.0458 11.9516 42.9205 10.5806 42.6877 8.9115V8.83202C43.6384 4.06326 40.7671 2.13589 39.215 1.08279C37.1585 -0.28823 34.3648 -0.367709 32.2502 0.903959C31.4741 1.36097 30.8339 1.97693 30.1937 2.55315C29.4759 3.20886 28.7969 3.84469 28.0014 4.22222C26.5658 4.89779 24.7809 4.77857 23.0349 4.63948C20.7262 4.46066 18.3205 4.28183 16.5162 5.95089C15.9924 6.44764 15.6044 7.02386 15.2164 7.58022C14.8478 8.13657 14.4986 8.67306 14.033 9.05058C13.0823 9.84538 11.7825 9.9646 10.3856 10.0838C9.51262 10.1633 8.62019 10.2428 7.76656 10.5011C6.69952 10.819 6.0205 11.3555 5.30267 11.9516C5.06987 12.1503 4.81766 12.349 4.56545 12.5278C4.13864 12.8457 3.69242 13.0643 3.22681 13.3226C2.79999 13.5412 2.35378 13.7796 1.88816 14.0975C0.568917 14.9917 -0.0713043 16.1441 0.00629824 17.535C0.0645002 18.5285 0.685321 21.1513 5.14747 24.41ZM22.9379 6.05024C24.8391 6.18933 26.818 6.34829 28.5835 5.49389C29.5729 5.01701 30.3489 4.3017 31.1249 3.58638C31.7264 3.03003 32.3084 2.49354 32.9486 2.11602C34.6171 1.12253 36.8287 1.16227 38.4584 2.25511C40.282 3.48704 42.0087 4.9574 41.3685 8.41475C36.6929 8.1167 33.1038 8.29553 29.6311 13.2232C29.0879 13.9982 27.4776 13.879 25.6152 13.7597C23.1707 13.5809 20.4158 13.3822 18.4563 15.1307C17.6997 15.7865 17.3699 16.7005 17.0401 17.5946C16.7297 18.4093 16.4386 19.1842 15.876 19.5617C15.4686 19.82 14.6926 19.82 13.9554 19.8002C13.1599 19.7803 12.1899 19.7604 11.4139 20.1379C11.2199 19.0054 10.6379 17.8728 9.66782 16.8793C9.1246 16.3229 7.30094 14.5943 4.70126 14.1373C4.95346 13.9783 5.16687 13.8392 5.38028 13.7001C5.69069 13.4816 5.9623 13.263 6.1951 13.0643C6.81593 12.5477 7.35914 12.1105 8.15457 11.8721C8.89179 11.6535 9.70662 11.5741 10.5214 11.5144C12.0541 11.3754 13.645 11.2363 14.906 10.1633C15.5268 9.64668 15.9536 9.01085 16.361 8.39488C16.7103 7.87827 17.0207 7.40139 17.4281 7.02386C18.8055 5.7522 20.8232 5.89128 22.9379 6.05024ZM32.5412 26.7943C32.483 26.993 32.58 27.1719 32.7546 27.2712C32.9486 27.3507 33.1232 27.45 33.3172 27.5295L33.3754 27.5494C33.8216 27.7481 34.2484 27.9468 34.6753 28.1653C36.2467 28.9403 37.6824 30.0132 39.1956 31.5631C39.5448 31.9207 39.894 32.2983 40.2238 32.6559C40.282 32.7354 40.3596 32.795 40.4178 32.8745C37.4301 32.6957 34.6171 31.583 32.4636 29.7748C30.2907 27.9468 28.9909 25.5823 28.6805 22.9793C28.6805 22.9197 28.6999 22.8402 28.7387 22.8005C28.7775 22.7608 28.8357 22.7409 28.8939 22.7409H28.9133C31.9786 22.88 34.8887 23.9927 37.1003 25.8605C38.9628 27.4302 40.2238 29.4966 40.7283 31.7022C38.9434 28.8409 36.1497 26.9732 32.9874 26.536C32.7546 26.4764 32.5994 26.5956 32.5412 26.7943ZM43.2503 32.5963C43.5219 32.2387 43.7936 31.881 44.0652 31.5233L43.9876 31.4637L44.0652 31.5233C44.977 30.3312 45.9082 29.0794 46.9947 27.9667C47.1305 27.8276 47.1499 27.609 47.0335 27.45C46.9365 27.2911 46.7231 27.2315 46.5485 27.2911C45.0934 27.907 43.6966 29.3178 42.7653 31.1061C43.2115 27.8474 45.3068 25.1451 48.3333 23.9529C48.7795 23.7741 49.2645 23.635 49.7302 23.5158C49.9048 27.7481 47.1887 31.5035 43.2503 32.5963ZM41.6013 29.8344C40.8835 27.907 39.6224 26.1585 37.954 24.7477C35.2379 22.4428 31.6488 21.2109 27.885 21.2904C27.7104 21.2904 27.5164 21.3699 27.4 21.509C27.2642 21.6481 27.206 21.8269 27.206 22.0256C27.2642 25.4034 28.8163 28.5627 31.5712 30.8875C34.2096 33.1129 37.663 34.3449 41.3297 34.3449C41.4267 34.3449 41.8923 34.3051 41.9117 34.3051C45.3844 33.8879 48.2751 31.7419 49.8272 28.7614C50.448 29.3575 51.1464 29.894 51.8254 30.4106C52.4851 30.9273 53.1641 31.4439 53.7461 32.0002C56.1712 34.325 57.4516 37.8817 57.1024 41.2596C56.986 42.3524 56.7144 43.4651 56.4234 44.558C56.0548 46.0084 55.6862 47.5186 55.6668 49.0883C55.6474 50.9163 56.1324 52.6847 56.598 54.3935C56.889 55.4665 57.1994 56.5792 57.3546 57.672C57.5292 58.8841 57.3934 60.3545 56.4622 60.7717C56.0742 60.9506 55.6862 60.8512 55.434 60.7519C54.8713 60.5134 54.4057 60.0167 54.1729 59.4404C53.7461 58.3476 53.9013 57.0561 54.0565 55.7844L54.0759 55.6652C54.2505 54.1551 54.3669 52.5854 53.6491 51.1746C53.2999 50.499 52.8149 50.0818 52.2522 49.9824C51.8254 49.9029 51.3986 50.0023 51.0494 50.2606C50.4286 50.7176 50.0988 51.5323 50.0018 52.1681C49.9824 52.2873 49.963 52.4065 49.9436 52.5456C49.866 53.1417 49.7884 53.6981 49.478 53.9365C49.1481 54.1749 48.5079 53.9365 48.1587 53.559C47.1111 52.486 47.2081 50.7971 47.2857 49.0088C47.3439 47.8961 47.4021 46.7436 47.1887 45.6508C46.8589 43.9221 45.753 42.3524 44.1622 41.339C42.5713 40.3257 40.6895 40.0276 39.0404 40.5045C38.9628 40.5244 38.9046 40.5442 38.827 40.5641L38.7882 40.584C38.5166 40.6635 38.2644 40.7429 38.051 40.7231C37.5078 40.6833 37.1003 40.0276 36.7123 39.3123L36.6929 39.2726C36.5765 39.0938 34.0156 35.0999 30.9115 34.3647C28.6417 33.8282 26.2748 33.2918 24.5093 31.8611C23.9273 31.3843 23.4035 30.808 22.8797 30.1921C22.317 29.5562 21.735 28.8807 21.0366 28.3243C20.1054 27.5693 18.5533 27.2712 16.9043 26.9533C14.8478 26.5559 12.5391 26.0989 11.6855 24.7477C11.2781 24.1119 11.2005 23.2972 11.4527 22.2243C11.6661 21.3301 12.2287 21.191 13.936 21.2308C14.8866 21.2507 15.876 21.2705 16.6327 20.7738C17.6027 20.1379 17.9713 19.1047 18.3399 18.1112C18.6115 17.3562 18.8831 16.6607 19.3681 16.2236C20.8814 14.8724 23.3453 15.0513 25.5182 15.2102C27.691 15.3692 29.7669 15.5083 30.7563 14.0975C33.841 9.70629 36.8869 9.5672 41.4849 9.88512C41.9505 11.5939 43.0951 12.9848 44.1816 14.336C45.1128 15.4685 46.0828 16.6607 46.5485 17.9721C46.9753 19.1246 47.0529 20.3764 47.1305 21.7275C47.1499 22.1249 47.1887 22.5422 47.2081 22.9595C44.4726 24.251 42.3579 26.8142 41.6013 29.8344ZM16.6133 28.3243C18.0877 28.6224 19.4845 28.8807 20.1636 29.437C20.765 29.9139 21.2694 30.51 21.8126 31.126C22.3558 31.7618 22.9379 32.4175 23.6169 32.9738C25.6346 34.5833 28.1566 35.1794 30.6011 35.7357C32.0562 36.0735 33.4724 37.4446 34.4618 38.6169C33.8604 38.4182 33.2396 38.2592 32.7158 38.1201L32.6188 38.1003C31.7652 37.8817 30.9503 37.6631 30.2713 37.3651C29.4953 37.0273 28.7969 36.4908 28.0596 35.9344C27.3806 35.4178 26.6628 34.8615 25.848 34.4641C24.6451 33.868 23.3647 33.6296 22.1036 33.3911C20.862 33.1527 19.6786 32.954 18.6309 32.3976C17.3893 31.7419 16.4192 30.6888 15.391 29.5364C14.7896 28.8608 14.1688 28.1653 13.4509 27.5693C14.4792 27.907 15.5656 28.1256 16.6133 28.3243ZM9.95883 24.0523C10.0364 24.5888 10.2304 25.0657 10.4826 25.4829C10.5408 25.5624 10.5991 25.6618 10.6573 25.7412C10.1916 25.5028 9.70662 25.2842 9.24101 25.0657C9.0082 24.9663 8.77539 24.8471 8.54258 24.7477C9.0858 24.5888 9.57082 24.3503 9.95883 24.0523ZM2.29557 15.5679C4.81766 14.9917 7.30094 16.4422 8.65899 17.8529C9.2022 18.4291 9.88123 19.3432 10.0364 20.4559C10.1722 21.4295 9.82303 22.3832 9.1828 22.88C8.48438 23.4165 6.99053 23.8933 6.1175 23.3569C5.32208 22.7806 4.54605 22.1448 3.88643 21.509C2.79999 20.4559 1.48075 18.8861 1.40314 17.4555C1.36434 16.7203 1.65535 16.1044 2.29557 15.5679Z" fill="#3E389F"/>
<path d="M49.9646 43.0534C52.3703 43.0534 54.3492 41.0466 54.3492 38.5628C54.3492 36.0791 52.3897 34.0723 49.9646 34.0723C47.5395 34.0723 45.5801 36.0791 45.5801 38.5628C45.5801 41.0466 47.5395 43.0534 49.9646 43.0534ZM46.9769 38.5628C46.9769 36.8739 48.3156 35.5029 49.9646 35.5029C51.6137 35.5029 52.9523 36.8739 52.9523 38.5628C52.9523 40.2518 51.6137 41.6228 49.9646 41.6228C48.3156 41.6228 46.9769 40.2518 46.9769 38.5628Z" fill="#3E389F"/>
<path d="M39.8181 14.3359C37.4125 14.3359 35.4336 16.3428 35.4336 18.8265C35.4336 21.3102 37.3931 23.3171 39.8181 23.3171C42.2432 23.3171 44.2027 21.3102 44.2027 18.8265C44.2027 16.3428 42.2238 14.3359 39.8181 14.3359ZM42.8058 18.8265C42.8058 20.5155 41.4672 21.8865 39.8181 21.8865C38.1691 21.8865 36.8304 20.5155 36.8304 18.8265C36.8304 17.1376 38.1691 15.7666 39.8181 15.7666C41.4672 15.7666 42.8058 17.1376 42.8058 18.8265Z" fill="#3E389F"/>
<path d="M21.947 17.9727C19.5414 17.9727 17.5625 19.9795 17.5625 22.4632C17.5625 24.947 19.522 26.9538 21.947 26.9538C24.3721 26.9538 26.3316 24.947 26.3316 22.4632C26.3316 19.9795 24.3721 17.9727 21.947 17.9727ZM24.9347 22.4632C24.9347 24.1522 23.5961 25.5232 21.947 25.5232C20.298 25.5232 18.9593 24.1522 18.9593 22.4632C18.9593 20.7743 20.298 19.4033 21.947 19.4033C23.5961 19.4033 24.9347 20.7743 24.9347 22.4632Z" fill="#3E389F"/>
<path d="M210.559 19.4577C210.617 19.2988 210.637 19.1597 210.637 19.0405C210.637 18.8616 210.578 18.7027 210.443 18.5835C210.307 18.4444 210.171 18.3848 209.996 18.3848H209.201C208.968 18.3848 208.794 18.4444 208.677 18.5636C208.503 18.7424 208.464 18.8418 208.444 18.8815L203.07 37.5194L197.347 19.1199C197.308 18.961 197.231 18.802 197.076 18.6431C196.92 18.4841 196.707 18.4046 196.397 18.4046H195.562C195.252 18.4046 195.039 18.4841 194.903 18.6431C194.748 18.8219 194.651 19.0007 194.612 19.1398L188.889 37.5393L183.515 18.9213C183.495 18.8616 183.456 18.7623 183.282 18.6033C183.165 18.4841 182.991 18.4245 182.758 18.4245H181.962C181.788 18.4245 181.633 18.4841 181.516 18.6232C181.4 18.7623 181.322 18.9014 181.322 19.0802C181.322 19.1994 181.342 19.3385 181.4 19.4975L187.356 39.5859C187.472 39.9038 187.627 40.1621 187.802 40.321C187.957 40.4601 188.21 40.5396 188.52 40.5396H189.238C189.587 40.5396 189.859 40.4601 190.053 40.321C190.247 40.182 190.382 39.9435 190.479 39.6057L195.989 21.9613L201.499 39.6057C201.596 39.9435 201.751 40.182 201.945 40.321C202.159 40.4601 202.411 40.5396 202.741 40.5396H203.458C203.808 40.5396 204.06 40.4601 204.215 40.321C204.39 40.182 204.525 39.9237 204.622 39.5859L210.559 19.4577Z" fill="#3E389F"/>
<path d="M229.863 25.3209C229.863 24.4864 229.727 23.6121 229.494 22.7378C229.242 21.8834 228.834 21.0688 228.252 20.3733C227.67 19.658 226.836 19.0818 225.788 18.6248C224.741 18.1678 223.363 17.9492 221.753 17.9492C220.376 17.9492 219.192 18.1479 218.242 18.5453C217.291 18.9427 216.496 19.4196 215.894 19.9958C215.293 20.572 214.846 21.1483 214.555 21.7444C214.284 22.3206 214.129 22.7975 214.129 23.175C214.129 23.3935 214.187 23.5724 214.303 23.7313C214.4 23.8704 214.594 23.93 214.866 23.93H215.545C215.855 23.93 216.049 23.7711 216.166 23.4134C216.515 22.4199 217.175 21.6053 218.106 20.9893C219.037 20.3733 220.259 20.0753 221.753 20.0753C223.79 20.0753 225.303 20.5323 226.254 21.4463C227.205 22.3603 227.69 23.632 227.69 25.2017V26.8906L220.841 27.8643C218.397 28.202 216.398 28.9571 214.885 30.1294C213.391 31.262 212.635 32.792 212.635 34.6796C212.635 35.8519 212.984 36.905 213.644 37.819C214.323 38.7529 215.234 39.508 216.34 40.0842C217.446 40.6406 218.688 40.9187 219.988 40.9187C221.423 40.9187 222.626 40.7399 223.577 40.3822C224.527 40.0246 225.303 39.6073 225.905 39.0907C226.506 38.594 226.972 38.0773 227.302 37.5806L227.651 37.0242V39.7265C227.651 39.965 227.709 40.1438 227.845 40.2829C227.981 40.422 228.155 40.4816 228.388 40.4816H229.106C229.339 40.4816 229.513 40.422 229.649 40.2829C229.785 40.1438 229.843 39.965 229.843 39.7265L229.863 25.3209ZM227.69 30.5666C227.69 32.4144 227.36 33.9643 226.72 35.1764C226.079 36.4083 225.187 37.3223 224.081 37.9184C222.995 38.5145 221.772 38.8125 220.434 38.8125C219.541 38.8125 218.668 38.6536 217.815 38.3357C216.961 38.0177 216.243 37.5409 215.681 36.9249C215.118 36.2891 214.827 35.4545 214.827 34.461C214.827 33.2092 215.448 32.1561 216.69 31.3415C217.892 30.5467 219.677 29.9903 222.005 29.6724L227.67 28.8577V30.5666H227.69Z" fill="#3E389F"/>
<path d="M237.563 10.9152C237.563 10.6768 237.505 10.4979 237.369 10.3589C237.234 10.2198 237.059 10.1602 236.826 10.1602H236.108C235.876 10.1602 235.701 10.2198 235.565 10.3589C235.429 10.4979 235.371 10.6768 235.371 10.9152V39.7264C235.371 39.9649 235.429 40.1437 235.565 40.2828C235.701 40.4219 235.876 40.4815 236.108 40.4815H236.826C237.059 40.4815 237.234 40.4219 237.369 40.2828C237.505 40.1437 237.563 39.9649 237.563 39.7264V10.9152Z" fill="#3E389F"/>
<path d="M245.366 10.9152C245.366 10.6768 245.308 10.4979 245.172 10.3589C245.036 10.2198 244.862 10.1602 244.629 10.1602H243.911C243.678 10.1602 243.504 10.2198 243.368 10.3589C243.232 10.4979 243.174 10.6768 243.174 10.9152V39.7264C243.174 39.9649 243.232 40.1437 243.368 40.2828C243.504 40.4219 243.678 40.4815 243.911 40.4815H244.629C244.862 40.4815 245.036 40.4219 245.172 40.2828C245.308 40.1437 245.366 39.9649 245.366 39.7264V10.9152Z" fill="#3E389F"/>
<path d="M268.24 28.919C268.24 26.6538 267.872 24.6668 267.135 23.0375C266.397 21.4082 265.35 20.1365 264.011 19.2821C262.672 18.4078 261.023 17.9707 259.083 17.9707C257.298 17.9707 255.727 18.388 254.427 19.2026C253.127 20.0173 252.099 21.1697 251.362 22.6202C250.625 24.0906 250.159 25.8193 250.023 27.7268C250.004 28.1441 249.984 28.7203 249.984 29.4356C249.984 30.1509 250.004 30.7271 250.023 31.1444C250.237 34.0454 251.148 36.4298 252.72 38.218C254.272 39.9865 256.425 40.9005 259.083 40.9005C260.383 40.9005 261.567 40.7216 262.614 40.3441C263.662 39.9666 264.554 39.5096 265.291 38.9532C266.029 38.3969 266.591 37.8207 266.979 37.2444C267.367 36.6881 267.581 36.2112 267.6 35.8535C267.62 35.6548 267.561 35.5158 267.445 35.3965C267.29 35.2773 267.115 35.1978 266.921 35.1978H266.242C265.893 35.1978 265.738 35.2376 265.66 35.2773C265.602 35.3171 265.447 35.4363 265.136 35.8933C264.981 36.1317 264.671 36.4894 264.186 36.9464C263.701 37.4034 263.022 37.8405 262.207 38.218C261.392 38.5956 260.344 38.7943 259.103 38.7943C257.706 38.7943 256.503 38.4167 255.475 37.6418C254.466 36.8868 253.67 35.8933 253.127 34.7011C252.584 33.5089 252.274 32.2372 252.215 30.9258V30.29H267.445C267.678 30.29 267.872 30.2304 268.008 30.0913C268.143 29.9522 268.221 29.7734 268.221 29.5548V28.919H268.24ZM266.048 28.303H252.215V27.9255C252.215 26.4551 252.487 25.1238 253.011 23.9515C253.554 22.7792 254.33 21.8254 255.358 21.13C256.387 20.4346 257.648 20.0769 259.083 20.0769C260.519 20.0769 261.78 20.4346 262.828 21.13C263.875 21.8254 264.671 22.7792 265.214 23.9515C265.757 25.1238 266.029 26.475 266.029 27.9255V28.303H266.048Z" fill="#3E389F"/>
<path d="M283 39.1304C283 38.8919 282.942 38.7131 282.806 38.574C282.67 38.4349 282.496 38.3753 282.263 38.3753H279.974C278.635 38.3753 277.684 37.8984 277.161 36.9844C276.656 36.0903 276.404 34.8583 276.404 33.2886V20.4925H281.836C282.069 20.4925 282.244 20.4329 282.379 20.2938C282.515 20.1547 282.573 19.9758 282.573 19.7374V19.1214C282.573 18.883 282.515 18.7042 282.379 18.5651C282.244 18.426 282.069 18.3664 281.836 18.3664H276.404V10.9152C276.404 10.6768 276.346 10.4979 276.21 10.3589C276.074 10.2198 275.9 10.1602 275.667 10.1602H274.949C274.716 10.1602 274.542 10.2198 274.406 10.3589C274.27 10.4979 274.212 10.6768 274.212 10.9152V18.3863H270.72C270.487 18.3863 270.312 18.4459 270.176 18.585C270.041 18.724 269.982 18.9029 269.982 19.1413V19.7573C269.982 19.9957 270.041 20.1745 270.176 20.3136C270.312 20.4527 270.487 20.5123 270.72 20.5123H274.212V33.4675C274.212 34.7987 274.386 36.0108 274.716 37.0838C275.046 38.1369 275.609 38.9714 276.423 39.5874C277.238 40.2033 278.363 40.5014 279.78 40.5014H282.263C282.496 40.5014 282.67 40.4418 282.806 40.3027C282.942 40.1636 283 39.9848 283 39.7463V39.1304Z" fill="#3E389F"/>
<path d="M92.3692 11.7527C90.6813 11.0373 88.683 10.6797 86.3938 10.6797H74.831C74.5206 10.6797 74.2878 10.779 74.0937 10.9777C73.8997 11.1764 73.8027 11.4347 73.8027 11.7328V37.1264V37.1463V39.2127V39.2326C73.8027 39.9479 74.3848 40.544 75.0832 40.544C75.7816 40.544 76.3636 39.9479 76.3636 39.2326V39.2127V39.2326C76.3636 39.9479 76.9456 40.544 77.6441 40.544C78.3425 40.544 78.9245 39.9479 78.9245 39.2326V39.2127V39.2326C78.9245 39.9479 79.5065 40.544 80.2049 40.544C80.9034 40.544 81.4854 39.9479 81.4854 39.2326V39.2127V34.5632V29.9733H86.4132C88.7024 29.9733 90.6813 29.6355 92.3886 28.9599C94.0958 28.2843 95.3957 27.2312 96.3657 25.8205C97.3163 24.4097 97.8013 22.6214 97.8013 20.4358C97.8013 18.2501 97.3163 16.4221 96.3657 14.9716C95.4151 13.5211 94.057 12.468 92.3692 11.7527ZM89.0322 23.1977C88.3338 23.8136 87.3832 24.1316 86.1997 24.1316H81.369V16.5612H86.1997C87.5772 16.5612 88.5666 16.9188 89.168 17.654C89.7695 18.3892 90.0799 19.2833 90.0799 20.3563C90.0799 21.628 89.7307 22.5817 89.0322 23.1977Z" fill="#3E389F"/>
<path d="M105.89 9.24609H101.02C100.729 9.24609 100.477 9.34544 100.283 9.56401C100.089 9.76271 99.9922 10.021 99.9922 10.3389V14.0546C99.9922 14.0745 99.9922 14.0745 99.9922 14.0943V15.1276V15.1474C99.9922 15.8031 100.516 16.3396 101.156 16.3396C101.796 16.3396 102.32 15.8031 102.32 15.1474V15.1276V15.1474C102.32 15.8031 102.844 16.3396 103.484 16.3396C104.125 16.3396 104.648 15.8031 104.648 15.1474V15.1276V15.1474C104.648 15.8031 105.172 16.3396 105.812 16.3396C106.453 16.3396 106.976 15.8031 106.976 15.1474V15.1276V14.0943C106.976 14.0745 106.976 14.0745 106.976 14.0546V10.3389C106.976 10.0409 106.879 9.78258 106.666 9.56401C106.433 9.36531 106.181 9.24609 105.89 9.24609Z" fill="#3E389F"/>
<path d="M173.889 35.199V26.1781C173.889 24.9263 173.695 23.7937 173.307 22.7605C172.919 21.7273 172.337 20.8331 171.561 20.0781C170.785 19.323 169.757 18.7269 168.476 18.3097C167.215 17.8924 165.683 17.6738 163.878 17.6738C162.074 17.6738 160.716 17.8924 159.494 18.3097C158.291 18.7269 157.282 19.2634 156.526 19.9191C155.75 20.5748 155.187 21.2305 154.818 21.8862C154.217 22.9195 154.256 23.9726 154.256 24.5687C154.256 25.1648 154.741 25.6615 155.323 25.6615C155.905 25.6615 156.39 25.1648 156.39 24.5687C156.39 25.1846 156.875 25.6615 157.457 25.6615C158.039 25.6615 158.524 25.1648 158.524 24.5687C158.524 25.1846 159.009 25.6615 159.591 25.6615C160.173 25.6615 160.542 25.1648 160.658 24.5687C160.891 23.3169 161.356 22.224 163.82 22.2836C164.926 22.3035 165.683 22.5419 166.09 23.0983C166.497 23.6348 166.711 24.4097 166.711 25.4231V26.0192L161.55 26.8338C158.912 27.2511 156.778 28.0459 155.187 29.2182C153.596 30.3905 152.781 31.9801 152.781 33.987C152.781 35.2189 153.13 36.3515 153.809 37.3251C154.489 38.3186 155.42 39.0935 156.603 39.6697C157.767 40.2459 159.106 40.544 160.6 40.544C161.667 40.544 162.617 40.4049 163.432 40.1466C164.247 39.8684 164.945 39.5108 165.566 39.0736C166.168 38.6166 166.653 38.1199 167.021 37.5834V37.8616C167.021 37.8814 167.021 37.9013 167.021 37.9212V39.3717V39.3915C167.021 40.0472 167.526 40.5639 168.166 40.5639C168.806 40.5639 169.311 40.0472 169.311 39.3915V39.3717V39.3915C169.311 40.0472 169.815 40.5639 170.455 40.5639C171.095 40.5639 171.6 40.0472 171.6 39.3915V39.3717V39.3915C171.6 40.0472 172.104 40.5639 172.745 40.5639C173.385 40.5639 173.889 40.0472 173.889 39.3915V39.3717V35.199ZM166.827 30.7084C166.827 31.841 166.633 32.7749 166.265 33.5299C165.896 34.285 165.392 34.8215 164.732 35.1791C164.092 35.5368 163.355 35.7156 162.559 35.7156C162.016 35.7156 161.512 35.6163 161.065 35.4374C160.619 35.2586 160.27 35.0003 159.998 34.6625C159.727 34.3247 159.591 33.9075 159.591 33.4306C159.591 32.8146 159.882 32.2583 160.483 31.8013C161.065 31.3443 162.016 30.9866 163.316 30.768L166.827 30.1322V30.7084Z" fill="#3E389F"/>
<path d="M105.777 18.2832C105.137 18.2832 104.613 18.8197 104.613 19.4754V19.4953V19.4754C104.613 18.8197 104.089 18.2832 103.449 18.2832C102.809 18.2832 102.285 18.8197 102.285 19.4754V19.4953V19.4754C102.285 18.8197 101.761 18.2832 101.121 18.2832C100.481 18.2832 99.957 18.8197 99.957 19.4754V19.4953V39.3253V39.3452C99.957 40.0009 100.481 40.5374 101.121 40.5374C101.761 40.5374 102.285 40.0009 102.285 39.3452V39.3253V39.3452C102.285 40.0009 102.809 40.5374 103.449 40.5374C104.089 40.5374 104.613 40.0009 104.613 39.3452V39.3253V39.3452C104.613 40.0009 105.137 40.5374 105.777 40.5374C106.417 40.5374 106.941 40.0009 106.941 39.3452V39.3253V19.4953V19.4754C106.941 18.8197 106.417 18.2832 105.777 18.2832Z" fill="#3E389F"/>
<path d="M129.813 35.9871C129.813 35.4903 129.425 35.073 128.921 35.073C128.921 35.073 128.921 35.073 128.902 35.073H126.69H126.67H118.406L127.835 24.4427C127.99 24.244 128.145 24.0453 128.242 23.8466C128.358 23.6479 128.397 23.4293 128.397 23.171V19.5746C128.397 19.2567 128.3 19.0182 128.087 18.8195C127.873 18.6208 127.641 18.5215 127.369 18.5215H110.393C110.393 18.5215 110.393 18.5215 110.374 18.5215C109.889 18.5215 109.482 18.9388 109.482 19.4355C109.482 19.9322 109.87 20.3495 110.374 20.3495C110.374 20.3495 110.374 20.3495 110.393 20.3495C110.393 20.3495 110.393 20.3495 110.374 20.3495C109.889 20.3495 109.482 20.7668 109.482 21.2635C109.482 21.7603 109.87 22.1775 110.374 22.1775C110.374 22.1775 110.374 22.1775 110.393 22.1775C110.393 22.1775 110.393 22.1775 110.374 22.1775C109.889 22.1775 109.482 22.5948 109.482 23.0915C109.482 23.5883 109.87 24.0056 110.374 24.0056C110.374 24.0056 110.374 24.0056 110.393 24.0056H112.178H112.198H119.686L110.025 34.7551C109.831 34.9538 109.676 35.1724 109.54 35.391C109.423 35.6095 109.346 35.8877 109.346 36.2056V39.504C109.346 39.8219 109.443 40.0604 109.656 40.2591C109.87 40.4578 110.102 40.5571 110.374 40.5571H128.902C128.902 40.5571 128.902 40.5571 128.921 40.5571C129.406 40.5571 129.813 40.1399 129.813 39.6431C129.813 39.1464 129.425 38.7291 128.921 38.7291C128.921 38.7291 128.921 38.7291 128.902 38.7291C128.902 38.7291 128.902 38.7291 128.921 38.7291C129.406 38.7291 129.813 38.3118 129.813 37.8151C129.813 37.3183 129.425 36.9011 128.921 36.9011C128.921 36.9011 128.921 36.9011 128.902 36.9011C128.902 36.9011 128.902 36.9011 128.921 36.9011C129.425 36.9011 129.813 36.4838 129.813 35.9871Z" fill="#3E389F"/>
<path d="M151.989 35.9871C151.989 35.4903 151.601 35.073 151.097 35.073C151.097 35.073 151.097 35.073 151.077 35.073H148.846H148.827H140.562L149.991 24.4427C150.146 24.244 150.301 24.0453 150.398 23.8466C150.515 23.6479 150.553 23.4293 150.553 23.171V19.5746C150.553 19.2567 150.456 19.0182 150.243 18.8195C150.03 18.6208 149.797 18.5215 149.525 18.5215H132.55C132.55 18.5215 132.55 18.5215 132.53 18.5215C132.045 18.5215 131.638 18.9388 131.638 19.4355C131.638 19.9322 132.026 20.3495 132.53 20.3495C132.53 20.3495 132.53 20.3495 132.55 20.3495C132.55 20.3495 132.55 20.3495 132.53 20.3495C132.045 20.3495 131.638 20.7668 131.638 21.2635C131.638 21.7603 132.026 22.1775 132.53 22.1775C132.53 22.1775 132.53 22.1775 132.55 22.1775C132.55 22.1775 132.55 22.1775 132.53 22.1775C132.045 22.1775 131.638 22.5948 131.638 23.0915C131.638 23.5883 132.026 24.0056 132.53 24.0056C132.53 24.0056 132.53 24.0056 132.55 24.0056H134.334H134.354H141.842L132.181 34.7551C131.987 34.9538 131.832 35.1724 131.696 35.391C131.58 35.6095 131.502 35.8877 131.502 36.2056V39.504C131.502 39.8219 131.599 40.0604 131.812 40.2591C132.026 40.4578 132.259 40.5571 132.53 40.5571H151.058C151.058 40.5571 151.058 40.5571 151.077 40.5571C151.562 40.5571 151.97 40.1399 151.97 39.6431C151.97 39.1464 151.582 38.7291 151.077 38.7291C151.077 38.7291 151.077 38.7291 151.058 38.7291C151.058 38.7291 151.058 38.7291 151.077 38.7291C151.562 38.7291 151.97 38.3118 151.97 37.8151C151.97 37.3183 151.582 36.9011 151.077 36.9011C151.077 36.9011 151.077 36.9011 151.058 36.9011C151.058 36.9011 151.058 36.9011 151.077 36.9011C151.582 36.9011 151.989 36.4838 151.989 35.9871Z" fill="#3E389F"/>
</svg>
