<svg width="235" height="86" viewBox="0 0 235 86" fill="none" xmlns="http://www.w3.org/2000/svg">
<g clip-path="url(#clip0_582_4760)">
<path d="M57.0001 11.9085C58.2324 6.091 55.191 3.64875 52.7002 1.91997C50.2094 0.191189 46.7747 0.108866 44.179 1.70044C42.0553 3.01761 40.5346 5.29521 38.306 6.36541C33.4817 8.72533 26.8221 4.91104 22.8631 8.61557C21.4997 9.90529 20.818 11.7987 19.4284 12.9787C17.0425 15.0093 13.5029 14.2958 10.5402 15.174C8.78352 15.6953 7.86585 16.8204 6.45003 17.8632C5.24396 18.7687 4.06411 19.1803 2.75317 20.0859C-3.74912 24.5313 6.13541 32.6264 9.83227 34.5198C12.1658 35.7272 14.6565 36.6054 16.7278 38.2244C19.5857 40.4471 21.4735 43.9595 24.646 45.6609C27.6873 47.2799 31.4366 46.978 34.5043 48.5422C36.6542 49.6398 38.3584 51.6156 40.5608 52.6309C43.3662 53.9206 47.4302 54.0853 49.7112 56.2257" fill="#FF931E"/>
<path d="M41.0326 19.2897C39.7741 21.1008 37.0473 20.9087 34.1632 20.6892C31.1481 20.4696 27.7134 20.2227 25.5372 22.171C24.8031 22.8296 24.436 23.8449 24.0427 24.9151C23.5446 26.2322 23.0464 27.6043 21.8403 28.4275C20.8702 29.0587 19.5855 29.0312 18.327 29.0038C16.2819 28.9489 14.9972 29.0038 14.6301 30.6502C14.2893 32.2144 14.3942 33.4492 14.9972 34.4096C16.2295 36.3854 19.4806 37.044 22.3385 37.6202C24.5409 38.0593 26.6122 38.4709 27.8445 39.4588C28.7621 40.1997 29.5487 41.1327 30.3091 42.0108C31.0432 42.8615 31.7511 43.6847 32.5901 44.3707C35.0547 46.3739 38.3058 47.1423 41.4521 47.9106H41.4783C45.5422 48.871 48.9769 54.3043 49.1342 54.5513L49.1604 54.5787C49.711 55.6489 50.3665 56.6094 51.2317 56.6917C51.5726 56.7191 51.9659 56.6094 52.3854 56.4722C52.4902 56.4447 52.5951 56.4173 52.7 56.3624C54.8762 55.7313 57.3145 56.1154 59.412 57.46C61.5095 58.8047 62.9778 60.8902 63.3973 63.1952C63.6595 64.677 63.6071 66.2412 63.5284 67.7779C63.4235 70.3299 63.2924 72.7447 64.8131 74.3362C65.4162 74.9674 66.4387 75.3516 67.0417 74.8851C67.5661 74.4734 67.6972 73.6502 67.8021 72.7447C67.8283 72.58 67.8545 72.4154 67.8807 72.2233C68.0118 71.4275 68.4051 70.3847 69.1655 69.8085C69.585 69.5066 70.0831 69.3694 70.5813 69.4792C71.2368 69.6164 71.8398 70.1103 72.2593 70.9336C73.2032 72.7996 73.0459 74.9399 72.8099 76.9706L72.7837 77.1352C72.5739 78.9189 72.338 80.7849 72.941 82.349C73.2818 83.2271 74.016 84.0229 74.855 84.3796C75.2745 84.5443 75.8775 84.7089 76.5067 84.4071C77.9488 83.7485 78.1848 81.5532 77.9226 79.7421C77.6866 78.2054 77.2933 76.6687 76.8738 75.1595C76.2446 72.827 75.5891 70.4122 75.6415 67.9151C75.6677 65.7747 76.1659 63.7166 76.6641 61.7408C77.0311 60.2316 77.4244 58.6675 77.5817 57.1308C78.0799 52.3286 76.2708 47.3069 72.9148 44.014C72.102 43.2182 71.1581 42.4773 70.2667 41.7913C68.3265 40.282 66.3338 38.7179 65.2326 36.3854C64.2625 34.3548 64.1314 32.132 64.0003 29.9368C63.8955 28.0708 63.7906 26.2871 63.1875 24.6681C62.5059 22.8021 61.1687 21.1282 59.884 19.5366C58.3633 17.6432 56.7901 15.6675 56.1871 13.2527C49.6324 12.841 45.3325 13.0606 41.0326 19.2897Z" fill="#FFEFDF"/>
<path d="M56.4231 46.8416C56.2658 37.841 48.0068 30.6789 37.9912 30.871C38.1223 39.899 46.3813 47.0337 56.4231 46.8416Z" fill="#4DC359"/>
<path d="M58.9925 35.9201C62.0864 31.8314 67.4088 31.804 67.671 32.0235C67.9594 32.243 68.5362 37.3196 65.4424 41.4083C62.3486 45.497 56.7639 47.0886 56.5017 46.8416C56.2395 46.5947 55.8987 40.0088 58.9925 35.9201Z" fill="#4DC359"/>
<path d="M29.6539 36.0012C32.3617 36.0012 34.5568 33.7038 34.5568 30.8697C34.5568 28.0357 32.3617 25.7383 29.6539 25.7383C26.9461 25.7383 24.751 28.0357 24.751 30.8697C24.751 33.7038 26.9461 36.0012 29.6539 36.0012Z" fill="#F34337"/>
<path d="M53.8014 31.1438C56.5092 31.1438 58.7043 28.8464 58.7043 26.0123C58.7043 23.1783 56.5092 20.8809 53.8014 20.8809C51.0936 20.8809 48.8984 23.1783 48.8984 26.0123C48.8984 28.8464 51.0936 31.1438 53.8014 31.1438Z" fill="#F34337"/>
<path d="M72.3506 54.0828C72.7844 51.2853 70.9692 48.6494 68.2963 48.1954C65.6234 47.7414 63.105 49.6412 62.6712 52.4386C62.2374 55.2361 64.0525 57.872 66.7254 58.326C69.3983 58.78 71.9168 56.8802 72.3506 54.0828Z" fill="#F34337"/>
<path d="M145.594 63.3868C145.646 63.2222 145.672 63.0849 145.672 62.9477C145.672 62.7557 145.62 62.6185 145.463 62.4812C145.332 62.344 145.174 62.2617 145.017 62.2617H144.204C143.968 62.2617 143.811 62.3166 143.68 62.4538C143.496 62.6185 143.47 62.7282 143.444 62.7831L138.017 81.9918L132.248 63.0301C132.222 62.8654 132.117 62.7008 131.986 62.5361C131.829 62.3715 131.619 62.2892 131.304 62.2892H130.465C130.151 62.2892 129.941 62.3715 129.81 62.5361C129.653 62.7282 129.548 62.8929 129.495 63.0575L123.727 82.0192L118.3 62.838C118.3 62.7831 118.247 62.6733 118.064 62.5087C117.933 62.3989 117.776 62.3166 117.54 62.3166H116.727C116.543 62.3166 116.412 62.3715 116.281 62.5361C116.15 62.6733 116.071 62.838 116.071 63.0026C116.071 63.1398 116.098 63.277 116.15 63.4417L122.154 84.1322C122.285 84.4615 122.442 84.7359 122.6 84.8731C122.757 85.0103 122.993 85.0926 123.334 85.0926H124.068C124.409 85.0926 124.697 85.0103 124.881 84.8731C125.064 84.7359 125.222 84.4615 125.327 84.1322L130.885 65.9388L136.443 84.1047C136.548 84.434 136.706 84.681 136.915 84.8456C137.125 85.0103 137.387 85.0652 137.728 85.0652H138.462C138.803 85.0652 139.065 84.9828 139.223 84.8456C139.38 84.7084 139.537 84.434 139.642 84.1047L145.594 63.3868Z" fill="#3E389F"/>
<path fill-rule="evenodd" clip-rule="evenodd" d="M143.332 62.0938C143.582 61.8417 143.881 61.7617 144.204 61.7617H145.017C145.342 61.7617 145.616 61.9244 145.808 62.1195C145.923 62.2225 146.02 62.3443 146.085 62.4947C146.153 62.651 146.172 62.806 146.172 62.9477C146.172 63.1499 146.133 63.3382 146.072 63.5314L140.121 84.2497L140.118 84.2565C140.001 84.6256 139.807 84.9993 139.551 85.2225C139.268 85.4694 138.868 85.5652 138.462 85.5652H137.728C137.341 85.5652 136.945 85.5044 136.607 85.2389C136.298 84.9964 136.093 84.6532 135.967 84.2565L135.965 84.251L130.885 67.6489L125.803 84.2839C125.686 84.6504 125.488 85.0438 125.18 85.2735C124.883 85.496 124.476 85.5926 124.068 85.5926H123.334C122.916 85.5926 122.548 85.4911 122.271 85.2499C122.019 85.0303 121.826 84.6607 121.69 84.3171L121.681 84.2947L115.671 63.587C115.61 63.3935 115.571 63.2051 115.571 63.0026C115.571 62.686 115.716 62.41 115.904 62.2072C116.001 62.089 116.119 61.9845 116.269 61.9131C116.427 61.8381 116.584 61.8166 116.727 61.8166H117.54C117.916 61.8166 118.183 61.9565 118.385 62.1253L118.391 62.1308L118.398 62.1365C118.511 62.2379 118.602 62.3386 118.669 62.44C118.716 62.5122 118.772 62.6156 118.792 62.7404L123.745 80.2441L129.019 62.9058C129.099 62.653 129.25 62.4312 129.421 62.2217C129.683 61.8952 130.069 61.7892 130.465 61.7892H131.304C131.717 61.7892 132.072 61.9026 132.348 62.1907L132.363 62.207L132.377 62.2247C132.509 62.3901 132.678 62.6276 132.735 62.9121L137.999 80.2155L142.974 62.6061L142.991 62.5712C142.991 62.5703 142.992 62.569 142.993 62.5671L142.994 62.564C142.997 62.5569 143.002 62.5441 143.008 62.5311C143.023 62.4974 143.043 62.4536 143.074 62.4033C143.132 62.3047 143.214 62.2019 143.332 62.0938ZM144.073 62.7764C144.065 62.7793 144.057 62.7826 144.041 62.7992L144.028 62.8131L144.014 62.826C143.956 62.8781 143.937 62.9084 143.932 62.916C143.929 62.9205 143.927 62.9248 143.924 62.9322L143.916 62.9515L138.034 83.768L131.76 63.1427L131.755 63.1087C131.75 63.0826 131.722 63.0109 131.611 62.8685C131.57 62.8303 131.499 62.7892 131.304 62.7892H130.465C130.349 62.7892 130.282 62.8047 130.247 62.8182C130.217 62.8296 130.207 62.8399 130.201 62.8476L130.197 62.853C130.056 63.025 129.997 63.1313 129.973 63.2068L123.71 83.7943L117.817 62.9687C117.803 62.9514 117.778 62.9241 117.737 62.887C117.703 62.8595 117.677 62.8446 117.654 62.8353C117.631 62.8261 117.597 62.8166 117.54 62.8166H116.727C116.713 62.8166 116.704 62.8172 116.699 62.8179C116.694 62.8227 116.685 62.8318 116.672 62.8476L116.658 62.8652L116.643 62.8815C116.575 62.9517 116.571 62.9986 116.571 63.0026C116.571 63.0724 116.584 63.1564 116.626 63.2899L116.63 63.3023L122.627 83.9689C122.75 84.2705 122.867 84.4427 122.928 84.4963C122.966 84.5294 123.07 84.5926 123.334 84.5926H124.068C124.342 84.5926 124.512 84.5245 124.581 84.4726C124.641 84.4281 124.756 84.2735 124.849 83.9831L130.885 64.2288L136.921 83.9556C137.004 84.2158 137.114 84.3658 137.224 84.4523C137.305 84.5161 137.434 84.5652 137.728 84.5652H138.462C138.738 84.5652 138.862 84.4963 138.894 84.4688C138.952 84.418 139.072 84.245 139.164 83.9594L145.115 63.2419L145.117 63.2351C145.16 63.1015 145.172 63.0175 145.172 62.9477C145.172 62.9132 145.169 62.8978 145.168 62.8933C145.168 62.8926 145.167 62.8915 145.165 62.8898C145.162 62.8849 145.153 62.8743 145.134 62.8581L145.117 62.8431L145.101 62.8267C145.069 62.7933 145.043 62.7755 145.026 62.7671C145.019 62.7639 145.015 62.7624 145.013 62.7617H144.204C144.123 62.7617 144.087 62.7714 144.073 62.7764Z" fill="#3E389F"/>
<path d="M165.074 69.4253C165.074 68.5472 164.943 67.6691 164.707 66.7635C164.471 65.8854 164.026 65.0622 163.449 64.3212C162.872 63.6078 162.033 62.9766 160.958 62.5376C159.883 62.0711 158.52 61.8516 156.894 61.8516C155.505 61.8516 154.325 62.0711 153.355 62.4553C152.385 62.8394 151.598 63.3608 150.995 63.9645C150.392 64.5408 149.946 65.1719 149.658 65.7482C149.369 66.3519 149.238 66.8458 149.238 67.23C149.238 67.4495 149.291 67.6416 149.422 67.8063C149.527 67.9435 149.71 68.0258 149.999 68.0258H150.68C150.995 68.0258 151.178 67.8611 151.31 67.5044C151.677 66.4891 152.332 65.6384 153.276 65.0073C154.22 64.3761 155.452 64.0743 156.947 64.0743C158.992 64.0743 160.539 64.5408 161.483 65.5012C162.453 66.4342 162.925 67.7514 162.925 69.3704V71.0992L156.029 72.1145C153.564 72.4712 151.546 73.2396 150.025 74.447C148.53 75.6269 147.77 77.1911 147.77 79.1394C147.77 80.3468 148.111 81.417 148.793 82.3774C149.474 83.3378 150.392 84.1336 151.519 84.7099C152.647 85.2862 153.879 85.588 155.19 85.588C156.632 85.588 157.864 85.3959 158.808 85.0392C159.752 84.6824 160.565 84.216 161.168 83.722C161.771 83.2006 162.243 82.6793 162.584 82.1579L162.951 81.5816V84.3532C162.951 84.6001 163.003 84.7922 163.161 84.9294C163.318 85.0666 163.475 85.1489 163.711 85.1489H164.445C164.681 85.1489 164.865 85.0941 164.996 84.9294C165.127 84.7648 165.206 84.6001 165.206 84.3532L165.074 69.4253ZM162.872 74.8037C162.872 76.6971 162.531 78.3161 161.876 79.551C161.22 80.8133 160.329 81.7737 159.228 82.3774C158.126 82.9811 156.894 83.283 155.557 83.283C154.666 83.283 153.774 83.1183 152.909 82.789C152.044 82.4597 151.336 81.9658 150.759 81.3347C150.182 80.6761 149.894 79.8254 149.894 78.7826C149.894 77.4929 150.523 76.4227 151.782 75.572C152.988 74.7488 154.797 74.1726 157.156 73.8433L162.872 73.02V74.8037Z" fill="#3E389F"/>
<path fill-rule="evenodd" clip-rule="evenodd" d="M153.171 61.9904C154.209 61.5792 155.453 61.3516 156.894 61.3516C158.557 61.3516 159.993 61.5749 161.152 62.0768C162.295 62.5445 163.204 63.2228 163.838 64.0069L163.844 64.014C164.453 64.7969 164.934 65.6793 165.19 66.6337L165.191 66.6374C165.436 67.575 165.574 68.4952 165.574 69.423C165.574 69.4238 165.574 69.4245 165.574 69.4253L165.706 84.3532C165.706 84.7367 165.572 85.008 165.387 85.2409C165.123 85.5725 164.759 85.6489 164.445 85.6489H163.711C163.325 85.6489 163.055 85.5009 162.832 85.3062C162.518 85.0321 162.451 84.6653 162.451 84.3532V83.1561C162.174 83.4749 161.854 83.7895 161.495 84.1003L161.485 84.109C160.834 84.6421 159.972 85.1338 158.985 85.5069C157.968 85.8914 156.671 86.088 155.19 86.088C153.8 86.088 152.49 85.7674 151.292 85.1551C150.095 84.5433 149.115 83.695 148.385 82.6668C147.642 81.6206 147.27 80.449 147.27 79.1394C147.27 77.0399 148.099 75.3308 149.714 74.0551C151.323 72.7776 153.433 71.9851 155.957 71.6197C155.957 71.6197 155.956 71.6198 155.957 71.6197L162.425 70.6674V69.3704C162.425 67.8499 161.984 66.6772 161.136 65.8616L161.126 65.8518C160.319 65.0305 158.934 64.5743 156.947 64.5743C155.515 64.5743 154.39 64.8639 153.554 65.4229C152.699 65.9949 152.111 66.7595 151.78 67.6744L151.779 67.6769C151.698 67.8956 151.581 68.1165 151.386 68.281C151.178 68.4564 150.933 68.5258 150.68 68.5258H149.999C149.621 68.5258 149.261 68.4158 149.028 68.114C148.813 67.8418 148.738 67.5328 148.738 67.23C148.738 66.7414 148.902 66.1702 149.207 65.5326L149.211 65.5244C149.524 64.8981 150.003 64.222 150.645 63.607C151.3 62.9528 152.144 62.3968 153.171 61.9904ZM162.164 81.8866L163.451 79.866V84.3532C163.451 84.4445 163.461 84.4948 163.47 84.521C163.477 84.5404 163.482 84.5463 163.489 84.5526C163.543 84.5999 163.578 84.6202 163.602 84.6307C163.624 84.6398 163.655 84.6489 163.711 84.6489H164.445C164.528 84.6489 164.568 84.6389 164.585 84.6326C164.592 84.6299 164.595 84.6279 164.596 84.6273C164.596 84.6271 164.597 84.6265 164.598 84.6252C164.6 84.6238 164.602 84.6215 164.605 84.618C164.681 84.5221 164.705 84.4641 164.706 84.3549C164.706 84.3543 164.706 84.3537 164.706 84.3532L164.575 69.4297L164.574 69.4253C164.574 68.5982 164.451 67.7636 164.224 66.8915C164.009 66.0918 163.6 65.3295 163.057 64.6321C162.538 63.9918 161.772 63.4101 160.769 63.0005L160.759 62.9964C159.769 62.5668 158.481 62.3516 156.894 62.3516C155.556 62.3516 154.441 62.563 153.539 62.9201C152.627 63.2813 151.899 63.7665 151.349 64.3179L151.34 64.3261C150.781 64.8612 150.37 65.444 150.107 65.9679C149.836 66.5356 149.738 66.9509 149.738 67.23C149.738 67.3649 149.768 67.4386 149.813 67.4948L149.816 67.4981C149.818 67.4991 149.821 67.5007 149.826 67.5028C149.848 67.5114 149.9 67.5258 149.999 67.5258H150.68C150.715 67.5258 150.732 67.5212 150.736 67.5198C150.739 67.5189 150.739 67.5186 150.741 67.5168C150.75 67.5097 150.789 67.4701 150.84 67.3331C151.243 66.2179 151.966 65.2817 152.998 64.5916C154.05 63.8884 155.389 63.5743 156.947 63.5743C159.046 63.5743 160.753 64.0497 161.834 65.1457C162.923 66.1957 163.425 67.6555 163.425 69.3704V71.5309L156.102 72.6092L156.101 72.6093C153.695 72.9575 151.768 73.7015 150.336 74.8385L150.335 74.8394C148.962 75.9236 148.27 77.3425 148.27 79.1394C148.27 80.2446 148.579 81.2134 149.2 82.088C149.834 82.9807 150.689 83.7239 151.747 84.2647C152.804 84.8049 153.958 85.088 155.19 85.088C156.593 85.088 157.761 84.9004 158.631 84.5715C159.529 84.2321 160.291 83.7927 160.846 83.3394C161.42 82.8428 161.855 82.3578 162.164 81.8866ZM163.372 72.4429V74.8037C163.372 76.7506 163.023 78.4559 162.319 79.7834C161.625 81.1183 160.669 82.1576 159.468 82.8158C158.288 83.463 156.972 83.783 155.557 83.783C154.603 83.783 153.652 83.6067 152.731 83.2563C151.792 82.8989 151.019 82.3601 150.39 81.672L150.383 81.6642C149.711 80.8976 149.394 79.9222 149.394 78.7826C149.394 77.2958 150.133 76.0829 151.501 75.1584C152.799 74.2725 154.696 73.6819 157.086 73.3482C157.087 73.3482 157.086 73.3482 157.086 73.3482L163.372 72.4429ZM162.372 73.5972L157.228 74.3382L157.226 74.3385C154.898 74.6633 153.177 75.2249 152.063 75.985L152.062 75.9863C150.912 76.763 150.394 77.6903 150.394 78.7826C150.394 79.7263 150.652 80.4512 151.132 81.0013C151.656 81.5736 152.297 82.0213 153.087 82.3217C153.897 82.6299 154.728 82.783 155.557 82.783C156.817 82.783 157.965 82.4993 158.987 81.939C159.988 81.3902 160.815 80.5093 161.432 79.3206L161.434 79.3166C162.04 78.1747 162.372 76.6427 162.372 74.8037V73.5972Z" fill="#3E389F"/>
<path d="M172.835 54.579C172.835 54.332 172.783 54.1399 172.626 54.0027C172.495 53.8655 172.311 53.7832 172.075 53.7832H171.341C171.105 53.7832 170.921 53.8381 170.79 54.0027C170.659 54.1399 170.581 54.332 170.581 54.579V84.2701C170.581 84.5171 170.633 84.7092 170.79 84.8464C170.921 84.9836 171.105 85.0659 171.341 85.0659H172.075C172.311 85.0659 172.495 85.011 172.626 84.8464C172.757 84.6817 172.835 84.5171 172.835 84.2701V54.579Z" fill="#3E389F"/>
<path fill-rule="evenodd" clip-rule="evenodd" d="M170.414 53.6735C170.676 53.3569 171.032 53.2832 171.341 53.2832H172.075C172.429 53.2832 172.741 53.4084 172.972 53.6413C173.271 53.9137 173.335 54.2727 173.335 54.579V84.2701C173.335 84.6537 173.202 84.925 173.017 85.1578C172.753 85.4895 172.389 85.5659 172.075 85.5659H171.341C170.987 85.5659 170.675 85.4407 170.444 85.2078C170.145 84.9355 170.081 84.5765 170.081 84.2701V54.579C170.081 54.2277 170.193 53.913 170.414 53.6735ZM171.191 54.3048C171.19 54.3053 171.187 54.3075 171.181 54.3142L171.167 54.3318L171.152 54.3481C171.12 54.3811 171.081 54.4443 171.081 54.579V84.2701C171.081 84.3615 171.091 84.4118 171.1 84.4379C171.106 84.4574 171.112 84.4632 171.119 84.4696L171.136 84.4845L171.152 84.501C171.182 84.5322 171.231 84.5659 171.341 84.5659H172.075C172.157 84.5659 172.198 84.5559 172.215 84.5495C172.222 84.5468 172.225 84.5449 172.225 84.5443C172.226 84.5438 172.229 84.5416 172.234 84.5349C172.311 84.4385 172.335 84.3805 172.335 84.2701V54.579C172.335 54.4876 172.325 54.4373 172.316 54.4112C172.31 54.3917 172.304 54.3859 172.297 54.3795L172.28 54.3646L172.264 54.3481C172.234 54.3169 172.185 54.2832 172.075 54.2832H171.341C171.259 54.2832 171.218 54.2933 171.201 54.2996C171.194 54.3023 171.191 54.3043 171.191 54.3048Z" fill="#3E389F"/>
<path d="M180.701 54.579C180.701 54.332 180.649 54.1399 180.491 54.0027C180.36 53.8655 180.177 53.7832 179.941 53.7832H179.207C178.971 53.7832 178.787 53.8381 178.656 54.0027C178.525 54.1399 178.446 54.332 178.446 54.579V84.2701C178.446 84.5171 178.499 84.7092 178.656 84.8464C178.787 84.9836 178.971 85.0659 179.207 85.0659H179.941C180.177 85.0659 180.36 85.011 180.491 84.8464C180.622 84.6817 180.701 84.5171 180.701 84.2701V54.579Z" fill="#3E389F"/>
<path fill-rule="evenodd" clip-rule="evenodd" d="M178.279 53.6735C178.542 53.3569 178.898 53.2832 179.207 53.2832H179.941C180.295 53.2832 180.606 53.4084 180.837 53.6413C181.137 53.9137 181.201 54.2727 181.201 54.579V84.2701C181.201 84.6537 181.068 84.925 180.883 85.1578C180.618 85.4895 180.255 85.5659 179.941 85.5659H179.207C178.852 85.5659 178.541 85.4407 178.31 85.2078C178.011 84.9355 177.946 84.5765 177.946 84.2701V54.579C177.946 54.2277 178.059 53.913 178.279 53.6735ZM179.056 54.3048C179.056 54.3053 179.053 54.3075 179.047 54.3142L179.033 54.3318L179.018 54.3481C178.986 54.3811 178.946 54.4443 178.946 54.579V84.2701C178.946 84.3615 178.956 84.4118 178.965 84.4379C178.972 84.4574 178.977 84.4632 178.985 84.4696L179.002 84.4845L179.018 84.501C179.047 84.5322 179.097 84.5659 179.207 84.5659H179.941C180.023 84.5659 180.063 84.5559 180.08 84.5495C180.088 84.5468 180.09 84.5449 180.091 84.5443C180.092 84.5438 180.095 84.5416 180.1 84.5349C180.177 84.4385 180.201 84.3805 180.201 84.2701V54.579C180.201 54.4876 180.191 54.4373 180.182 54.4112C180.175 54.3917 180.17 54.3859 180.163 54.3795L180.146 54.3646L180.13 54.3481C180.1 54.3169 180.05 54.2832 179.941 54.2832H179.207C179.124 54.2832 179.084 54.2933 179.067 54.2996C179.06 54.3023 179.057 54.3043 179.056 54.3048Z" fill="#3E389F"/>
<path d="M203.747 73.1298C203.747 70.7973 203.38 68.7667 202.646 67.0653C201.912 65.3914 200.863 64.0743 199.5 63.1962C198.136 62.2906 196.484 61.8516 194.544 61.8516C192.735 61.8516 191.162 62.2906 189.851 63.1138C188.54 63.9645 187.491 65.1445 186.757 66.6537C185.997 68.163 185.551 69.9467 185.42 71.9224C185.394 72.3615 185.368 72.9652 185.368 73.6786C185.368 74.3921 185.368 75.0232 185.42 75.4623C185.63 78.4534 186.548 80.923 188.147 82.7616C189.72 84.6001 191.87 85.5331 194.571 85.5331C195.881 85.5331 197.061 85.341 198.136 84.9569C199.185 84.5727 200.103 84.1062 200.837 83.5299C201.571 82.9537 202.148 82.35 202.541 81.7737C202.934 81.1974 203.144 80.7035 203.17 80.3468C203.197 80.1272 203.144 79.99 203.013 79.8803C202.856 79.7431 202.698 79.6882 202.489 79.6882H201.807C201.466 79.6882 201.283 79.7431 201.204 79.7705C201.151 79.798 200.994 79.9352 200.68 80.4017C200.522 80.6486 200.208 81.0054 199.709 81.4719C199.211 81.9384 198.53 82.3774 197.717 82.789C196.878 83.2006 195.829 83.3927 194.597 83.3927C193.207 83.3927 191.975 83.0086 190.952 82.2128C189.93 81.4444 189.143 80.4291 188.593 79.1943C188.042 77.9594 187.727 76.6697 187.675 75.2976V74.6391H203.039C203.275 74.6391 203.459 74.5842 203.616 74.4195C203.747 74.2823 203.826 74.0902 203.826 73.8707L203.747 73.1298ZM201.545 72.4712H187.596V72.087C187.596 70.5778 187.858 69.2057 188.409 67.9983C188.933 66.7909 189.746 65.8031 190.769 65.0896C191.818 64.3761 193.076 64.0194 194.518 64.0194C195.96 64.0194 197.245 64.3761 198.294 65.0896C199.342 65.8031 200.155 66.7909 200.706 67.9983C201.256 69.2057 201.545 70.5778 201.545 72.087V72.4712Z" fill="#3E389F"/>
<path fill-rule="evenodd" clip-rule="evenodd" d="M189.585 62.6904C190.985 61.8117 192.652 61.3516 194.544 61.3516C196.56 61.3516 198.312 61.8083 199.773 62.7777C201.232 63.7184 202.338 65.119 203.104 66.8645L203.105 66.8672C203.869 68.6388 204.244 70.731 204.247 73.1032L204.326 73.8442V73.8707C204.326 74.2116 204.202 74.5295 203.978 74.7649C203.699 75.0565 203.367 75.1391 203.039 75.1391H188.175V75.288C188.226 76.5898 188.525 77.814 189.049 78.9906C189.568 80.1546 190.304 81.1 191.253 81.813L191.259 81.8181C192.183 82.5371 193.304 82.8927 194.597 82.8927C195.781 82.8927 196.746 82.7077 197.494 82.3415C198.283 81.9418 198.918 81.5283 199.368 81.1069C199.858 80.6476 200.135 80.3255 200.258 80.133L200.265 80.122C200.43 79.8769 200.562 79.7071 200.666 79.5896C200.759 79.4853 200.861 79.3857 200.972 79.3275L201.005 79.3105L201.039 79.2984C201.168 79.2536 201.407 79.1882 201.807 79.1882H202.489C202.81 79.1882 203.085 79.2808 203.338 79.5002C203.459 79.6026 203.563 79.7355 203.623 79.9083C203.68 80.0727 203.686 80.239 203.668 80.3947C203.629 80.8817 203.36 81.4603 202.954 82.0556C202.526 82.6827 201.911 83.3225 201.146 83.9232C200.357 84.5419 199.388 85.0307 198.308 85.4264L198.305 85.4277C197.169 85.8336 195.931 86.0331 194.571 86.0331C191.742 86.0331 189.447 85.0496 187.768 83.0881C186.085 81.1523 185.139 78.5759 184.922 75.5092C184.868 75.0412 184.868 74.3922 184.868 73.7094L184.868 73.6786C184.868 72.953 184.894 72.3391 184.921 71.8926L184.921 71.8893C185.056 69.8615 185.514 68.0112 186.309 66.4319C187.082 64.8446 188.191 63.5954 189.579 62.6944L189.585 62.6904ZM190.12 63.5353C188.889 64.335 187.902 65.4439 187.207 66.8724L187.204 66.8787C186.479 68.3168 186.047 70.0322 185.919 71.9539C185.893 72.3853 185.868 72.9782 185.868 73.6786C185.868 74.4054 185.869 75.0007 185.917 75.403L185.918 75.4151L185.919 75.4273C186.123 78.3366 187.012 80.6948 188.524 82.4334L188.527 82.4365C189.994 84.1512 191.998 85.0331 194.571 85.0331C195.831 85.0331 196.952 84.8487 197.966 84.4867C198.983 84.1142 199.848 83.6701 200.528 83.1366C201.231 82.5848 201.77 82.0172 202.128 81.4919C202.505 80.9392 202.655 80.5343 202.672 80.3101L202.672 80.2988L202.674 80.2875C202.676 80.2718 202.677 80.2597 202.677 80.2506C202.621 80.2031 202.581 80.1882 202.489 80.1882H201.807C201.629 80.1882 201.512 80.206 201.443 80.2216C201.435 80.2303 201.425 80.2408 201.414 80.2533C201.348 80.3273 201.245 80.4578 201.097 80.6763C200.904 80.977 200.554 81.3663 200.051 81.8368C199.505 82.3479 198.778 82.812 197.943 83.2351L197.937 83.238C197.007 83.6941 195.876 83.8927 194.597 83.8927C193.112 83.8927 191.769 83.4808 190.649 82.6099C189.554 81.7866 188.718 80.7022 188.136 79.3979C187.561 78.1076 187.23 76.7555 187.175 75.3167L187.175 75.3072V74.1391H203.039C203.12 74.1391 203.163 74.1294 203.187 74.1207C203.207 74.1137 203.227 74.1029 203.255 74.0741C203.289 74.038 203.321 73.9786 203.325 73.892L203.247 73.1563V73.1298C203.247 70.8486 202.888 68.8891 202.187 67.2648C201.485 65.6644 200.495 64.4319 199.229 63.6165L199.223 63.6127C197.958 62.7724 196.408 62.3516 194.544 62.3516C192.82 62.3516 191.342 62.7688 190.12 63.5353ZM191.052 65.5013C190.108 66.1608 189.355 67.0745 188.868 68.1975L188.864 68.2058C188.362 69.3064 188.11 70.5663 188.097 71.9712H201.044C201.03 70.5726 200.755 69.3114 200.251 68.2058C199.735 67.0757 198.98 66.1615 198.012 65.503C197.06 64.855 195.877 64.5194 194.518 64.5194C193.162 64.5194 192.006 64.8534 191.052 65.5013ZM190.488 64.6762C191.631 63.8983 192.991 63.5194 194.518 63.5194C196.043 63.5194 197.43 63.8973 198.575 64.6762C199.704 65.4447 200.575 66.5062 201.161 67.7909C201.744 69.0697 202.045 70.5134 202.045 72.087V72.9712H187.096V72.087C187.096 70.5218 187.368 69.0781 187.952 67.795C188.513 66.5061 189.384 65.4461 190.483 64.6795L190.488 64.6762Z" fill="#3E389F"/>
<path d="M218.64 83.6392C218.64 83.3922 218.587 83.2001 218.43 83.0629C218.299 82.9257 218.115 82.8434 217.879 82.8434H215.572C214.235 82.8434 213.265 82.3495 212.74 81.4165C212.216 80.4835 211.954 79.2212 211.954 77.6022V64.4305H217.434C217.669 64.4305 217.853 64.3756 217.984 64.211C218.115 64.0463 218.194 63.8817 218.194 63.6347V63.0036C218.194 62.7566 218.141 62.5645 217.984 62.4273C217.853 62.2901 217.669 62.2078 217.434 62.2078H211.954V54.5243C211.954 54.2773 211.901 54.0852 211.744 53.948C211.613 53.8108 211.429 53.7285 211.193 53.7285H210.538C210.302 53.7285 210.118 53.7834 209.987 53.948C209.856 54.0852 209.778 54.2773 209.778 54.5243V62.2078H206.264C206.028 62.2078 205.845 62.2627 205.714 62.4273C205.583 62.5919 205.504 62.7566 205.504 63.0036V63.6347C205.504 63.8817 205.556 64.0738 205.714 64.211C205.871 64.3482 206.028 64.4305 206.264 64.4305H209.778V77.7942C209.778 79.1663 209.935 80.4286 210.276 81.5262C210.59 82.5964 211.193 83.4745 211.98 84.1057C212.793 84.7368 213.92 85.0387 215.362 85.0387H217.879C218.115 85.0387 218.299 84.9838 218.43 84.8191C218.561 84.6545 218.64 84.4898 218.64 84.2429V83.6392Z" fill="#3E389F"/>
<path fill-rule="evenodd" clip-rule="evenodd" d="M209.611 53.6189C209.873 53.3022 210.229 53.2285 210.538 53.2285H211.193C211.548 53.2285 211.859 53.3537 212.09 53.5866C212.389 53.859 212.454 54.218 212.454 54.5243V61.7078H217.434C217.788 61.7078 218.099 61.833 218.33 62.0659C218.63 62.3383 218.694 62.6973 218.694 63.0036V63.6347C218.694 64.0183 218.561 64.2896 218.375 64.5224C218.111 64.8541 217.748 64.9305 217.434 64.9305H212.454V77.6022C212.454 79.175 212.71 80.3416 213.176 81.1715C213.59 81.9077 214.366 82.3434 215.572 82.3434H217.879C218.233 82.3434 218.545 82.4686 218.776 82.7015C219.075 82.9738 219.14 83.3328 219.14 83.6392V84.2429C219.14 84.6265 219.006 84.8977 218.821 85.1306C218.557 85.4622 218.193 85.5387 217.879 85.5387H215.362C213.857 85.5387 212.606 85.2245 211.673 84.5006L211.667 84.4957C210.801 83.8005 210.141 82.8364 209.797 81.671C209.438 80.5141 209.278 79.2007 209.278 77.7942V64.9305H206.264C205.878 64.9305 205.608 64.7824 205.385 64.5878C205.071 64.3136 205.004 63.9468 205.004 63.6347V63.0036C205.004 62.62 205.137 62.3487 205.322 62.1159C205.587 61.7842 205.95 61.7078 206.264 61.7078H209.278V54.5243C209.278 54.173 209.39 53.8584 209.611 53.6189ZM210.388 54.2501C210.387 54.2506 210.384 54.2528 210.379 54.2595L210.364 54.2771L210.349 54.2935C210.317 54.3264 210.278 54.3896 210.278 54.5243V62.7078H206.264C206.182 62.7078 206.142 62.7178 206.125 62.7241C206.117 62.7269 206.115 62.7288 206.114 62.7294C206.113 62.7299 206.11 62.7321 206.105 62.7387C206.028 62.8352 206.004 62.8932 206.004 63.0036V63.6347C206.004 63.7261 206.014 63.7764 206.023 63.8025C206.03 63.822 206.035 63.8278 206.042 63.8342C206.097 63.8815 206.131 63.9017 206.156 63.9122C206.177 63.9214 206.208 63.9305 206.264 63.9305H210.278V77.7942C210.278 79.1304 210.431 80.3404 210.753 81.3779L210.756 81.3852C211.041 82.3571 211.585 83.147 212.29 83.7132C212.983 84.25 213.985 84.5387 215.362 84.5387H217.879C217.962 84.5387 218.002 84.5286 218.019 84.5223C218.026 84.5196 218.029 84.5176 218.03 84.517C218.03 84.5165 218.033 84.5144 218.039 84.5077C218.115 84.4112 218.14 84.3532 218.14 84.2429V83.6392C218.14 83.5478 218.129 83.4975 218.12 83.4714C218.114 83.4519 218.108 83.4461 218.101 83.4397L218.084 83.4248L218.068 83.4083C218.038 83.3771 217.989 83.3434 217.879 83.3434H215.572C214.104 83.3434 212.939 82.7912 212.304 81.6614C211.722 80.6254 211.454 79.2674 211.454 77.6022V63.9305H217.434C217.516 63.9305 217.556 63.9204 217.573 63.9141C217.58 63.9114 217.583 63.9094 217.584 63.9089C217.585 63.9084 217.588 63.9062 217.593 63.8995C217.67 63.8031 217.694 63.7451 217.694 63.6347V63.0036C217.694 62.9122 217.684 62.8619 217.675 62.8357C217.668 62.8163 217.663 62.8104 217.655 62.8041L217.638 62.7892L217.623 62.7727C217.593 62.7415 217.543 62.7078 217.434 62.7078H211.454V54.5243C211.454 54.433 211.444 54.3827 211.435 54.3565C211.428 54.337 211.423 54.3312 211.415 54.3249L211.398 54.3099L211.382 54.2935C211.353 54.2622 211.303 54.2285 211.193 54.2285H210.538C210.456 54.2285 210.415 54.2386 210.398 54.2449C210.391 54.2476 210.388 54.2496 210.388 54.2501Z" fill="#3E389F"/>
<path d="M124.828 3.59509C122.547 2.60722 119.847 2.11328 116.753 2.11328H101.126C100.707 2.11328 100.392 2.25049 100.13 2.5249C99.8679 2.79931 99.7368 3.15604 99.7368 3.56765V38.6372V38.6646V41.5185V41.546C99.7368 42.5338 100.523 43.3571 101.467 43.3571C102.411 43.3571 103.198 42.5338 103.198 41.546V41.5185V41.546C103.198 42.5338 103.984 43.3571 104.928 43.3571C105.872 43.3571 106.659 42.5338 106.659 41.546V41.5185V41.546C106.659 42.5338 107.445 43.3571 108.389 43.3571C109.333 43.3571 110.12 42.5338 110.12 41.546V41.5185V35.1248V28.7859H116.779C119.873 28.7859 122.547 28.3194 124.855 27.3864C127.162 26.4534 128.918 24.9991 130.229 23.0507C131.514 21.1024 132.17 18.6327 132.17 15.6417C132.17 12.6506 131.514 10.0986 130.229 8.09541C128.945 6.09222 127.109 4.58297 124.828 3.59509ZM120.319 19.4011C119.375 20.2518 118.09 20.6908 116.491 20.6908H109.962V10.2084H116.491C118.352 10.2084 119.689 10.7023 120.502 11.7176C121.315 12.7329 121.734 13.9678 121.734 15.4496C121.734 17.2333 121.263 18.5504 120.319 19.4011Z" fill="#3E389F"/>
<path d="M143.103 0.136719H136.522C136.129 0.136719 135.788 0.273924 135.526 0.575774C135.263 0.877625 135.132 1.20692 135.132 1.64597V6.80487C135.132 6.83231 135.132 6.83231 135.132 6.85976V8.28669V8.31413C135.132 9.21968 135.84 9.96059 136.705 9.96059C137.571 9.96059 138.279 9.21968 138.279 8.31413V8.28669V8.31413C138.279 9.21968 138.987 9.96059 139.852 9.96059C140.717 9.96059 141.425 9.21968 141.425 8.31413V8.28669V8.31413C141.425 9.21968 142.133 9.96059 142.998 9.96059C143.863 9.96059 144.571 9.21968 144.571 8.31413V8.28669V6.85976V6.83231V1.64597C144.571 1.23436 144.44 0.877625 144.152 0.575774C143.837 0.273924 143.496 0.136719 143.103 0.136719Z" fill="#3E389F"/>
<path d="M235 35.9745V23.5163C235 21.815 234.738 20.2234 234.214 18.7965C233.689 17.3695 232.903 16.1347 231.854 15.0919C230.805 14.0492 229.416 13.226 227.685 12.6223C225.981 12.046 223.91 11.7441 221.471 11.7441C219.033 11.7441 217.198 12.046 215.546 12.6223C213.92 13.1985 212.557 13.9394 211.534 14.845C210.486 15.7505 209.725 16.6561 209.227 17.5616C208.414 18.9886 208.467 20.4429 208.467 21.2662C208.467 22.0894 209.122 22.7754 209.909 22.7754C210.695 22.7754 211.351 22.0894 211.351 21.2662C211.351 22.1168 212.006 22.7754 212.793 22.7754C213.579 22.7754 214.235 22.0894 214.235 21.2662C214.235 22.1168 214.89 22.7754 215.677 22.7754C216.464 22.7754 216.962 22.0894 217.119 21.2662C217.434 19.5374 218.063 18.0281 221.393 18.1104C222.887 18.1379 223.91 18.4672 224.46 19.2355C225.011 19.9764 225.299 21.0466 225.299 22.4461V23.2693L218.325 24.3944C214.759 24.9707 211.875 26.0683 209.725 27.6873C207.575 29.3064 206.474 31.5016 206.474 34.2732C206.474 36.002 206.946 37.5386 207.864 38.8833C208.781 40.2553 210.04 41.3255 211.639 42.1213C213.212 42.9171 215.021 43.3287 217.04 43.3287C218.482 43.3287 219.767 43.1366 220.868 42.7799C221.969 42.3957 222.913 41.9018 223.752 41.2981C224.565 40.6669 225.221 39.9809 225.719 39.24V39.6242C225.719 39.6516 225.719 39.679 225.719 39.7065V41.7097V41.7371C225.719 42.6427 226.4 43.3561 227.266 43.3561C228.131 43.3561 228.813 42.6427 228.813 41.7371V41.7097V41.7371C228.813 42.6427 229.494 43.3561 230.36 43.3561C231.225 43.3561 231.906 42.6427 231.906 41.7371V41.7097V41.7371C231.906 42.6427 232.588 43.3561 233.453 43.3561C234.319 43.3561 235 42.6427 235 41.7371V41.7097V35.9745ZM225.457 29.7729C225.457 31.337 225.194 32.6267 224.696 33.6695C224.198 34.7122 223.516 35.4531 222.625 35.9471C221.76 36.441 220.763 36.688 219.688 36.688C218.954 36.688 218.273 36.5508 217.67 36.3038C217.067 36.0568 216.595 35.7001 216.228 35.2336C215.86 34.7671 215.677 34.1909 215.677 33.5323C215.677 32.6816 216.07 31.9132 216.883 31.2821C217.67 30.651 218.954 30.157 220.711 29.8552L225.457 28.9771V29.7729Z" fill="#3E389F"/>
<path d="M142.946 12.623C142.081 12.623 141.373 13.364 141.373 14.2695V14.2969V14.2695C141.373 13.364 140.665 12.623 139.799 12.623C138.934 12.623 138.226 13.364 138.226 14.2695V14.2969V14.2695C138.226 13.364 137.518 12.623 136.653 12.623C135.788 12.623 135.08 13.364 135.08 14.2695V14.2969V41.683V41.7105C135.08 42.616 135.788 43.3569 136.653 43.3569C137.518 43.3569 138.226 42.616 138.226 41.7105V41.683V41.7105C138.226 42.616 138.934 43.3569 139.799 43.3569C140.665 43.3569 141.373 42.616 141.373 41.7105V41.683V41.7105C141.373 42.616 142.081 43.3569 142.946 43.3569C143.811 43.3569 144.519 42.616 144.519 41.7105V41.683V14.2695V14.2421C144.519 13.3365 143.811 12.623 142.946 12.623Z" fill="#3E389F"/>
<path d="M175.431 37.0443C175.431 36.3583 174.907 35.7821 174.225 35.7821C174.225 35.7821 174.225 35.7821 174.199 35.7821H171.21H171.184H160.014L172.757 21.1286C172.966 20.8542 173.176 20.5798 173.307 20.3054C173.465 20.0309 173.517 19.7291 173.517 19.3724V14.4055C173.517 13.9665 173.386 13.6372 173.097 13.3628C172.809 13.0884 172.494 12.9512 172.127 12.9512H149.186C149.186 12.9512 149.186 12.9512 149.16 12.9512C148.504 12.9512 147.954 13.5 147.954 14.2135C147.954 14.9269 148.478 15.4757 149.16 15.4757C149.16 15.4757 149.16 15.4757 149.186 15.4757C149.186 15.4757 149.186 15.4757 149.16 15.4757C148.504 15.4757 147.954 16.0246 147.954 16.738C147.954 17.4515 148.478 18.0003 149.16 18.0003C149.16 18.0003 149.16 18.0003 149.186 18.0003C149.186 18.0003 149.186 18.0003 149.16 18.0003C148.504 18.0003 147.954 18.5766 147.954 19.2626C147.954 19.9486 148.478 20.5249 149.16 20.5249C149.16 20.5249 149.16 20.5249 149.186 20.5249H151.598H151.624H161.745L148.688 35.3704C148.425 35.6449 148.216 35.9467 148.032 36.2486C147.875 36.5504 147.77 36.9346 147.77 37.3736V41.9288C147.77 42.3679 147.901 42.6972 148.19 42.9716C148.478 43.246 148.793 43.3832 149.16 43.3832H174.199C174.199 43.3832 174.199 43.3832 174.225 43.3832C174.88 43.3832 175.431 42.8069 175.431 42.1209C175.431 41.4349 174.907 40.8586 174.225 40.8586C174.225 40.8586 174.225 40.8586 174.199 40.8586C174.199 40.8586 174.199 40.8586 174.225 40.8586C174.88 40.8586 175.431 40.2824 175.431 39.5964C175.431 38.9103 174.907 38.3341 174.225 38.3341C174.225 38.3341 174.225 38.3341 174.199 38.3341C174.199 38.3341 174.199 38.3341 174.225 38.3341C174.907 38.3066 175.431 37.7578 175.431 37.0443Z" fill="#3E389F"/>
<path d="M205.399 37.0443C205.399 36.3583 204.875 35.7821 204.193 35.7821C204.193 35.7821 204.193 35.7821 204.167 35.7821H201.152H201.125H189.956L202.699 21.1286C202.908 20.8542 203.118 20.5798 203.249 20.3054C203.406 20.0309 203.459 19.7291 203.459 19.3724V14.4055C203.459 13.9665 203.328 13.6372 203.039 13.3628C202.751 13.0884 202.436 12.9512 202.069 12.9512H179.128C179.128 12.9512 179.128 12.9512 179.102 12.9512C178.446 12.9512 177.895 13.5 177.895 14.2135C177.895 14.9269 178.42 15.4757 179.102 15.4757C179.102 15.4757 179.102 15.4757 179.128 15.4757C179.128 15.4757 179.128 15.4757 179.102 15.4757C178.446 15.4757 177.895 16.0246 177.895 16.738C177.895 17.4515 178.42 18.0003 179.102 18.0003C179.102 18.0003 179.102 18.0003 179.128 18.0003C179.128 18.0003 179.128 18.0003 179.102 18.0003C178.446 18.0003 177.895 18.5766 177.895 19.2626C177.895 19.9486 178.42 20.5249 179.102 20.5249C179.102 20.5249 179.102 20.5249 179.128 20.5249H181.54H181.566H191.687L178.63 35.3704C178.367 35.6449 178.158 35.9467 177.974 36.2486C177.817 36.5504 177.712 36.9346 177.712 37.3736V41.9288C177.712 42.3679 177.843 42.6972 178.131 42.9716C178.42 43.246 178.734 43.3832 179.102 43.3832H204.141C204.141 43.3832 204.141 43.3832 204.167 43.3832C204.822 43.3832 205.373 42.8069 205.373 42.1209C205.373 41.4349 204.848 40.8586 204.167 40.8586C204.167 40.8586 204.167 40.8586 204.141 40.8586C204.141 40.8586 204.141 40.8586 204.167 40.8586C204.822 40.8586 205.373 40.2824 205.373 39.5964C205.373 38.9103 204.848 38.3341 204.167 38.3341C204.167 38.3341 204.167 38.3341 204.141 38.3341C204.141 38.3341 204.141 38.3341 204.167 38.3341C204.848 38.3066 205.399 37.7578 205.399 37.0443Z" fill="#3E389F"/>
<path d="M11.7201 36.469C13.3981 37.2374 14.9712 37.9783 16.3346 39.0485C17.462 39.9266 18.4583 41.0517 19.4284 42.1493C20.8705 43.7683 22.3387 45.4422 24.3051 46.485C25.9569 47.3631 27.766 47.7198 29.5227 48.0491C31.1483 48.351 32.6952 48.6528 34.0848 49.3663C35.0287 49.8328 35.8677 50.5188 36.7853 51.2048C37.8079 52.0006 38.8828 52.8513 40.1413 53.4001C41.2425 53.8941 42.501 54.2508 43.7333 54.5526C45.6735 55.074 47.6662 55.5954 48.8722 56.7205C49.5539 57.5986 50.3667 58.0925 51.2319 58.1474C51.8874 58.2023 52.4642 58.0102 52.9624 57.8456C53.0673 57.8181 53.1459 57.7907 53.2508 57.7632C54.9812 57.2419 56.9477 57.5986 58.6781 58.6962C60.3823 59.7939 61.5622 61.4952 61.903 63.3337C62.139 64.6235 62.0603 66.0778 62.0079 67.5048C61.8768 70.2763 61.7457 73.1576 63.7384 75.2706C64.7871 76.3682 66.6224 76.9993 67.9596 75.984C69.0346 75.1882 69.1919 73.8985 69.3492 72.746C69.3754 72.5814 69.4016 72.4167 69.4016 72.2795C69.4803 71.7307 69.7687 71.1544 70.0571 70.9349C70.162 70.8526 70.2144 70.8526 70.2669 70.88C70.3979 70.9075 70.6077 71.0721 70.8175 71.5112C71.5516 72.9381 71.3943 74.8041 71.1845 76.5603L71.1583 76.7249C70.9223 78.7007 70.6864 80.7588 71.4205 82.7345C71.9186 84.0242 72.9674 85.1493 74.1735 85.6433C74.6716 85.8628 75.1698 85.9451 75.6417 85.9451C76.1137 85.9451 76.5856 85.8353 77.0313 85.6433C79.2599 84.6005 79.6794 81.6643 79.3386 79.2769C79.1026 77.6579 78.6831 76.0664 78.2636 74.5297C77.6344 72.2246 77.0575 70.0293 77.0838 67.7792C77.11 65.8583 77.5557 63.9923 78.0539 61.9891C78.4472 60.425 78.8404 58.8334 78.9977 57.1595C79.5221 51.8909 77.5819 46.3752 73.8851 42.7256C73.0198 41.8749 72.076 41.134 71.1321 40.3931C70.0309 39.5424 69.0083 38.7192 68.1169 37.7588C68.6413 36.1946 68.9559 34.5207 68.9559 32.7919V30.9534C68.9297 30.7888 68.851 30.6241 68.7199 30.5143C68.5888 30.4046 68.4315 30.3497 68.248 30.3771L67.9334 30.4046C67.1468 30.5143 66.3602 30.679 65.5999 30.926C65.5737 30.5418 65.5475 30.1576 65.5212 29.8009C65.4164 27.9074 65.2853 25.9317 64.6298 24.0657C63.8694 21.9253 62.4536 20.1691 61.0902 18.4678C59.4909 16.4646 57.9702 14.5711 57.6556 12.2661V12.1563C58.9403 5.5705 55.0599 2.90873 52.9624 1.45435C50.1832 -0.439072 46.4077 -0.548836 43.5498 1.20739C42.501 1.83853 41.6358 2.6892 40.7706 3.48499C39.8005 4.39054 38.8828 5.26865 37.8079 5.79003C35.8677 6.72302 33.4555 6.55838 31.0958 6.36629C27.9758 6.11932 24.7246 5.87235 22.2863 8.17739C21.5784 8.86342 21.054 9.65921 20.5296 10.4276C20.0315 11.1959 19.5333 11.9368 18.9303 12.4582C17.6455 13.5558 15.8889 13.7205 14.0011 13.8851C12.8213 13.9949 11.6152 14.1046 10.4616 14.4614C9.01952 14.9004 8.10185 15.6413 7.15797 16.4646C6.84335 16.739 6.5025 17.0134 6.13544 17.2878C5.55862 17.7269 4.95559 18.0287 4.32633 18.3854C3.74952 18.6873 3.14648 19.0166 2.51723 19.4556C0.760563 20.7179 -0.10466 22.3095 0.000215108 24.2304C0.0788718 25.575 0.917877 29.1972 6.94822 33.6975V33.7249L7.21041 33.917C7.23663 33.9445 7.28907 33.9719 7.34151 33.9993C8.18051 34.6031 9.04573 35.1519 9.64877 35.4537C10.3305 35.8105 11.0384 36.1397 11.7201 36.469ZM43.9693 37.0179C43.8907 37.2923 44.0217 37.5392 44.2577 37.6764C44.5461 37.8136 44.8083 37.9508 45.0967 38.0606C45.6998 38.335 46.2766 38.6094 46.8534 38.9113C48.9771 39.9815 50.9173 41.4633 52.9624 43.6037C53.4343 44.0976 53.9063 44.619 54.352 45.1129L54.6142 45.4148C50.5765 45.1678 46.7747 43.6311 43.8644 41.134C40.9279 38.6094 39.1712 35.344 38.7517 31.7492C38.7517 31.6669 38.778 31.5571 38.8304 31.5022C38.8828 31.4473 38.9615 31.4199 39.0402 31.4199H39.0664C43.209 31.612 47.1418 33.1487 50.1307 35.7281C52.6478 37.896 54.352 40.7498 55.0337 43.7958C52.6215 39.8443 48.846 37.2648 44.5723 36.6611C44.2577 36.5788 44.048 36.7434 43.9693 37.0179ZM58.4421 45.0306C58.8092 44.5367 59.1763 44.0427 59.5433 43.5488C60.7756 41.8749 62.0341 40.1736 63.5024 38.6369C63.6859 38.4448 63.7121 38.1429 63.5548 37.9234C63.4237 37.7039 63.1353 37.6216 62.8993 37.7039C60.9329 38.5545 59.0452 40.5029 57.7867 42.9725C58.3897 38.4722 61.2213 34.7402 65.3115 33.0938C65.9408 32.8468 66.57 32.6547 67.1992 32.4901C67.4352 38.335 63.7646 43.5214 58.4421 45.0306ZM56.2397 41.2163C55.2696 38.5546 53.5654 36.1397 51.3106 34.1914C47.6399 31.0083 42.7895 29.3069 37.703 29.4167C37.467 29.4167 37.2048 29.5265 37.0475 29.7186C36.864 29.9106 36.7853 30.1576 36.7853 30.432C36.864 35.097 38.9615 39.4601 42.6846 42.6707C46.2504 45.7441 50.9173 47.4454 55.8727 47.4454C56.0038 47.4454 56.5544 47.418 56.6593 47.3905C61.3524 46.8143 65.259 43.8507 67.3566 39.7345C68.1956 40.5577 69.1394 41.2986 70.0571 42.0121C70.9485 42.7256 71.8662 43.439 72.6528 44.2074C75.9301 47.418 77.6606 52.3299 77.1886 56.9949C77.0313 58.5041 76.6643 60.0408 76.2972 61.5501C75.799 63.5533 75.3009 65.6388 75.2747 67.8066C75.2484 70.3312 75.9039 72.7734 76.5332 75.1334C76.9265 76.6152 77.346 78.1519 77.5557 79.6611C77.7917 81.335 77.6082 83.3657 76.3496 83.9419C75.8253 84.1889 75.3009 84.0517 74.96 83.9145C74.1997 83.5852 73.5704 82.8992 73.2558 82.1034C72.679 80.5941 72.8887 78.8105 73.0985 77.0542L73.1247 76.8896C73.3607 74.8041 73.518 72.6362 72.5479 70.6879C72.076 69.7549 71.4205 69.1787 70.6601 69.0415C70.0833 68.9317 69.5065 69.0689 69.0346 69.4256C68.1956 70.0568 67.7498 71.1819 67.6187 72.06C67.5925 72.2246 67.5663 72.3893 67.5401 72.5814C67.4352 73.4046 67.3303 74.1729 66.9108 74.5022C66.4651 74.8315 65.5999 74.5022 65.128 73.9808C63.7121 72.499 63.8432 70.1665 63.9481 67.6969C64.0268 66.1602 64.1054 64.5686 63.817 63.0593C63.3713 60.672 61.8768 58.5041 59.7269 57.1046C57.5769 55.7052 55.0337 55.2935 52.8051 55.9521C52.7002 55.9796 52.5953 56.007 52.4904 56.0619H52.4642C52.0972 56.1717 51.7563 56.2814 51.4679 56.254C50.7338 56.1991 50.1832 55.2935 49.6588 54.3057L49.6326 54.2508C49.4753 54.0038 46.0144 48.4882 41.8194 47.4729C38.7517 46.732 35.553 45.9911 33.1671 44.0153C32.3806 43.3567 31.6726 42.5609 30.9647 41.7103C30.2044 40.8321 29.4178 39.8992 28.4739 39.1308C27.2154 38.0881 25.1179 37.6764 22.8893 37.2374C20.1101 36.6886 16.9901 36.0574 15.8364 34.1914C15.2858 33.3133 15.181 32.1882 15.5218 30.7064C15.8102 29.4716 16.5706 29.2795 18.8778 29.3344C20.1625 29.3618 21.4997 29.3893 22.5222 28.7032C23.8332 27.8251 24.3314 26.3982 24.8295 25.0261C25.1966 23.9834 25.5636 23.023 26.2191 22.4193C28.2642 20.5533 31.594 20.8002 34.5305 21.0198C37.467 21.2393 40.2724 21.4314 41.6096 19.4831C45.7784 13.4186 49.8948 13.2265 56.1087 13.6656C56.7379 16.0255 58.2848 17.9464 59.7531 19.8124C61.0116 21.3765 62.3225 23.023 62.9518 24.8341C63.5286 26.4256 63.6335 28.1544 63.7121 29.993C63.7384 30.5692 63.7908 31.1455 63.8432 31.7217C60.0939 33.478 57.2623 37.0453 56.2397 41.2163ZM22.4436 39.1308C24.4362 39.5424 26.324 39.8992 27.2416 40.6675C28.0544 41.3261 28.7361 42.1493 29.4703 43C30.2044 43.8781 30.9909 44.7836 31.9086 45.552C34.6354 47.7747 38.0438 48.5979 41.3474 49.3663C43.3138 49.8328 45.2278 51.7262 46.565 53.3452C45.7522 53.0708 44.9132 52.8513 44.2053 52.6592L44.0742 52.6318C42.9206 52.3299 41.8194 52.0281 40.9017 51.6165C39.8529 51.15 38.9091 50.409 37.9127 49.6407C36.9951 48.9272 36.025 48.1589 34.9238 47.6101C33.2982 46.7868 31.5678 46.4576 29.8635 46.1283C28.1855 45.799 26.5862 45.4971 25.1704 44.7562C23.4923 43.8507 22.1814 42.3963 20.7918 40.8047C19.979 39.8717 19.14 38.9113 18.1699 38.0881C19.5595 38.5546 21.0278 38.8564 22.4436 39.1308ZM13.4505 33.231C13.5554 33.9719 13.8176 34.6305 14.1584 35.2068C14.2371 35.3165 14.3157 35.4537 14.3944 35.5635C13.7651 35.2342 13.1097 34.9323 12.4804 34.6305C12.1658 34.4933 11.8512 34.3286 11.5365 34.1914C12.2707 33.9719 12.9261 33.6426 13.4505 33.231ZM8.25917 32.2706C7.18419 31.4748 6.13544 30.5967 5.24399 29.7186C3.77574 28.2642 2.01907 26.0963 1.88798 24.1206C1.83554 23.1053 2.22882 22.2546 3.09405 21.5137C6.5025 20.7179 9.85852 22.7211 11.6938 24.6694C12.428 25.4652 13.3456 26.7275 13.5554 28.2642C13.7389 29.6088 13.267 30.926 12.4018 31.612C11.4317 32.3803 9.4128 33.0389 8.25917 32.2706ZM38.6207 7.60113C39.9578 6.94255 41.0066 5.95467 42.0553 4.9668C42.8681 4.19845 43.6547 3.45755 44.5199 2.93617C46.7747 1.56412 49.7637 1.64644 51.9661 3.12825C54.4306 4.82959 56.7641 6.86023 55.8989 11.635C49.5801 11.2233 44.7297 11.4703 40.0365 18.2757C39.3023 19.3459 37.1262 19.1812 34.6092 19.0166C31.3056 18.7696 27.5825 18.4952 24.9344 20.91C23.9118 21.8156 23.4661 23.0778 23.0204 24.3127C22.6009 25.4378 22.2076 26.508 21.4473 27.0293C20.8967 27.3861 19.8479 27.3861 18.8516 27.3586C17.7766 27.3312 16.4657 27.3038 15.4169 27.8251C15.1547 26.261 14.3682 24.6969 13.0572 23.3248C12.3755 22.5839 9.88474 20.1965 6.37141 19.538C6.71225 19.3184 7.00066 19.1263 7.28907 18.9343C7.70857 18.6324 8.04942 18.3306 8.39026 18.0561C9.22927 17.3427 9.9634 16.739 11.0384 16.4097C12.0347 16.1078 13.1359 15.9981 14.2371 15.9157C16.3084 15.7237 18.4583 15.5316 20.1625 14.0498C21.0016 13.3363 21.5784 12.4582 22.129 11.6075C22.6009 10.894 23.0204 10.2355 23.571 9.71409C25.4325 7.95787 28.1331 8.17739 30.9909 8.39692C33.5866 8.56157 36.261 8.78109 38.6207 7.60113Z" fill="#3E389F"/>
<path d="M67.5139 59.4639C70.765 59.4639 73.4393 56.6923 73.4393 53.2622C73.4393 49.8321 70.7912 47.0605 67.5139 47.0605C64.2365 47.0605 61.5884 49.8321 61.5884 53.2622C61.5884 56.6923 64.2365 59.4639 67.5139 59.4639ZM63.4761 53.2622C63.4761 50.9297 65.2852 49.0363 67.5139 49.0363C69.7425 49.0363 71.5516 50.9297 71.5516 53.2622C71.5516 55.5947 69.7425 57.4881 67.5139 57.4881C65.2852 57.4881 63.4761 55.5947 63.4761 53.2622Z" fill="#3E389F"/>
<path d="M53.8014 19.8125C50.5503 19.8125 47.876 22.584 47.876 26.0142C47.876 29.4443 50.5241 32.2158 53.8014 32.2158C57.0788 32.2158 59.7269 29.4443 59.7269 26.0142C59.7269 22.584 57.0526 19.8125 53.8014 19.8125ZM57.8392 26.0142C57.8392 28.3466 56.0301 30.2401 53.8014 30.2401C51.5728 30.2401 49.7637 28.3466 49.7637 26.0142C49.7637 23.6817 51.5728 21.7883 53.8014 21.7883C56.0301 21.7883 57.8392 23.6817 57.8392 26.0142Z" fill="#3E389F"/>
<path d="M29.6535 24.834C26.4024 24.834 23.728 27.6055 23.728 31.0356C23.728 34.4658 26.3761 37.2373 29.6535 37.2373C32.9309 37.2373 35.579 34.4658 35.579 31.0356C35.579 27.6055 32.9309 24.834 29.6535 24.834ZM33.6912 31.0356C33.6912 33.3681 31.8821 35.2616 29.6535 35.2616C27.4249 35.2616 25.6158 33.3681 25.6158 31.0356C25.6158 28.7032 27.4249 26.8097 29.6535 26.8097C31.8821 26.8097 33.6912 28.7032 33.6912 31.0356Z" fill="#3E389F"/>
</g>
<defs>
<clipPath id="clip0_582_4760">
<rect width="235" height="86" fill="white"/>
</clipPath>
</defs>
</svg>
