<svg width="25" height="25" viewBox="0 0 25 25" fill="none" xmlns="http://www.w3.org/2000/svg">
<g clip-path="url(#clip0_1977_128)">
<path d="M12.4875 24.3412C19.0347 24.3412 24.3422 19.0337 24.3422 12.4865C24.3422 5.93936 19.0347 0.631836 12.4875 0.631836C5.94034 0.631836 0.632812 5.93936 0.632812 12.4865C0.632812 19.0337 5.94034 24.3412 12.4875 24.3412Z" fill="#FF4500"/>
<path d="M20.3951 12.4865C20.3598 11.5318 19.5581 10.7863 18.6006 10.8187C18.1762 10.8335 17.7726 11.0073 17.4662 11.299C16.1166 10.3796 14.5312 9.8756 12.9016 9.8403L13.6706 6.14216L16.2078 6.67562C16.2784 7.32684 16.8619 7.79839 17.5131 7.72753C18.1643 7.65693 18.6359 7.07341 18.565 6.4222C18.4941 5.77098 17.9109 5.29942 17.2597 5.37029C16.8853 5.40849 16.5494 5.62661 16.364 5.95091L13.4585 5.37029C13.2612 5.32603 13.0636 5.44985 13.0194 5.65032C13.0194 5.65322 13.0194 5.65322 13.0194 5.65612L12.1442 9.7697C10.4941 9.7963 8.88814 10.3032 7.5209 11.2283C6.82542 10.5742 5.72926 10.6066 5.07515 11.305C4.42103 12.0005 4.45343 13.0966 5.15181 13.7508C5.28748 13.8775 5.44343 13.9865 5.6173 14.0632C5.60545 14.2371 5.60545 14.4109 5.6173 14.5848C5.6173 17.2397 8.71137 19.3997 12.5273 19.3997C16.3432 19.3997 19.4372 17.2426 19.4372 14.5848C19.4491 14.4109 19.4491 14.2371 19.4372 14.0632C20.0326 13.7655 20.4069 13.1525 20.3951 12.4865ZM8.5404 13.6741C8.5404 13.02 9.07386 12.4865 9.72798 12.4865C10.3821 12.4865 10.9156 13.02 10.9156 13.6741C10.9156 14.3282 10.3821 14.8617 9.72798 14.8617C9.07097 14.8556 8.5404 14.3282 8.5404 13.6741ZM15.4269 16.9802V16.9331C14.5842 17.5667 13.5528 17.8907 12.4978 17.8467C11.4427 17.8909 10.4116 17.5667 9.5686 16.9331C9.45664 16.7974 9.47719 16.5943 9.61286 16.4823C9.73061 16.3851 9.89869 16.3851 10.0196 16.4823C10.7327 17.004 11.6021 17.2692 12.4859 17.2279C13.37 17.275 14.2422 17.0216 14.9641 16.5061C15.0937 16.3793 15.3057 16.3822 15.4327 16.5119C15.5594 16.6415 15.5565 16.8535 15.4269 16.9802ZM15.2649 14.947C15.2444 14.947 15.2267 14.947 15.2059 14.947L15.2149 14.9028C14.5607 14.9028 14.0273 14.3693 14.0273 13.7152C14.0273 13.0611 14.5607 12.5276 15.2149 12.5276C15.869 12.5276 16.4024 13.0611 16.4024 13.7152C16.4288 14.3696 15.919 14.9204 15.2649 14.947Z" fill="white"/>
</g>
<defs>
<clipPath id="clip0_1977_128">
<rect width="24" height="24" fill="white" transform="translate(0.5 0.5)"/>
</clipPath>
</defs>
</svg>
