<svg width="30" height="26" viewBox="0 0 30 26" fill="none" xmlns="http://www.w3.org/2000/svg">
<path d="M2 3.19727L2 10.3992L9.2 10.3992" stroke="#3E389F" stroke-width="3" stroke-linecap="round" stroke-linejoin="round"/>
<path d="M28.3997 22.4031L28.3997 15.2012L21.1997 15.2012" stroke="#3E389F" stroke-width="3" stroke-linecap="round" stroke-linejoin="round"/>
<path d="M25.388 9.19905C24.7794 7.47874 23.745 5.94068 22.3814 4.72838C21.0178 3.51608 19.3694 2.66906 17.5901 2.26634C15.8107 1.86363 13.9583 1.91835 12.2058 2.4254C10.4532 2.93245 8.8577 3.87531 7.568 5.16599L2 10.3994M28.4 15.2006L22.832 20.434C21.5423 21.7247 19.9468 22.6675 18.1942 23.1746C16.4417 23.6817 14.5893 23.7364 12.8099 23.3337C11.0306 22.9309 9.38216 22.0839 8.01856 20.8716C6.65496 19.6593 5.6206 18.1213 5.012 16.4009" stroke="#3E389F" stroke-width="3" stroke-linecap="round" stroke-linejoin="round"/>
</svg>
