<svg width="30" height="25" viewBox="0 0 30 25" fill="none" xmlns="http://www.w3.org/2000/svg">
<path d="M2 3.03711L2 10.239L9.2 10.239" stroke="#3E389F" stroke-width="3" stroke-linecap="round" stroke-linejoin="round"/>
<path d="M28.3992 22.2429L28.3992 15.041L21.1992 15.041" stroke="#3E389F" stroke-width="3" stroke-linecap="round" stroke-linejoin="round"/>
<path d="M25.388 9.0389C24.7794 7.31859 23.745 5.78052 22.3814 4.56822C21.0178 3.35592 19.3694 2.5089 17.5901 2.10618C15.8107 1.70347 13.9583 1.75819 12.2058 2.26525C10.4532 2.7723 8.8577 3.71515 7.568 5.00584L2 10.2392M28.4 15.0405L22.832 20.2739C21.5423 21.5645 19.9468 22.5074 18.1942 23.0144C16.4417 23.5215 14.5893 23.5762 12.8099 23.1735C11.0306 22.7708 9.38216 21.9238 8.01856 20.7115C6.65496 19.4992 5.6206 17.9611 5.012 16.2408" stroke="#3E389F" stroke-width="3" stroke-linecap="round" stroke-linejoin="round"/>
</svg>
