<svg width="28" height="26" viewBox="0 0 28 26" fill="none" xmlns="http://www.w3.org/2000/svg">
<path d="M14.001 6.19922L14.001 13.9992L18.2013 16.3992" fill="#FAF5EF"/>
<path d="M14.001 6.19922L14.001 13.9992L18.2013 16.3992" stroke="#3E389F" stroke-width="3" stroke-linecap="round" stroke-linejoin="round"/>
<path d="M2.00049 3.18945L2.00049 10.3894L9.201 10.3894" fill="#FAF5EF"/>
<path d="M2.00049 3.18945L2.00049 10.3894L9.201 10.3894" stroke="#3E389F" stroke-width="3" stroke-linecap="round" stroke-linejoin="round"/>
<path d="M5.0127 16.3888C5.79083 18.5972 7.26566 20.493 9.21499 21.7904C11.1643 23.0879 13.4825 23.7167 15.8203 23.5821C18.1581 23.4476 20.3889 22.557 22.1765 21.0445C23.9641 19.532 25.2116 17.4796 25.7312 15.1964C26.2508 12.9133 26.0143 10.5231 25.0573 8.38612C24.1002 6.24909 22.4746 4.48096 20.4252 3.34812C18.3758 2.21529 16.0138 1.77912 13.6949 2.10535C11.3761 2.43157 9.22609 3.50251 7.56888 5.1568L2.00049 10.3888" fill="#FAF5EF"/>
<path d="M5.0127 16.3888C5.79083 18.5972 7.26566 20.493 9.21499 21.7904C11.1643 23.0879 13.4825 23.7167 15.8203 23.5821C18.1581 23.4476 20.3889 22.557 22.1765 21.0445C23.9641 19.532 25.2116 17.4796 25.7312 15.1964C26.2508 12.9133 26.0143 10.5231 25.0573 8.38612C24.1002 6.24909 22.4746 4.48096 20.4252 3.34812C18.3758 2.21529 16.0138 1.77912 13.6949 2.10535C11.3761 2.43157 9.22609 3.50251 7.56888 5.1568L2.00049 10.3888" stroke="#3E389F" stroke-width="3" stroke-linecap="round" stroke-linejoin="round"/>
</svg>
