<svg width="28" height="25" viewBox="0 0 28 25" fill="none" xmlns="http://www.w3.org/2000/svg">
<path d="M14.001 5.875L14.001 13.675L18.2013 16.075" fill="#F8F2ED"/>
<path d="M14.001 5.875L14.001 13.675L18.2013 16.075" stroke="#3E389F" stroke-width="3" stroke-linecap="round" stroke-linejoin="round"/>
<path d="M2.00098 2.86328L2.00098 10.0633L9.20149 10.0633" fill="#F8F2ED"/>
<path d="M2.00098 2.86328L2.00098 10.0633L9.20149 10.0633" stroke="#3E389F" stroke-width="3" stroke-linecap="round" stroke-linejoin="round"/>
<path d="M5.01319 16.0626C5.79132 18.2711 7.26615 20.1668 9.21547 21.4643C11.1648 22.7617 13.483 23.3905 15.8208 23.256C18.1586 23.1214 20.3894 22.2308 22.177 20.7183C23.9645 19.2058 25.2121 17.1534 25.7317 14.8703C26.2513 12.5871 26.0148 10.197 25.0578 8.05995C24.1007 5.92292 22.4751 4.15478 20.4257 3.02195C18.3763 1.88911 16.0143 1.45295 13.6954 1.77917C11.3766 2.1054 9.22658 3.17634 7.56937 4.83063L2.00098 10.0626" fill="#F8F2ED"/>
<path d="M5.01319 16.0626C5.79132 18.2711 7.26615 20.1668 9.21547 21.4643C11.1648 22.7617 13.483 23.3905 15.8208 23.256C18.1586 23.1214 20.3894 22.2308 22.177 20.7183C23.9645 19.2058 25.2121 17.1534 25.7317 14.8703C26.2513 12.5871 26.0148 10.197 25.0578 8.05995C24.1007 5.92292 22.4751 4.15478 20.4257 3.02195C18.3763 1.88911 16.0143 1.45295 13.6954 1.77917C11.3766 2.1054 9.22658 3.17634 7.56937 4.83063L2.00098 10.0626" stroke="#3E389F" stroke-width="3" stroke-linecap="round" stroke-linejoin="round"/>
</svg>
