<svg width="1558" height="529" viewBox="0 0 1558 529" fill="none" xmlns="http://www.w3.org/2000/svg">
<mask id="mask0_2572_181" style="mask-type:alpha" maskUnits="userSpaceOnUse" x="0" y="0" width="1558" height="529">
<mask id="path-1-inside-1_2572_181" fill="white">
<path d="M1024.37 2.32072L1555.52 528.647L1558 526.326L1026.86 0L1024.38 2.32072H1024.37ZM910.551 2.32072L1441.7 528.647L1444.18 526.326L913.04 0L910.563 2.32072H910.551ZM986.425 2.32072L1517.57 528.647L1520.05 526.326L988.925 0L986.448 2.32072H986.425ZM948.488 2.32072L1479.64 528.647L1482.11 526.326L950.977 0L948.5 2.32072H948.488ZM872.615 2.32072L1403.76 528.647L1406.24 526.326L875.104 0L872.626 2.32072H872.615ZM758.793 2.32072L1289.94 528.647L1292.42 526.326L761.282 0L758.804 2.32072H758.793ZM834.666 2.32072L1365.82 528.647L1368.29 526.326L837.167 0L834.689 2.32072H834.666ZM796.729 2.32072L1327.88 528.647L1330.36 526.326L799.23 0L796.753 2.32072H796.729ZM720.856 2.32072L1252.01 528.647L1254.48 526.326L723.345 0L720.867 2.32072H720.856ZM607.034 2.32072L1138.18 528.647L1140.66 526.326L609.535 0L607.057 2.32072H607.034ZM682.908 2.32072L1214.06 528.647L1216.53 526.326L685.408 0L682.931 2.32072H682.908ZM644.971 2.32072L1176.12 528.647L1178.6 526.326L647.472 0L644.994 2.32072H644.971ZM569.097 2.32072L1100.25 528.647L1102.72 526.326L571.587 0L569.109 2.32072H569.097ZM455.276 2.32072L986.425 528.647L988.902 526.326L457.776 0L455.299 2.32072H455.276ZM531.149 2.32072L1062.3 528.647L1064.78 526.326L533.65 0L531.172 2.32072H531.149ZM493.212 2.32072L1024.36 528.647L1026.84 526.326L495.713 0L493.235 2.32072H493.212ZM417.339 2.32072L948.488 528.647L950.966 526.326L419.84 0L417.362 2.32072H417.339ZM303.517 2.32072L834.666 528.647L837.144 526.326L306.018 0L303.54 2.32072H303.517ZM379.391 2.32072L910.54 528.647L913.017 526.326L381.891 0L379.414 2.32072H379.391ZM341.454 2.32072L872.603 528.647L875.081 526.326L343.955 0L341.477 2.32072H341.454ZM265.58 2.32072L796.729 528.647L799.207 526.326L268.081 0L265.603 2.32072H265.58ZM151.759 2.32072L682.908 528.647L685.385 526.326L154.259 0L151.782 2.32072H151.759ZM227.632 2.32072L758.781 528.647L761.259 526.326L230.144 0L227.667 2.32072H227.632ZM189.695 2.32072L720.844 528.647L723.322 526.326L192.196 0L189.718 2.32072H189.695ZM113.822 2.32072L644.971 528.647L647.449 526.326L116.322 0L113.845 2.32072H113.822ZM0 2.32072L531.149 528.647L533.627 526.326L2.50069 0L0.023044 2.32072H0ZM75.8735 2.32072L607.023 528.647L609.5 526.326L78.3857 0L75.9081 2.32072H75.8735ZM37.9368 2.32072L569.086 528.647L571.564 526.326L40.4374 0L37.9598 2.32072H37.9368Z"/>
</mask>
<path d="M1024.37 2.32072L1555.52 528.647L1558 526.326L1026.86 0L1024.38 2.32072H1024.37ZM910.551 2.32072L1441.7 528.647L1444.18 526.326L913.04 0L910.563 2.32072H910.551ZM986.425 2.32072L1517.57 528.647L1520.05 526.326L988.925 0L986.448 2.32072H986.425ZM948.488 2.32072L1479.64 528.647L1482.11 526.326L950.977 0L948.5 2.32072H948.488ZM872.615 2.32072L1403.76 528.647L1406.24 526.326L875.104 0L872.626 2.32072H872.615ZM758.793 2.32072L1289.94 528.647L1292.42 526.326L761.282 0L758.804 2.32072H758.793ZM834.666 2.32072L1365.82 528.647L1368.29 526.326L837.167 0L834.689 2.32072H834.666ZM796.729 2.32072L1327.88 528.647L1330.36 526.326L799.23 0L796.753 2.32072H796.729ZM720.856 2.32072L1252.01 528.647L1254.48 526.326L723.345 0L720.867 2.32072H720.856ZM607.034 2.32072L1138.18 528.647L1140.66 526.326L609.535 0L607.057 2.32072H607.034ZM682.908 2.32072L1214.06 528.647L1216.53 526.326L685.408 0L682.931 2.32072H682.908ZM644.971 2.32072L1176.12 528.647L1178.6 526.326L647.472 0L644.994 2.32072H644.971ZM569.097 2.32072L1100.25 528.647L1102.72 526.326L571.587 0L569.109 2.32072H569.097ZM455.276 2.32072L986.425 528.647L988.902 526.326L457.776 0L455.299 2.32072H455.276ZM531.149 2.32072L1062.3 528.647L1064.78 526.326L533.65 0L531.172 2.32072H531.149ZM493.212 2.32072L1024.36 528.647L1026.84 526.326L495.713 0L493.235 2.32072H493.212ZM417.339 2.32072L948.488 528.647L950.966 526.326L419.84 0L417.362 2.32072H417.339ZM303.517 2.32072L834.666 528.647L837.144 526.326L306.018 0L303.54 2.32072H303.517ZM379.391 2.32072L910.54 528.647L913.017 526.326L381.891 0L379.414 2.32072H379.391ZM341.454 2.32072L872.603 528.647L875.081 526.326L343.955 0L341.477 2.32072H341.454ZM265.58 2.32072L796.729 528.647L799.207 526.326L268.081 0L265.603 2.32072H265.58ZM151.759 2.32072L682.908 528.647L685.385 526.326L154.259 0L151.782 2.32072H151.759ZM227.632 2.32072L758.781 528.647L761.259 526.326L230.144 0L227.667 2.32072H227.632ZM189.695 2.32072L720.844 528.647L723.322 526.326L192.196 0L189.718 2.32072H189.695ZM113.822 2.32072L644.971 528.647L647.449 526.326L116.322 0L113.845 2.32072H113.822ZM0 2.32072L531.149 528.647L533.627 526.326L2.50069 0L0.023044 2.32072H0ZM75.8735 2.32072L607.023 528.647L609.5 526.326L78.3857 0L75.9081 2.32072H75.8735ZM37.9368 2.32072L569.086 528.647L571.564 526.326L40.4374 0L37.9598 2.32072H37.9368Z" fill="#8B88C3"/>
<path d="M1062.32 1.82072H1062.31V2.82072H1062.32V1.82072ZM493.577 529.012L496.055 526.691L495.371 525.961L492.894 528.282L493.577 529.012ZM1024.37 2.32072V1.32072H1021.94L1023.67 3.03105L1024.37 2.32072ZM1555.52 528.647L1554.82 529.357L1555.5 530.035L1556.21 529.377L1555.52 528.647ZM1558 526.326L1558.68 527.056L1559.44 526.347L1558.7 525.616L1558 526.326ZM1026.86 0L1027.57 -0.710317L1026.88 -1.38847L1026.18 -0.729836L1026.86 0ZM1024.38 2.32072V3.32072H1024.78L1025.07 3.05056L1024.38 2.32072ZM910.551 2.32072V1.32072H908.121L909.847 3.03105L910.551 2.32072ZM1441.7 528.647L1441 529.357L1441.68 530.035L1442.38 529.377L1441.7 528.647ZM1444.18 526.326L1444.86 527.056L1445.62 526.347L1444.88 525.616L1444.18 526.326ZM913.04 0L913.744 -0.710317L913.06 -1.38846L912.357 -0.729845L913.04 0ZM910.563 2.32072V3.32072H910.958L911.246 3.05057L910.563 2.32072ZM986.425 2.32072V1.32072H983.995L985.721 3.03105L986.425 2.32072ZM1517.57 528.647L1516.87 529.357L1517.55 530.035L1518.26 529.377L1517.57 528.647ZM1520.05 526.326L1520.74 527.056L1521.49 526.347L1520.76 525.616L1520.05 526.326ZM988.925 0L989.629 -0.710309L988.945 -1.38847L988.242 -0.729836L988.925 0ZM986.448 2.32072V3.32072H986.843L987.132 3.05056L986.448 2.32072ZM948.488 2.32072V1.32072H946.058L947.784 3.03105L948.488 2.32072ZM1479.64 528.647L1478.93 529.357L1479.62 530.035L1480.32 529.377L1479.64 528.647ZM1482.11 526.326L1482.8 527.056L1483.56 526.347L1482.82 525.616L1482.11 526.326ZM950.977 0L951.681 -0.710317L950.997 -1.38846L950.294 -0.729845L950.977 0ZM948.5 2.32072V3.32072H948.895L949.183 3.05057L948.5 2.32072ZM872.615 2.32072V1.32072H870.185L871.911 3.03105L872.615 2.32072ZM1403.76 528.647L1403.06 529.357L1403.74 530.035L1404.45 529.377L1403.76 528.647ZM1406.24 526.326L1406.93 527.056L1407.68 526.347L1406.95 525.616L1406.24 526.326ZM875.104 0L875.808 -0.710317L875.123 -1.38846L874.42 -0.729845L875.104 0ZM872.626 2.32072V3.32072H873.021L873.31 3.05057L872.626 2.32072ZM758.793 2.32072V1.32072H756.363L758.089 3.03105L758.793 2.32072ZM1289.94 528.647L1289.24 529.357L1289.92 530.035L1290.63 529.377L1289.94 528.647ZM1292.42 526.326L1293.1 527.056L1293.86 526.347L1293.12 525.616L1292.42 526.326ZM761.282 0L761.986 -0.710317L761.301 -1.38846L760.598 -0.729845L761.282 0ZM758.804 2.32072V3.32072H759.199L759.488 3.05057L758.804 2.32072ZM834.666 2.32072V1.32072H832.236L833.962 3.03105L834.666 2.32072ZM1365.82 528.647L1365.11 529.357L1365.8 530.035L1366.5 529.377L1365.82 528.647ZM1368.29 526.326L1368.98 527.056L1369.73 526.347L1369 525.616L1368.29 526.326ZM837.167 0L837.871 -0.710309L837.186 -1.38847L836.483 -0.729836L837.167 0ZM834.689 2.32072V3.32072H835.085L835.373 3.05056L834.689 2.32072ZM796.729 2.32072V1.32072H794.3L796.026 3.03105L796.729 2.32072ZM1327.88 528.647L1327.17 529.357L1327.86 530.035L1328.56 529.377L1327.88 528.647ZM1330.36 526.326L1331.04 527.056L1331.8 526.347L1331.06 525.616L1330.36 526.326ZM799.23 0L799.934 -0.710309L799.25 -1.38846L798.547 -0.729845L799.23 0ZM796.753 2.32072V3.32072H797.148L797.436 3.05057L796.753 2.32072ZM720.856 2.32072V1.32072H718.426L720.152 3.03105L720.856 2.32072ZM1252.01 528.647L1251.3 529.357L1251.99 530.035L1252.69 529.377L1252.01 528.647ZM1254.48 526.326L1255.17 527.056L1255.92 526.347L1255.19 525.616L1254.48 526.326ZM723.345 0L724.049 -0.710317L723.365 -1.38846L722.662 -0.729845L723.345 0ZM720.867 2.32072V3.32072H721.263L721.551 3.05057L720.867 2.32072ZM607.034 2.32072V1.32072H604.604L606.33 3.03105L607.034 2.32072ZM1138.18 528.647L1137.48 529.357L1138.16 530.035L1138.87 529.377L1138.18 528.647ZM1140.66 526.326L1141.34 527.056L1142.1 526.347L1141.36 525.616L1140.66 526.326ZM609.535 0L610.239 -0.710309L609.554 -1.38846L608.851 -0.729845L609.535 0ZM607.057 2.32072V3.32072H607.452L607.741 3.05057L607.057 2.32072ZM682.908 2.32072V1.32072H680.478L682.204 3.03105L682.908 2.32072ZM1214.06 528.647L1213.35 529.357L1214.04 530.035L1214.74 529.377L1214.06 528.647ZM1216.53 526.326L1217.22 527.056L1217.98 526.347L1217.24 525.616L1216.53 526.326ZM685.408 0L686.112 -0.710309L685.428 -1.38847L684.725 -0.729836L685.408 0ZM682.931 2.32072V3.32072H683.326L683.614 3.05056L682.931 2.32072ZM644.971 2.32072V1.32072H642.541L644.267 3.03105L644.971 2.32072ZM1176.12 528.647L1175.42 529.357L1176.1 530.035L1176.8 529.377L1176.12 528.647ZM1178.6 526.326L1179.28 527.056L1180.04 526.347L1179.3 525.616L1178.6 526.326ZM647.472 0L648.176 -0.710309L647.491 -1.38846L646.788 -0.729845L647.472 0ZM644.994 2.32072V3.32072H645.389L645.678 3.05057L644.994 2.32072ZM569.097 2.32072V1.32072H566.668L568.394 3.03105L569.097 2.32072ZM1100.25 528.647L1099.54 529.357L1100.23 530.035L1100.93 529.377L1100.25 528.647ZM1102.72 526.326L1103.41 527.056L1104.17 526.347L1103.43 525.616L1102.72 526.326ZM571.587 0L572.291 -0.710317L571.606 -1.38846L570.903 -0.729845L571.587 0ZM569.109 2.32072V3.32072H569.504L569.793 3.05057L569.109 2.32072ZM455.276 2.32072V1.32072H452.846L454.572 3.03105L455.276 2.32072ZM986.425 528.647L985.721 529.357L986.405 530.035L987.108 529.377L986.425 528.647ZM988.902 526.326L989.586 527.056L990.344 526.347L989.606 525.616L988.902 526.326ZM457.776 0L458.48 -0.710309L457.796 -1.38846L457.093 -0.729845L457.776 0ZM455.299 2.32072V3.32072H455.694L455.982 3.05057L455.299 2.32072ZM531.149 2.32072V1.32072H528.719L530.445 3.03105L531.149 2.32072ZM1062.3 528.647L1061.59 529.357L1062.28 530.035L1062.98 529.377L1062.3 528.647ZM1064.78 526.326L1065.46 527.056L1066.22 526.347L1065.48 525.616L1064.78 526.326ZM533.65 0L534.354 -0.710309L533.669 -1.38846L532.966 -0.729845L533.65 0ZM531.172 2.32072V3.32072H531.567L531.856 3.05057L531.172 2.32072ZM493.212 2.32072V1.32072H490.783L492.509 3.03105L493.212 2.32072ZM1024.36 528.647L1023.66 529.357L1024.34 530.035L1025.05 529.377L1024.36 528.647ZM1026.84 526.326L1027.52 527.056L1028.28 526.347L1027.54 525.616L1026.84 526.326ZM495.713 0L496.417 -0.710309L495.733 -1.38847L495.03 -0.72984L495.713 0ZM493.235 2.32072V3.32072H493.631L493.919 3.05056L493.235 2.32072ZM417.339 2.32072V1.32072H414.909L416.635 3.03105L417.339 2.32072ZM948.488 528.647L947.784 529.357L948.469 530.035L949.172 529.377L948.488 528.647ZM950.966 526.326L951.649 527.056L952.407 526.347L951.67 525.616L950.966 526.326ZM419.84 0L420.543 -0.710309L419.859 -1.38847L419.156 -0.72984L419.84 0ZM417.362 2.32072V3.32072H417.757L418.046 3.05056L417.362 2.32072ZM303.517 2.32072V1.32072H301.087L302.813 3.03105L303.517 2.32072ZM834.666 528.647L833.962 529.357L834.647 530.035L835.35 529.377L834.666 528.647ZM837.144 526.326L837.828 527.056L838.585 526.347L837.848 525.616L837.144 526.326ZM306.018 0L306.722 -0.710309L306.037 -1.38846L305.334 -0.729845L306.018 0ZM303.54 2.32072V3.32072H303.935L304.224 3.05057L303.54 2.32072ZM379.391 2.32072V1.32072H376.961L378.687 3.03105L379.391 2.32072ZM910.54 528.647L909.836 529.357L910.52 530.035L911.223 529.377L910.54 528.647ZM913.017 526.326L913.701 527.056L914.459 526.347L913.721 525.616L913.017 526.326ZM381.891 0L382.595 -0.710309L381.911 -1.38847L381.208 -0.72984L381.891 0ZM379.414 2.32072V3.32072H379.809L380.097 3.05056L379.414 2.32072ZM341.454 2.32072V1.32072H339.024L340.75 3.03105L341.454 2.32072ZM872.603 528.647L871.899 529.357L872.583 530.035L873.287 529.377L872.603 528.647ZM875.081 526.326L875.764 527.056L876.522 526.347L875.785 525.616L875.081 526.326ZM343.955 0L344.658 -0.710309L343.974 -1.38847L343.271 -0.72984L343.955 0ZM341.477 2.32072V3.32072H341.872L342.161 3.05056L341.477 2.32072ZM265.58 2.32072V1.32072H263.15L264.876 3.03105L265.58 2.32072ZM796.729 528.647L796.026 529.357L796.71 530.035L797.413 529.377L796.729 528.647ZM799.207 526.326L799.891 527.056L800.648 526.347L799.911 525.616L799.207 526.326ZM268.081 0L268.785 -0.710309L268.101 -1.38847L267.397 -0.72984L268.081 0ZM265.603 2.32072V3.32072H265.999L266.287 3.05056L265.603 2.32072ZM151.759 2.32072V1.32072H149.329L151.055 3.03105L151.759 2.32072ZM682.908 528.647L682.204 529.357L682.888 530.035L683.591 529.377L682.908 528.647ZM685.385 526.326L686.069 527.056L686.827 526.347L686.089 525.616L685.385 526.326ZM154.259 0L154.963 -0.710309L154.279 -1.38847L153.576 -0.72984L154.259 0ZM151.782 2.32072V3.32072H152.177L152.465 3.05056L151.782 2.32072ZM227.632 2.32072V1.32072H225.202L226.928 3.03105L227.632 2.32072ZM758.781 528.647L758.077 529.357L758.762 530.035L759.465 529.377L758.781 528.647ZM761.259 526.326L761.942 527.056L762.7 526.347L761.963 525.616L761.259 526.326ZM230.144 0L230.848 -0.710301L230.164 -1.38848L229.461 -0.72984L230.144 0ZM227.667 2.32072V3.32072H228.062L228.35 3.05056L227.667 2.32072ZM189.695 2.32072V1.32072H187.265L188.991 3.03105L189.695 2.32072ZM720.844 528.647L720.141 529.357L720.825 530.035L721.528 529.377L720.844 528.647ZM723.322 526.326L724.006 527.056L724.763 526.347L724.026 525.616L723.322 526.326ZM192.196 0L192.9 -0.710309L192.216 -1.38847L191.512 -0.72984L192.196 0ZM189.718 2.32072V3.32072H190.114L190.402 3.05056L189.718 2.32072ZM113.822 2.32072V1.32072H111.392L113.118 3.03105L113.822 2.32072ZM644.971 528.647L644.267 529.357L644.951 530.035L645.655 529.377L644.971 528.647ZM647.449 526.326L648.132 527.056L648.89 526.347L648.152 525.616L647.449 526.326ZM116.322 0L117.026 -0.710309L116.342 -1.38847L115.639 -0.72984L116.322 0ZM113.845 2.32072V3.32072H114.24L114.528 3.05056L113.845 2.32072ZM0 2.32072V1.32072H-2.42987L-0.703875 3.03105L0 2.32072ZM531.149 528.647L530.445 529.357L531.13 530.035L531.833 529.377L531.149 528.647ZM533.627 526.326L534.31 527.056L535.068 526.347L534.331 525.616L533.627 526.326ZM2.50069 0L3.20458 -0.710309L2.52024 -1.38847L1.81707 -0.729842L2.50069 0ZM0.023044 2.32072V3.32072H0.418234L0.70666 3.05056L0.023044 2.32072ZM75.8735 2.32072V1.32072H73.4436L75.1696 3.03105L75.8735 2.32072ZM607.023 528.647L606.319 529.357L607.003 530.035L607.706 529.377L607.023 528.647ZM609.5 526.326L610.184 527.056L610.941 526.347L610.204 525.616L609.5 526.326ZM78.3857 0L79.0896 -0.710301L78.4053 -1.38848L77.7021 -0.729842L78.3857 0ZM75.9081 2.32072V3.32072H76.3033L76.5917 3.05056L75.9081 2.32072ZM37.9368 2.32072V1.32072H35.5069L37.2329 3.03105L37.9368 2.32072ZM569.086 528.647L568.382 529.357L569.066 530.035L569.77 529.377L569.086 528.647ZM571.564 526.326L572.247 527.056L573.005 526.347L572.267 525.616L571.564 526.326ZM40.4374 0L41.1413 -0.710309L40.457 -1.38847L39.7538 -0.729842L40.4374 0ZM37.9598 2.32072V3.32072H38.355L38.6434 3.05056L37.9598 2.32072ZM1023.67 3.03105L1554.82 529.357L1556.23 527.937L1025.08 1.6104L1023.67 3.03105ZM1556.21 529.377L1558.68 527.056L1557.32 525.596L1554.84 527.917L1556.21 529.377ZM1558.7 525.616L1027.57 -0.710317L1026.16 0.710317L1557.3 527.037L1558.7 525.616ZM1026.18 -0.729836L1023.7 1.59089L1025.07 3.05056L1027.55 0.729836L1026.18 -0.729836ZM1024.38 1.32072H1024.37V3.32072H1024.38V1.32072ZM909.847 3.03105L1441 529.357L1442.4 527.937L911.255 1.6104L909.847 3.03105ZM1442.38 529.377L1444.86 527.056L1443.49 525.596L1441.02 527.917L1442.38 529.377ZM1444.88 525.616L913.744 -0.710317L912.337 0.710317L1443.47 527.037L1444.88 525.616ZM912.357 -0.729845L909.879 1.59088L911.246 3.05057L913.724 0.729845L912.357 -0.729845ZM910.563 1.32072H910.551V3.32072H910.563V1.32072ZM985.721 3.03105L1516.87 529.357L1518.28 527.937L987.129 1.6104L985.721 3.03105ZM1518.26 529.377L1520.74 527.056L1519.37 525.596L1516.89 527.917L1518.26 529.377ZM1520.76 525.616L989.629 -0.710309L988.222 0.710309L1519.35 527.037L1520.76 525.616ZM988.242 -0.729836L985.764 1.59089L987.132 3.05056L989.609 0.729836L988.242 -0.729836ZM986.448 1.32072H986.425V3.32072H986.448V1.32072ZM947.784 3.03105L1478.93 529.357L1480.34 527.937L949.192 1.6104L947.784 3.03105ZM1480.32 529.377L1482.8 527.056L1481.43 525.596L1478.95 527.917L1480.32 529.377ZM1482.82 525.616L951.681 -0.710317L950.273 0.710317L1481.41 527.037L1482.82 525.616ZM950.294 -0.729845L947.816 1.59088L949.183 3.05057L951.661 0.729845L950.294 -0.729845ZM948.5 1.32072H948.488V3.32072H948.5V1.32072ZM871.911 3.03105L1403.06 529.357L1404.47 527.937L873.318 1.6104L871.911 3.03105ZM1404.45 529.377L1406.93 527.056L1405.56 525.596L1403.08 527.917L1404.45 529.377ZM1406.95 525.616L875.808 -0.710317L874.4 0.710317L1405.54 527.037L1406.95 525.616ZM874.42 -0.729845L871.942 1.59088L873.31 3.05057L875.787 0.729845L874.42 -0.729845ZM872.626 1.32072H872.615V3.32072H872.626V1.32072ZM758.089 3.03105L1289.24 529.357L1290.65 527.937L759.497 1.6104L758.089 3.03105ZM1290.63 529.377L1293.1 527.056L1291.74 525.596L1289.26 527.917L1290.63 529.377ZM1293.12 525.616L761.986 -0.710317L760.578 0.710317L1291.72 527.037L1293.12 525.616ZM760.598 -0.729845L758.121 1.59088L759.488 3.05057L761.966 0.729845L760.598 -0.729845ZM758.804 1.32072H758.793V3.32072H758.804V1.32072ZM833.962 3.03105L1365.11 529.357L1366.52 527.937L835.37 1.6104L833.962 3.03105ZM1366.5 529.377L1368.98 527.056L1367.61 525.596L1365.13 527.917L1366.5 529.377ZM1369 525.616L837.871 -0.710309L836.463 0.710309L1367.59 527.037L1369 525.616ZM836.483 -0.729836L834.006 1.59089L835.373 3.05056L837.851 0.729836L836.483 -0.729836ZM834.689 1.32072H834.666V3.32072H834.689V1.32072ZM796.026 3.03105L1327.17 529.357L1328.58 527.937L797.433 1.6104L796.026 3.03105ZM1328.56 529.377L1331.04 527.056L1329.67 525.596L1327.2 527.917L1328.56 529.377ZM1331.06 525.616L799.934 -0.710309L798.526 0.710309L1329.65 527.037L1331.06 525.616ZM798.547 -0.729845L796.069 1.59088L797.436 3.05057L799.914 0.729845L798.547 -0.729845ZM796.753 1.32072H796.729V3.32072H796.753V1.32072ZM720.152 3.03105L1251.3 529.357L1252.71 527.937L721.56 1.6104L720.152 3.03105ZM1252.69 529.377L1255.17 527.056L1253.8 525.596L1251.32 527.917L1252.69 529.377ZM1255.19 525.616L724.049 -0.710317L722.641 0.710317L1253.78 527.037L1255.19 525.616ZM722.662 -0.729845L720.184 1.59088L721.551 3.05057L724.029 0.729845L722.662 -0.729845ZM720.867 1.32072H720.856V3.32072H720.867V1.32072ZM606.33 3.03105L1137.48 529.357L1138.89 527.937L607.738 1.6104L606.33 3.03105ZM1138.87 529.377L1141.34 527.056L1139.98 525.596L1137.5 527.917L1138.87 529.377ZM1141.36 525.616L610.239 -0.710309L608.831 0.710309L1139.96 527.037L1141.36 525.616ZM608.851 -0.729845L606.374 1.59088L607.741 3.05057L610.219 0.729845L608.851 -0.729845ZM607.057 1.32072H607.034V3.32072H607.057V1.32072ZM682.204 3.03105L1213.35 529.357L1214.76 527.937L683.612 1.6104L682.204 3.03105ZM1214.74 529.377L1217.22 527.056L1215.85 525.596L1213.37 527.917L1214.74 529.377ZM1217.24 525.616L686.112 -0.710309L684.704 0.710309L1215.83 527.037L1217.24 525.616ZM684.725 -0.729836L682.247 1.59089L683.614 3.05056L686.092 0.729836L684.725 -0.729836ZM682.931 1.32072H682.908V3.32072H682.931V1.32072ZM644.267 3.03105L1175.42 529.357L1176.82 527.937L645.675 1.6104L644.267 3.03105ZM1176.8 529.377L1179.28 527.056L1177.91 525.596L1175.44 527.917L1176.8 529.377ZM1179.3 525.616L648.176 -0.710309L646.768 0.710309L1177.89 527.037L1179.3 525.616ZM646.788 -0.729845L644.31 1.59088L645.678 3.05057L648.155 0.729845L646.788 -0.729845ZM644.994 1.32072H644.971V3.32072H644.994V1.32072ZM568.394 3.03105L1099.54 529.357L1100.95 527.937L569.801 1.6104L568.394 3.03105ZM1100.93 529.377L1103.41 527.056L1102.04 525.596L1099.56 527.917L1100.93 529.377ZM1103.43 525.616L572.291 -0.710317L570.883 0.710317L1102.02 527.037L1103.43 525.616ZM570.903 -0.729845L568.425 1.59088L569.793 3.05057L572.27 0.729845L570.903 -0.729845ZM569.109 1.32072H569.097V3.32072H569.109V1.32072ZM454.572 3.03105L985.721 529.357L987.129 527.937L455.98 1.6104L454.572 3.03105ZM987.108 529.377L989.586 527.056L988.219 525.596L985.741 527.917L987.108 529.377ZM989.606 525.616L458.48 -0.710309L457.072 0.710309L988.199 527.037L989.606 525.616ZM457.093 -0.729845L454.615 1.59088L455.982 3.05057L458.46 0.729845L457.093 -0.729845ZM455.299 1.32072H455.276V3.32072H455.299V1.32072ZM530.445 3.03105L1061.59 529.357L1063 527.937L531.853 1.6104L530.445 3.03105ZM1062.98 529.377L1065.46 527.056L1064.09 525.596L1061.61 527.917L1062.98 529.377ZM1065.48 525.616L534.354 -0.710309L532.946 0.710309L1064.07 527.037L1065.48 525.616ZM532.966 -0.729845L530.489 1.59088L531.856 3.05057L534.333 0.729845L532.966 -0.729845ZM531.172 1.32072H531.149V3.32072H531.172V1.32072ZM492.509 3.03105L1023.66 529.357L1025.07 527.937L493.916 1.6104L492.509 3.03105ZM1025.05 529.377L1027.52 527.056L1026.16 525.596L1023.68 527.917L1025.05 529.377ZM1027.54 525.616L496.417 -0.710309L495.009 0.710309L1026.14 527.037L1027.54 525.616ZM495.03 -0.72984L492.552 1.59088L493.919 3.05056L496.397 0.72984L495.03 -0.72984ZM493.235 1.32072H493.212V3.32072H493.235V1.32072ZM416.635 3.03105L947.784 529.357L949.192 527.937L418.043 1.6104L416.635 3.03105ZM949.172 529.377L951.649 527.056L950.282 525.596L947.804 527.917L949.172 529.377ZM951.67 525.616L420.543 -0.710309L419.136 0.710309L950.262 527.037L951.67 525.616ZM419.156 -0.72984L416.678 1.59088L418.046 3.05056L420.523 0.72984L419.156 -0.72984ZM417.362 1.32072H417.339V3.32072H417.362V1.32072ZM302.813 3.03105L833.962 529.357L835.37 527.937L304.221 1.6104L302.813 3.03105ZM835.35 529.377L837.828 527.056L836.46 525.596L833.983 527.917L835.35 529.377ZM837.848 525.616L306.722 -0.710309L305.314 0.710309L836.44 527.037L837.848 525.616ZM305.334 -0.729845L302.857 1.59088L304.224 3.05057L306.701 0.729845L305.334 -0.729845ZM303.54 1.32072H303.517V3.32072H303.54V1.32072ZM378.687 3.03105L909.836 529.357L911.244 527.937L380.095 1.6104L378.687 3.03105ZM911.223 529.377L913.701 527.056L912.334 525.596L909.856 527.917L911.223 529.377ZM913.721 525.616L382.595 -0.710309L381.187 0.710309L912.314 527.037L913.721 525.616ZM381.208 -0.72984L378.73 1.59088L380.097 3.05056L382.575 0.72984L381.208 -0.72984ZM379.414 1.32072H379.391V3.32072H379.414V1.32072ZM340.75 3.03105L871.899 529.357L873.307 527.937L342.158 1.6104L340.75 3.03105ZM873.287 529.377L875.764 527.056L874.397 525.596L871.919 527.917L873.287 529.377ZM875.785 525.616L344.658 -0.710309L343.251 0.710309L874.377 527.037L875.785 525.616ZM343.271 -0.72984L340.793 1.59088L342.161 3.05056L344.638 0.72984L343.271 -0.72984ZM341.477 1.32072H341.454V3.32072H341.477V1.32072ZM264.876 3.03105L796.026 529.357L797.433 527.937L266.284 1.6104L264.876 3.03105ZM797.413 529.377L799.891 527.056L798.523 525.596L796.046 527.917L797.413 529.377ZM799.911 525.616L268.785 -0.710309L267.377 0.710309L798.503 527.037L799.911 525.616ZM267.397 -0.72984L264.92 1.59088L266.287 3.05056L268.765 0.72984L267.397 -0.72984ZM265.603 1.32072H265.58V3.32072H265.603V1.32072ZM151.055 3.03105L682.204 529.357L683.612 527.937L152.462 1.6104L151.055 3.03105ZM683.591 529.377L686.069 527.056L684.702 525.596L682.224 527.917L683.591 529.377ZM686.089 525.616L154.963 -0.710309L153.555 0.710309L684.681 527.037L686.089 525.616ZM153.576 -0.72984L151.098 1.59088L152.465 3.05056L154.943 0.72984L153.576 -0.72984ZM151.782 1.32072H151.759V3.32072H151.782V1.32072ZM226.928 3.03105L758.077 529.357L759.485 527.937L228.336 1.6104L226.928 3.03105ZM759.465 529.377L761.942 527.056L760.575 525.596L758.098 527.917L759.465 529.377ZM761.963 525.616L230.848 -0.710301L229.44 0.710301L760.555 527.037L761.963 525.616ZM229.461 -0.72984L226.983 1.59088L228.35 3.05056L230.828 0.72984L229.461 -0.72984ZM227.667 1.32072H227.632V3.32072H227.667V1.32072ZM188.991 3.03105L720.141 529.357L721.548 527.937L190.399 1.6104L188.991 3.03105ZM721.528 529.377L724.006 527.056L722.638 525.596L720.161 527.917L721.528 529.377ZM724.026 525.616L192.9 -0.710309L191.492 0.710309L722.618 527.037L724.026 525.616ZM191.512 -0.72984L189.035 1.59088L190.402 3.05056L192.88 0.72984L191.512 -0.72984ZM189.718 1.32072H189.695V3.32072H189.718V1.32072ZM113.118 3.03105L644.267 529.357L645.675 527.937L114.526 1.6104L113.118 3.03105ZM645.655 529.377L648.132 527.056L646.765 525.596L644.287 527.917L645.655 529.377ZM648.152 525.616L117.026 -0.710309L115.619 0.710309L646.745 527.037L648.152 525.616ZM115.639 -0.72984L113.161 1.59088L114.528 3.05056L117.006 0.72984L115.639 -0.72984ZM113.845 1.32072H113.822V3.32072H113.845V1.32072ZM-0.703875 3.03105L530.445 529.357L531.853 527.937L0.703875 1.6104L-0.703875 3.03105ZM531.833 529.377L534.31 527.056L532.943 525.596L530.466 527.917L531.833 529.377ZM534.331 525.616L3.20458 -0.710309L1.7968 0.710309L532.923 527.037L534.331 525.616ZM1.81707 -0.729842L-0.660572 1.59088L0.70666 3.05056L3.18431 0.729842L1.81707 -0.729842ZM0.023044 1.32072H0V3.32072H0.023044V1.32072ZM75.1696 3.03105L606.319 529.357L607.727 527.937L76.5774 1.6104L75.1696 3.03105ZM607.706 529.377L610.184 527.056L608.817 525.596L606.339 527.917L607.706 529.377ZM610.204 525.616L79.0896 -0.710301L77.6818 0.710301L608.796 527.037L610.204 525.616ZM77.7021 -0.729842L75.2245 1.59088L76.5917 3.05056L79.0693 0.729842L77.7021 -0.729842ZM75.9081 1.32072H75.8735V3.32072H75.9081V1.32072ZM37.2329 3.03105L568.382 529.357L569.79 527.937L38.6406 1.6104L37.2329 3.03105ZM569.77 529.377L572.247 527.056L570.88 525.596L568.402 527.917L569.77 529.377ZM572.267 525.616L41.1413 -0.710309L39.7336 0.710309L570.86 527.037L572.267 525.616ZM39.7538 -0.729842L37.2762 1.59088L38.6434 3.05056L41.1211 0.729842L39.7538 -0.729842ZM37.9598 1.32072H37.9368V3.32072H37.9598V1.32072Z" fill="#F8E4DE" mask="url(#path-1-inside-1_2572_181)"/>
</mask>
<g mask="url(#mask0_2572_181)">
<path d="M468 123.612C468 94.003 487.554 70 511.675 70H1046.85C1070.98 70 1090.53 78.2926 1090.53 123.612V475.673C1090.53 520.354 1070.98 529.285 1046.85 529.285H511.675C487.554 529.285 468 505.282 468 475.673V123.612Z" fill="#F14337" stroke="#F14337"/>
</g>
</svg>
